<?xml version="1.0" standalone="no"?>
<!DOCTYPE svg PUBLIC "-//W3C//DTD SVG 1.1//EN" "http://www.w3.org/Graphics/SVG/1.1/DTD/svg11.dtd" >
<svg xmlns="http://www.w3.org/2000/svg">
<metadata>
Created by FontPrep 20130207 at Thu Apr 24 18:08:51 2014
 By Khoa Nguyen
Copyright (c) 2007 Linotype GmbH, www.linotype.com. All rights reserved. This font software may not be reproduced, modified, disclosed or transferred without the express written approval of Linotype GmbH. Frutiger Next is a trademark of Linotype GmbH and may be registered in certain jurisdictions. This typeface is original artwork of Adrian Frutiger and Linotype Design Studio. The design may be protected in certain jurisdictions. 
</metadata>
<defs>
<font id="a376ed73a3ed07b884e2204d1ee34123" horiz-adv-x='1024' >
  <font-face 
    font-family="FrutigerNextPro-BoldCn"
    font-weight="700"
    font-stretch="condensed"
    units-per-em="2048"
    panose-1="2 11 8 6 4 2 4 2 2 3"
    ascent="1477"
    descent="-571"
    x-height="1028"
    cap-height="1366"
    bbox="-199 -492 2170 1853"
    underline-thickness="102"
    underline-position="-102"
    unicode-range="U+000D-FB02"
  />
<missing-glyph horiz-adv-x="1048" 
d="M102 1366v-1264h844v1264h-844zM1049 0h-1049v1470h1049v-1470zM539 494h-97v18q0 125 81 218q34 38 68 74q81 86 81 191q0 70 -45 114t-131 44t-193 -43l-8 96q104 41 219 41q116 -1 190 -67t74 -187q0 -77 -38 -143t-82 -104t-82 -98t-37 -132v-22zM551 240h-121v131
h121v-131z" />
    <glyph glyph-name="IJ" unicode="IJ" horiz-adv-x="1202" 
d="M683 188q46 0 80 36t41 79t7 109v954h252v-950q0 -205 -76 -322t-272 -117q-60 0 -162 33l12 205q72 -27 118 -27zM408 0h-252v1366h252v-1366z" />
    <glyph glyph-name="ij" unicode="ij" horiz-adv-x="970" 
d="M846 1221h-240v225h240v-225zM608 -137v1165h238v-1157q0 -334 -260 -334q-93 0 -146 23l13 172q37 -12 49 -13q106 0 106 144zM367 1221h-240v225h240v-225zM365 0h-238v1028h238v-1028z" />
    <glyph glyph-name="napostrophe" unicode="&#x22;n" horiz-adv-x="1189" 
d="M150 944h-185l117 533h223zM768 1049q152 1 224 -99t71 -260v-690h-238v678q0 188 -141 188q-80 0 -124 -68t-44 -151v-647h-237v774l-7 254h217l7 -151q84 172 272 172z" />
    <glyph glyph-name="fi" unicode="fi" horiz-adv-x="1095" 
d="M971 1221h-240v225h240v-225zM969 0h-238v1028h238v-1028zM430 0h-235v850h-164v178h164v158q0 311 284 311q59 0 162 -20l-12 -174q-39 16 -78 16q-121 0 -121 -152v-139h182v-178h-182v-850z" />
    <glyph glyph-name="fl" unicode="fl" horiz-adv-x="1095" 
d="M969 0h-238v1477h238v-1477zM430 0h-235v850h-164v178h164v158q0 311 284 311q59 0 162 -20l-12 -174q-39 16 -78 16q-121 0 -121 -152v-139h182v-178h-182v-850z" />
    <glyph glyph-name=".notdef" horiz-adv-x="1048" 
d="M102 1366v-1264h844v1264h-844zM1049 0h-1049v1470h1049v-1470zM539 494h-97v18q0 125 81 218q34 38 68 74q81 86 81 191q0 70 -45 114t-131 44t-193 -43l-8 96q104 41 219 41q116 -1 190 -67t74 -187q0 -77 -38 -143t-82 -104t-82 -98t-37 -132v-22zM551 240h-121v131
h121v-131z" />
    <glyph glyph-name=".null" horiz-adv-x="2048" 
 />
    <glyph glyph-name=".null" horiz-adv-x="2048" 
 />
    <glyph glyph-name="nonmarkingreturn" horiz-adv-x="681" 
 />
    <glyph glyph-name="CR" unicode="&#xd;" horiz-adv-x="0" 
 />
    <glyph glyph-name="space" unicode=" " horiz-adv-x="497" 
 />
    <glyph glyph-name="exclam" unicode="!" horiz-adv-x="567" 
d="M401 0h-233v270h233v-270zM381 418h-193l-30 948h252z" />
    <glyph glyph-name="quotedbl" unicode="&#x22;" horiz-adv-x="843" 
d="M338 940h-203v426h203v-426zM711 940h-203v426h203v-426z" />
    <glyph glyph-name="numbersign" unicode="#" horiz-adv-x="995" 
d="M410 807l-33 -248h207l32 248h-206zM51 408v151h174l33 248h-168v151h193l53 408h151l-55 -408h207l55 408h152l-55 -408h153v-151h-176l-33 -248h170v-151h-194l-56 -408h-151l57 408h-209l-55 -408h-152l58 408h-152z" />
    <glyph glyph-name="dollar" unicode="$" horiz-adv-x="995" 
d="M555 -221h-131v198q-188 4 -305 60l12 219q131 -88 265 -88t183 59q48 59 48 125t-26 110t-51 62q-26 18 -91 58l-125 69q-119 68 -170 154q-51 85 -51 225t92 230t233 116v209h129v-199q98 -2 267 -45l-13 -215q-129 70 -229 70t-161 -42q-60 -42 -60 -117
q-1 -75 33 -115t110 -84l117 -68q141 -80 198 -159t57 -229t-90 -258q-91 -108 -241 -136v-209z" />
    <glyph glyph-name="percent" unicode="%" horiz-adv-x="1638" 
d="M391 1260q-66 0 -86 -77t-20 -253q0 -265 106 -262q66 0 85 76q20 76 20 220q0 142 -20 219t-85 77zM1247 102q66 0 86 78q21 78 21 218t-20 218t-87 78q-66 0 -85 -76t-19 -253q0 -263 104 -263zM392 543q-276 0 -277 422q0 152 48 270q28 70 86 111t142 40
q277 0 277 -422t-276 -421zM598 -49h-147l589 1464h148zM1247 821q277 0 277 -422t-276 -422t-277 422q0 153 48 271q28 70 86 110t142 41z" />
    <glyph glyph-name="ampersand" unicode="&#x26;" horiz-adv-x="1136" 
d="M719 612h-123q-108 0 -182 -62t-74 -164t67 -160t158 -58t154 20v424zM944 612v-577q-172 -57 -376 -57t-335 92t-131 295q0 141 96 234t240 106q-301 29 -301 317q0 170 132 267t313 97q131 0 278 -47l-12 -206q-121 63 -266 63q-88 0 -148 -54t-59 -147q0 -93 57 -147
t164 -55h123v145h225v-145h160v-181h-160z" />
    <glyph glyph-name="quotesingle" unicode="'" horiz-adv-x="497" 
d="M350 940h-203v426h203v-426z" />
    <glyph glyph-name="parenleft" unicode="(" horiz-adv-x="550" 
d="M98 608q0 250 72 449t203 420h186q-246 -423 -246 -867t246 -872h-186q-131 221 -203 421q-72 199 -72 449z" />
    <glyph glyph-name="parenright" unicode=")" horiz-adv-x="550" 
d="M238 605q0 443 -244 872h186q131 -219 202 -420t71 -452t-71 -451t-202 -416h-186q244 424 244 867z" />
    <glyph glyph-name="asterisk" unicode="*" horiz-adv-x="784" 
d="M276 684l-153 104l168 201l-246 58l59 178l234 -119l-35 260h189l-33 -260l225 119l57 -178l-247 -58l174 -201l-158 -104l-117 231z" />
    <glyph glyph-name="plus" unicode="+" horiz-adv-x="1204" 
d="M506 426h-432v188h432v426h194v-426h430v-188h-430v-426h-194v426z" />
    <glyph glyph-name="comma" unicode="," horiz-adv-x="497" 
d="M225 -262h-184l117 532h223z" />
    <glyph glyph-name="hyphen" unicode="-" horiz-adv-x="620" 
d="M537 537h-453v196h453v-196z" />
    <glyph glyph-name="period" unicode="." horiz-adv-x="497" 
d="M367 0h-236v270h236v-270z" />
    <glyph glyph-name="slash" unicode="/" horiz-adv-x="540" 
d="M176 0h-166l352 1366h170z" />
    <glyph glyph-name="zero" unicode="0" horiz-adv-x="995" 
d="M494 162q56 0 90 33q35 33 52 77q42 110 42 411t-42 408q-17 47 -52 79t-89 32q-55 0 -93 -44t-59 -149t-24 -327q0 -369 82 -475q37 -45 93 -45zM82 682q0 246 74 450q41 116 129 186t215 68q416 0 415 -704q0 -206 -36 -338q-35 -132 -79 -202q-44 -72 -121 -118
t-175 -46t-164 32q-258 129 -258 672z" />
    <glyph glyph-name="one" unicode="1" horiz-adv-x="995" 
d="M686 0h-244v1083l-176 -180l-116 174l333 289h203v-1366z" />
    <glyph glyph-name="two" unicode="2" horiz-adv-x="995" 
d="M864 0h-768v190l125 146q288 335 348 494q33 85 33 172q0 86 -51 140t-149 54t-257 -82l-12 197q176 75 348 75q171 0 271 -104t100 -268q0 -299 -338 -660l-149 -164h499v-190z" />
    <glyph glyph-name="three" unicode="3" horiz-adv-x="995" 
d="M608 1022q0 174 -235 174q-109 0 -240 -68l-12 197q152 61 328 61q177 0 291 -89t114 -259q0 -114 -69 -198t-195 -115q118 -18 196 -104t78 -232q0 -184 -126 -298t-369 -114q-57 1 -147 17t-136 39l12 203q130 -68 256 -68t194 61t68 171t-78 167q-79 57 -208 58h-74
v186h74q279 0 278 211z" />
    <glyph glyph-name="four" unicode="4" horiz-adv-x="995" 
d="M575 467v655l-348 -655h348zM567 283h-506v227l465 856h277v-899h139v-184h-139v-283h-236v283z" />
    <glyph glyph-name="five" unicode="5" horiz-adv-x="995" 
d="M379 168q121 0 193 69t71 195q0 126 -72 194q-72 66 -189 66t-235 -37l17 711h663v-190h-448l-10 -322q55 18 120 18q197 0 301 -117q103 -118 103 -322t-133 -330t-359 -126q-173 1 -284 60l14 199q127 -68 248 -68z" />
    <glyph glyph-name="six" unicode="6" horiz-adv-x="995" 
d="M506 162q92 0 136 85t44 186t-41 176t-132 75t-133 -78t-42 -176t33 -172q43 -96 135 -96zM633 1196q-291 0 -314 -475q86 147 255 147q170 0 260 -124t90 -316t-114 -322q-114 -129 -300 -129q-418 0 -418 639q0 275 101 504q53 121 157 194q104 72 242 72t274 -47
l-12 -198q-117 55 -221 55z" />
    <glyph glyph-name="seven" unicode="7" horiz-adv-x="995" 
d="M104 1176v190h766v-201l-407 -1165h-262l430 1176h-527z" />
    <glyph glyph-name="eight" unicode="8" horiz-adv-x="995" 
d="M311 368q0 -90 50 -148q49 -58 135 -58t138 59t52 146q0 135 -127 219q-49 33 -76 49q-80 -55 -126 -117t-46 -150zM498 1202q-72 0 -117 -50t-45 -120q-1 -118 108 -198q45 -29 70 -41q147 102 148 239q0 72 -46 121t-118 49zM111 1047q-1 159 113 249t275 90t275 -91
t113 -248q0 -209 -228 -332q121 -63 193 -147t72 -212q0 -174 -122 -276t-306 -102t-303 102t-119 280t159 289q53 39 99 66q-113 55 -167 134t-54 198z" />
    <glyph glyph-name="nine" unicode="9" horiz-adv-x="995" 
d="M492 1204q-96 0 -138 -80t-41 -183q0 -103 42 -182q41 -79 133 -79t133 78t41 158t-12 136t-54 104q-41 48 -104 48zM383 170q285 0 299 475q-38 -69 -104 -109t-144 -40q-174 0 -266 128t-92 315t113 318q114 131 300 132q99 0 177 -40q78 -39 122 -101
q122 -169 123 -496q0 -232 -44 -374t-96 -220t-142 -128q-91 -50 -221 -50t-265 47l13 200q131 -57 227 -57z" />
    <glyph glyph-name="colon" unicode=":" horiz-adv-x="497" 
d="M367 0h-236v270h236v-270zM367 764h-236v270h236v-270z" />
    <glyph glyph-name="semicolon" unicode=";" horiz-adv-x="497" 
d="M225 -262h-184l117 532h223zM365 764h-234v270h234v-270z" />
    <glyph glyph-name="less" unicode="&#x3c;" horiz-adv-x="1204" 
d="M1126 0l-1056 418v200l1056 420v-200l-835 -320l835 -317v-201z" />
    <glyph glyph-name="equal" unicode="=" horiz-adv-x="1204" 
d="M1130 213h-1056v186h1056v-186zM1130 637h-1056v188h1056v-188z" />
    <glyph glyph-name="greater" unicode="&#x3e;" horiz-adv-x="1204" 
d="M1135 418l-1057 -418v201l835 317l-835 320v200l1057 -420v-200z" />
    <glyph glyph-name="question" unicode="?" horiz-adv-x="798" 
d="M473 0h-235v270h235v-270zM461 418h-211v47q0 90 37 169t81 126q119 127 117 246q0 86 -53 135t-153 49t-209 -62l-13 205q131 53 295 53t276 -84t111 -258q0 -90 -44 -174t-95 -138t-95 -129t-44 -148v-37z" />
    <glyph glyph-name="at" unicode="@" horiz-adv-x="1853" 
d="M979 -463q-403 0 -641 250t-238 672q0 281 103 513q102 232 308 378t480 147q352 0 558 -227t206 -584q0 -293 -135 -501t-336 -208t-227 199q-102 -199 -285 -199q-121 -1 -198 95q-76 96 -76 271t63 334t199 265t298 106q164 0 314 -53l-141 -643q-12 -61 -12 -102
q0 -115 98 -115t172 154t74 383q0 305 -151 479t-429 174q-209 0 -367 -122q-158 -123 -234 -317t-77 -427q0 -350 178 -550t512 -200q233 0 432 88l15 -180q-213 -80 -463 -80zM1051 872q-99 0 -179 -91t-116 -210t-37 -220q0 -101 32 -146t83 -45q153 0 235 375l70 323
q-37 14 -88 14z" />
    <glyph glyph-name="A" unicode="A" horiz-adv-x="1185" 
d="M586 1153l-178 -637h358zM272 0h-252l433 1366h282l430 -1366h-260l-92 334h-448z" />
    <glyph glyph-name="B" unicode="B" horiz-adv-x="1089" 
d="M401 612v-426h136q213 0 213 209q0 101 -56 159t-155 58h-138zM401 1180v-392h121q96 0 148 56t53 148q0 92 -53 140t-146 48h-123zM578 0h-422v1366h432q164 0 272 -91t109 -251q0 -119 -65 -201t-171 -112q117 -25 191 -111t73 -217q0 -182 -116 -283
q-117 -100 -303 -100z" />
    <glyph glyph-name="C" unicode="C" horiz-adv-x="1056" 
d="M98 684q0 317 175 510t438 192q166 0 272 -51l-12 -215q-82 66 -251 66t-266 -144q-98 -144 -98 -359q0 -216 100 -359t273 -144q135 1 248 56l12 -213q-109 -45 -272 -46q-301 0 -460 195t-159 512z" />
    <glyph glyph-name="D" unicode="D" horiz-adv-x="1228" 
d="M508 0h-352v1366h327q322 0 486 -174t164 -488t-164 -510q-164 -194 -461 -194zM408 1169v-972h94q194 0 282 141t88 358q0 473 -385 473h-79z" />
    <glyph glyph-name="E" unicode="E" horiz-adv-x="972" 
d="M885 0h-729v1366h708v-197h-461v-366h433v-195h-433v-411h482v-197z" />
    <glyph glyph-name="F" unicode="F" horiz-adv-x="919" 
d="M408 0h-252v1366h688v-197h-436v-374h415v-195h-415v-600z" />
    <glyph glyph-name="G" unicode="G" horiz-adv-x="1206" 
d="M1094 762v-711q-154 -74 -342 -74q-353 0 -503 199q-151 199 -151 504t173 506t472 200q162 0 318 -61l-12 -215q-143 82 -293 82q-195 0 -297 -148q-103 -148 -103 -384q0 -235 124 -381q92 -107 253 -107q76 0 129 21v385h-188v184h420z" />
    <glyph glyph-name="H" unicode="H" horiz-adv-x="1202" 
d="M408 0h-252v1366h252v-559h387v559h252v-1366h-252v604h-387v-604z" />
    <glyph glyph-name="I" unicode="I" horiz-adv-x="561" 
d="M408 0h-252v1366h252v-1366z" />
    <glyph glyph-name="J" unicode="J" horiz-adv-x="657" 
d="M138 188q46 0 80 36t41 79t7 109v954h252v-950q0 -205 -76 -322t-272 -117q-60 0 -162 33l12 205q72 -27 118 -27z" />
    <glyph glyph-name="K" unicode="K" horiz-adv-x="1122" 
d="M408 0h-252v1366h252v-592l378 592h289l-452 -641l491 -725h-303l-403 647v-647z" />
    <glyph glyph-name="L" unicode="L" horiz-adv-x="874" 
d="M838 0h-682v1366h252v-1163h430v-203z" />
    <glyph glyph-name="M" unicode="M" horiz-adv-x="1589" 
d="M373 0h-217v1366h366l269 -1022l276 1022h367v-1366h-244v1145l-316 -1145h-186l-315 1145v-1145z" />
    <glyph glyph-name="N" unicode="N" horiz-adv-x="1271" 
d="M373 0h-217v1366h327l416 -1077v1077h219v-1366h-327l-418 1075v-1075z" />
    <glyph glyph-name="O" unicode="O" horiz-adv-x="1255" 
d="M899 682q0 516 -271 516t-270 -516t269 -516q272 0 272 516zM618 1386q130 0 224 -40t152 -109q165 -193 165 -553q0 -359 -175 -557q-133 -149 -379 -149q-134 0 -234 61q-272 172 -273 643q0 272 118 477q60 103 166 165t236 62z" />
    <glyph glyph-name="P" unicode="P" horiz-adv-x="1034" 
d="M401 1176v-453h103q223 0 223 226t-240 227h-86zM403 0h-247v1366h376q209 0 330 -105t121 -307t-120 -312t-318 -110h-142v-532z" />
    <glyph glyph-name="Q" unicode="Q" horiz-adv-x="1255" 
d="M899 682q0 516 -271 516t-270 -516t269 -516q272 0 272 516zM98 680q0 274 118 479q60 103 166 165t236 62t224 -40t152 -109q165 -193 165 -547q1 -217 -67 -392t-211 -255l268 -305h-285l-190 244q-29 -4 -47 -5q-145 1 -253 61t-165 165q-111 203 -111 477z" />
    <glyph glyph-name="R" unicode="R" horiz-adv-x="1103" 
d="M401 1176v-404h121q104 0 158 54q53 54 53 153q0 197 -215 197h-117zM403 0h-247v1366h434q172 0 286 -93t113 -259q1 -133 -69 -220t-201 -112q67 -16 101 -56t65 -126l170 -500h-267l-131 426q-27 82 -59 118q-33 36 -92 36h-103v-580z" />
    <glyph glyph-name="S" unicode="S" horiz-adv-x="954" 
d="M374 168q130 0 182 55t52 138t-53 135t-149 106l-70 37q-127 69 -184 149t-58 201q0 189 132 293t293 104t296 -45l-12 -215q-129 70 -229 70t-161 -44t-61 -121t35 -113t129 -93l62 -34q147 -82 219 -171t71 -233q0 -190 -125 -300q-125 -109 -317 -109t-326 59l13 219
q131 -88 261 -88z" />
    <glyph glyph-name="T" unicode="T" horiz-adv-x="894" 
d="M573 0h-249v1163h-297v203h843v-203h-297v-1163z" />
    <glyph glyph-name="U" unicode="U" horiz-adv-x="1189" 
d="M393 1366v-905q0 -135 41 -213t160 -78q205 0 205 291v905h252v-870q0 -236 -114 -377t-343 -142q-453 0 -453 519v870h252z" />
    <glyph glyph-name="V" unicode="V" horiz-adv-x="1091" 
d="M688 0h-280l-392 1366h271l268 -1085l260 1085h260z" />
    <glyph glyph-name="W" unicode="W" horiz-adv-x="1630" 
d="M612 0h-293l-286 1366h254l190 -1077l205 1077h287l202 -1077l193 1077h233l-286 -1366h-291l-201 1116z" />
    <glyph glyph-name="X" unicode="X" horiz-adv-x="1095" 
d="M287 0h-269l377 725l-344 641h283l221 -465l215 465h268l-342 -641l381 -725h-282l-254 547z" />
    <glyph glyph-name="Y" unicode="Y" horiz-adv-x="995" 
d="M623 0h-250v547l-377 819h287l225 -588l217 588h274l-376 -819v-547z" />
    <glyph glyph-name="Z" unicode="Z" horiz-adv-x="950" 
d="M887 0h-824v203l545 966h-526v197h797v-201l-541 -968h549v-197z" />
    <glyph glyph-name="bracketleft" unicode="[" horiz-adv-x="550" 
d="M512 -262h-365v1739h365v-166h-172v-1405h172v-168z" />
    <glyph glyph-name="backslash" unicode="\" horiz-adv-x="540" 
d="M532 0h-167l-355 1366h168z" />
    <glyph glyph-name="bracketright" unicode="]" horiz-adv-x="550" 
d="M406 -262h-365v168h172v1405h-172v166h365v-1739z" />
    <glyph glyph-name="asciicircum" unicode="^" horiz-adv-x="1204" 
d="M362 496h-206l356 870h182l357 -870h-207l-244 641z" />
    <glyph glyph-name="underscore" unicode="_" horiz-adv-x="1024" 
d="M1024 -256h-1024v102h1024v-102z" />
    <glyph glyph-name="grave" unicode="`" horiz-adv-x="493" 
d="M344 1192h-151l-189 278h189z" />
    <glyph glyph-name="a" unicode="a" horiz-adv-x="985" 
d="M360 -23q-139 -1 -218 89t-79 206q0 213 166 290q141 67 334 69h70v51q0 201 -191 201q-141 0 -276 -92l-12 188q160 70 327 70q379 0 379 -359v-465q0 -137 8 -225h-225l-6 141q-51 -86 -116 -125t-161 -39zM291 309q1 -166 161 -166q86 0 134 79q47 79 47 186v88h-55
q-287 0 -287 -187z" />
    <glyph glyph-name="b" unicode="b" horiz-adv-x="1050" 
d="M729 518q1 354 -189 352q-64 0 -110 -64q-45 -64 -56 -136q-11 -70 -12 -152q1 -238 87 -328q37 -36 96 -36t98 39q59 59 80 219q6 53 6 106zM127 0v1477h238v-596q88 168 266 168q98 -1 171 -51q72 -50 108 -133q68 -160 69 -349q0 -189 -75 -350q-38 -84 -110 -136
t-169 -53q-190 0 -271 168l-4 -145h-223z" />
    <glyph glyph-name="c" unicode="c" horiz-adv-x="823" 
d="M547 -23q-240 0 -357 153q-116 153 -116 387q0 235 133 383t354 149q121 0 199 -41l-12 -189q-72 41 -166 41q-134 0 -196 -100t-62 -242q0 -352 274 -352q84 0 160 43l12 -191q-98 -41 -223 -41z" />
    <glyph glyph-name="d" unicode="d" horiz-adv-x="1050" 
d="M504 154q186 0 186 364q0 236 -91 318q-40 34 -95 34t-94 -36q-86 -80 -86 -311q0 -230 84 -328q37 -41 96 -41zM74 518q0 92 16 178t53 169t110 133t173 51q174 0 262 -168v596h238v-1223q0 -162 6 -254h-227l-7 152q-84 -174 -270 -175q-98 1 -171 53t-111 137t-55 172
t-17 179z" />
    <glyph glyph-name="e" unicode="e" horiz-adv-x="940" 
d="M879 457h-572q0 -127 71 -220t206 -93t237 71l13 -180q-117 -57 -279 -58q-241 1 -361 149t-120 378t112 387q113 158 316 158q377 0 377 -519v-73zM659 592q0 297 -155 297q-94 0 -142 -85t-55 -212h352z" />
    <glyph glyph-name="f" unicode="f" horiz-adv-x="634" 
d="M430 0h-235v850h-164v178h164v158q0 311 284 311q59 0 162 -20l-12 -174q-39 16 -78 16q-121 0 -121 -152v-139h182v-178h-182v-850z" />
    <glyph glyph-name="g" unicode="g" horiz-adv-x="1050" 
d="M502 176q188 0 188 344q0 236 -91 318q-40 34 -95 34t-94 -36q-86 -80 -86 -309q0 -228 82 -314q37 -37 96 -37zM436 -285q189 0 232 171q20 80 20 210v68q-86 -164 -260 -164q-98 0 -170 47t-111 126q-73 148 -73 344t72 350q38 81 110 131t168 51q184 0 270 -168v147
h232v-954q0 -537 -463 -537q-147 1 -340 60l12 200q154 -82 301 -82z" />
    <glyph glyph-name="h" unicode="h" horiz-adv-x="1034" 
d="M670 684q0 182 -147 182q-79 0 -119 -76t-39 -165v-625h-238v1477h238v-600q31 75 101 123t155 49q151 -1 219 -95t67 -249v-705h-237v684z" />
    <glyph glyph-name="i" unicode="i" 
d="M367 1221h-240v225h240v-225zM365 0h-238v1028h238v-1028z" />
    <glyph glyph-name="j" unicode="j" horiz-adv-x="495" 
d="M371 1221h-240v225h240v-225zM133 -137v1165h238v-1157q0 -334 -260 -334q-93 0 -146 23l12 172q37 -12 50 -13q106 0 106 144z" />
    <glyph glyph-name="k" unicode="k" horiz-adv-x="944" 
d="M365 0h-238v1477h238v-865l278 416h262l-332 -459l361 -569h-268l-301 518v-518z" />
    <glyph glyph-name="l" unicode="l" 
d="M365 0h-238v1477h238v-1477z" />
    <glyph glyph-name="m" unicode="m" horiz-adv-x="1527" 
d="M362 0h-235v774q0 2 -6 254h217l6 -151q84 172 266 172t248 -172q100 172 254 172q290 0 289 -351v-698h-236v678q0 188 -131 188q-72 0 -112 -70t-41 -149v-647h-234v678q0 188 -131 188q-72 0 -113 -70t-41 -149v-647z" />
    <glyph glyph-name="n" unicode="n" horiz-adv-x="1038" 
d="M616 1049q152 1 224 -99t71 -260v-690h-237v678q0 188 -142 188q-80 0 -124 -68t-43 -151v-647h-238v774l-6 254h217l6 -151q84 172 272 172z" />
    <glyph glyph-name="o" unicode="o" horiz-adv-x="1026" 
d="M512 156q150 0 183 252q7 53 7 110q0 354 -188 354q-57 0 -97 -36q-41 -36 -67 -118q-26 -81 -26 -200q0 -229 90 -323q39 -39 98 -39zM521 1049q214 0 323 -151q108 -151 108 -377t-112 -385t-326 -159q-119 1 -201 46q-240 133 -239 495q0 217 116 374q117 157 331 157
z" />
    <glyph glyph-name="p" unicode="p" horiz-adv-x="1050" 
d="M729 519q0 233 -84 315q-39 36 -103 36t-110 -63q-45 -63 -57 -134t-13 -155q1 -238 87 -328q37 -36 96 -36t98 39t56 102q30 111 30 224zM365 -442h-238v1216q0 162 -6 254h227l6 -154q96 174 264 175q276 0 345 -349q16 -86 16 -179q0 -193 -75 -355q-38 -84 -110 -136
t-169 -53q-178 0 -260 166v-585z" />
    <glyph glyph-name="q" unicode="q" horiz-adv-x="1050" 
d="M504 156q186 0 186 362q0 235 -91 319q-40 35 -95 35t-94 -36q-86 -80 -86 -312q0 -231 84 -329q37 -39 96 -39zM926 -442h-238v585q-82 -166 -260 -166q-98 1 -172 53t-111 137q-71 163 -71 354t72 347q38 82 112 131t176 50q170 0 262 -168v147h230v-1470z" />
    <glyph glyph-name="r" unicode="r" horiz-adv-x="675" 
d="M365 522v-522h-238v774l-6 254h217l4 -170q86 190 264 191q4 0 47 -7l-12 -219q-37 10 -68 11q-77 0 -125 -52q-84 -90 -83 -260z" />
    <glyph glyph-name="s" unicode="s" horiz-adv-x="806" 
d="M78 752q0 150 112 224t258 73q146 0 244 -39l-12 -191q-124 53 -200 53q-164 0 -163 -112q0 -86 151 -156q62 -28 124 -62t107 -96q44 -62 44 -149q0 -158 -104 -239q-104 -80 -275 -80t-294 53l18 198q137 -73 277 -73t141 118q0 80 -152 154q-64 31 -126 68
q-62 36 -106 102t-44 154z" />
    <glyph glyph-name="t" unicode="t" horiz-adv-x="667" 
d="M440 -23q-254 0 -254 275v598h-147v178h151v217l232 76v-293h196v-178h-196v-555q0 -71 19 -103t73 -32t102 26l13 -176q-84 -33 -189 -33z" />
    <glyph glyph-name="u" unicode="u" horiz-adv-x="1030" 
d="M123 338v690h237v-678q0 -188 140 -188q80 0 123 68t43 153v645h237v-774l6 -254h-217l-6 150q-84 -172 -270 -173q-152 -1 -222 99t-71 262z" />
    <glyph glyph-name="v" unicode="v" horiz-adv-x="909" 
d="M598 0h-283l-303 1028h256l195 -807l196 807h240z" />
    <glyph glyph-name="w" unicode="w" horiz-adv-x="1439" 
d="M547 0h-264l-267 1028h246l162 -805l170 805h268l172 -805l160 805h231l-264 -1028h-264l-174 805z" />
    <glyph glyph-name="x" unicode="x" horiz-adv-x="919" 
d="M270 0h-256l303 532l-278 496h270l160 -338l158 338h252l-279 -498l305 -530h-270l-178 381z" />
    <glyph glyph-name="y" unicode="y" horiz-adv-x="903" 
d="M190 -281q94 0 132 144l34 135l-344 1030h260l201 -745l178 745h238l-344 -1157q-53 -172 -123 -253t-199 -81q-73 0 -143 27l12 178q35 -23 98 -23z" />
    <glyph glyph-name="z" unicode="z" horiz-adv-x="794" 
d="M739 0h-684v195l432 655h-415v178h659v-194l-432 -654h440v-180z" />
    <glyph glyph-name="braceleft" unicode="{" horiz-adv-x="595" 
d="M580 -262h-127q-115 0 -186 62t-70 188v338q0 213 -148 213v139q147 0 148 207v342q0 125 71 187q72 62 185 63h127v-134h-78q-61 1 -84 -31t-23 -108v-358q0 -117 -56 -172t-132 -66q188 -25 188 -243v-353q0 -76 23 -108t84 -31h78v-135z" />
    <glyph glyph-name="bar" unicode="|" horiz-adv-x="425" 
d="M303 -442h-178v2031h178v-2031z" />
    <glyph glyph-name="braceright" unicode="}" horiz-adv-x="598" 
d="M147 -262h-127v135h78q61 0 85 33t24 106v353q0 219 188 243q-76 10 -132 66t-56 172v358q0 74 -24 107t-85 32h-78v134h127q113 -1 185 -63t71 -187v-342q0 -207 148 -207v-139q-147 0 -148 -213v-338q0 -125 -70 -188q-71 -62 -186 -62z" />
    <glyph glyph-name="asciitilde" unicode="~" horiz-adv-x="1204" 
d="M326 684q92 0 286 -70t271 -69q113 0 143 145h129q-8 -133 -77 -234t-193 -102q-94 0 -288 71t-264 71t-108 -41q-37 -42 -45 -105h-131q14 134 84 234t193 100z" />
    <glyph glyph-name="uni00A0" unicode="&#xa0;" horiz-adv-x="497" 
 />
    <glyph glyph-name="exclamdown" unicode="&#xa1;" horiz-adv-x="567" 
d="M410 -338h-252l30 950h193zM401 760h-233v268h233v-268z" />
    <glyph glyph-name="cent" unicode="&#xa2;" horiz-adv-x="995" 
d="M614 0h-110v190q-170 29 -257 166t-87 331t92 327t252 162v190h110v-184q86 -2 187 -41l-13 -183q-84 45 -161 46q-115 0 -174 -96t-59 -225q0 -130 56 -224q58 -94 185 -94q68 0 162 47l12 -183q-104 -35 -195 -43v-186z" />
    <glyph glyph-name="sterling" unicode="&#xa3;" horiz-adv-x="995" 
d="M907 0h-801v176h144v457h-133v170h133v158q0 199 117 313t315 112q129 0 238 -51l-13 -184q-96 51 -193 51t-164 -68t-67 -184v-147h295v-170h-295v-457h424v-176z" />
    <glyph glyph-name="currency" unicode="&#xa4;" horiz-adv-x="995" 
d="M499 414q91 0 157 79t67 189q0 110 -67 188q-66 78 -158 78t-157 -78t-65 -188t64 -190q68 -78 159 -78zM100 685q0 132 70 245l-121 133l107 121l120 -135q102 77 222 77t225 -75l119 131l106 -121l-119 -131q70 -129 70 -259t-70 -237l119 -133l-106 -119l-121 135
q-103 -80 -221 -80t-224 78l-118 -133l-107 121l119 131q-70 119 -70 251z" />
    <glyph glyph-name="yen" unicode="&#xa5;" horiz-adv-x="995" 
d="M389 254h-268v164h268v145h-268v164h201l-275 639h229l232 -575l219 575h223l-276 -639h205v-164h-273v-145h273v-164h-273v-254h-217v254z" />
    <glyph glyph-name="brokenbar" unicode="&#xa6;" horiz-adv-x="425" 
d="M303 -442h-178v813h178v-813zM303 776h-178v811h178v-811z" />
    <glyph glyph-name="section" unicode="&#xa7;" horiz-adv-x="995" 
d="M426 -80q74 0 125 40t51 101q0 90 -125 160l-155 90q-197 109 -197 275q0 90 55 164t119 102q-133 90 -133 246q0 116 99 202t260 86t284 -53l-12 -182q-165 61 -233 61t-115 -32t-47 -84q0 -53 29 -87q30 -34 93 -75l135 -86q104 -68 155 -132q50 -66 50 -142t-28 -132
t-51 -81q-24 -26 -70 -70q121 -87 121 -225t-104 -229t-288 -91q-123 0 -301 72l13 186q147 -84 270 -84zM428 473l158 -98q72 78 71 160q0 82 -110 161l-129 88q-33 -26 -60 -70t-26 -83q0 -92 96 -158z" />
    <glyph glyph-name="dieresis" unicode="&#xa8;" 
d="M174 1217h-174v225h174v-225zM494 1217h-177v225h177v-225z" />
    <glyph glyph-name="copyright" unicode="&#xa9;" horiz-adv-x="1603" 
d="M870 309q-194 -1 -312 99t-118 273t122 275t308 103q88 0 193 -29l-8 -131q-78 31 -158 31q-127 0 -201 -67t-74 -181t72 -178q70 -66 199 -66q78 0 164 35l6 -131q-86 -33 -193 -33zM803 115q231 0 391 167t160 401t-160 400t-391 166t-392 -166t-161 -398t160 -402
q162 -168 393 -168zM98 684q0 291 207 497q207 205 498 205t497 -206t207 -497q0 -292 -207 -499t-497 -207q-146 1 -275 56q-194 82 -312 258t-118 393z" />
    <glyph glyph-name="ordfeminine" unicode="&#xaa;" horiz-adv-x="675" 
d="M428 1139v22q0 109 -117 109q-90 0 -182 -51l-8 129q111 39 221 38q248 0 248 -219v-278q0 -22 6 -139h-162l-6 86q-60 -100 -162 -100t-154 51q-52 52 -53 135q1 112 97 164t225 53h47zM428 1044h-22q-182 0 -183 -110q0 -37 23 -60q24 -22 74 -22t79 45t29 107v40z" />
    <glyph glyph-name="guillemotleft" unicode="&#xab;" horiz-adv-x="894" 
d="M485 113h-196l-223 413l223 416h196l-211 -416zM836 113h-195l-225 413l223 416h197l-209 -416z" />
    <glyph glyph-name="logicalnot" unicode="&#xac;" horiz-adv-x="1204" 
d="M932 637h-862v188h1056v-612h-194v424z" />
    <glyph glyph-name="uni00AD" unicode="&#xad;" horiz-adv-x="620" 
d="M537 537h-453v196h453v-196z" />
    <glyph glyph-name="registered" unicode="&#xae;" horiz-adv-x="1603" 
d="M680 948v-203h80q164 0 164 107q0 96 -164 96h-80zM682 332h-172v731h321q115 0 192 -47t77 -148q0 -72 -52 -120t-133 -62q53 -10 82 -35t47 -71l97 -248h-180l-80 205q-20 55 -46 74t-90 20h-63v-299zM803 115q229 0 390 169t161 400t-161 398t-391 167t-391 -166
t-161 -397t162 -401t391 -170zM98 684q0 291 207 497q207 205 498 205t497 -206t207 -497q0 -292 -207 -499t-497 -207q-146 1 -275 56q-194 82 -312 258t-118 393z" />
    <glyph glyph-name="macron" unicode="&#xaf;" 
d="M514 1262h-537v141h537v-141z" />
    <glyph glyph-name="degree" unicode="&#xb0;" horiz-adv-x="819" 
d="M238 1087q0 -71 50 -121t122 -50t122 50t52 120q0 70 -52 123t-122 53q-72 0 -122 -52t-50 -123zM111 1103q0 107 87 195t212 88t212 -88t87 -212t-87 -210t-212 -88q-60 0 -130 30t-119 104q-50 74 -50 181z" />
    <glyph glyph-name="plusminus" unicode="&#xb1;" horiz-adv-x="1204" 
d="M1130 -51h-1056v186h1056v-186zM506 559h-432v186h432v345h194v-345h430v-186h-430v-336h-194v336z" />
    <glyph glyph-name="twosuperior" unicode="&#xb2;" horiz-adv-x="716" 
d="M596 760h-498v131l117 129q101 110 151 186t50 138q0 126 -125 124q-61 0 -162 -45l-8 131q109 43 225 43t182 -63t66 -166q0 -178 -215 -393l-86 -86h303v-129z" />
    <glyph glyph-name="threesuperior" unicode="&#xb3;" horiz-adv-x="716" 
d="M416 1366q0 104 -144 102q-70 0 -151 -36l-6 133q96 33 212 33q115 0 189 -57q74 -56 74 -163q0 -139 -158 -186q68 -14 117 -64t49 -146q0 -98 -81 -168t-241 -69q-108 0 -184 31l8 135q90 -35 165 -35t116 34q41 32 41 91q0 121 -176 121h-43v129h43q170 0 170 115z
" />
    <glyph glyph-name="acute" unicode="&#xb4;" 
d="M262 1192h-149l151 278h187z" />
    <glyph glyph-name="mu" unicode="&#xb5;" horiz-adv-x="995" 
d="M328 -442h-222v1470h238v-678q0 -188 139 -188q82 0 124 68t42 153v647h238v-774q0 -127 6 -256h-215l-6 166q-31 -74 -86 -131t-132 -57t-126 61v-481z" />
    <glyph glyph-name="paragraph" unicode="&#xb6;" horiz-adv-x="1204" 
d="M653 -221h-168v880q-154 1 -258 97t-104 258q0 350 448 350h445v-1585h-166v1454h-197v-1454z" />
    <glyph glyph-name="periodcentered" unicode="&#xb7;" horiz-adv-x="497" 
d="M367 500h-236v270h236v-270z" />
    <glyph glyph-name="cedilla" unicode="&#xb8;" 
d="M313 -244q0 29 -25 46q-26 18 -67 18t-67 -13l-37 50l110 143h95l-84 -111q25 9 80 9t95 -38t40 -109t-65 -116t-173 -45t-178 39l35 90q80 -35 135 -34q106 0 106 71z" />
    <glyph glyph-name="onesuperior" unicode="&#xb9;" horiz-adv-x="716" 
d="M489 760h-172v633l-124 -107l-84 117l241 182h139v-825z" />
    <glyph glyph-name="ordmasculine" unicode="&#xba;" horiz-adv-x="675" 
d="M47 1065q0 133 78 227t217 94t213 -91t74 -229t-76 -234t-215 -97q-78 0 -131 27q-160 78 -160 303zM338 1262q-69 0 -91 -68t-22 -129q3 -205 113 -205q106 0 113 205q0 197 -113 197z" />
    <glyph glyph-name="guillemotright" unicode="&#xbb;" horiz-adv-x="894" 
d="M256 113h-197l211 415l-211 414h197l225 -414zM606 113h-196l211 415l-211 414h196l225 -414z" />
    <glyph glyph-name="onequarter" unicode="&#xbc;" horiz-adv-x="1638" 
d="M537 -49h-148l590 1464h147zM510 549h-172v633l-125 -107l-84 117l242 182h139v-825zM1165 164h-327v153l301 508h190v-534h90v-127h-90v-164h-164v164zM1171 291v366l-210 -366h210z" />
    <glyph glyph-name="onehalf" unicode="&#xbd;" horiz-adv-x="1638" 
d="M512 -49h-147l589 1464h148zM481 549h-172v633l-125 -107l-84 117l242 182h139v-825zM1423 0h-497v131l116 129q100 110 150 186t51 138q0 124 -125 125q-61 0 -162 -45l-8 131q109 43 225 43q117 0 183 -64t65 -166q0 -178 -215 -393l-86 -86h303v-129z" />
    <glyph glyph-name="threequarters" unicode="&#xbe;" horiz-adv-x="1638" 
d="M629 -49h-146l590 1464h146zM1257 164h-327v153l301 508h190v-534h90v-127h-90v-164h-164v164zM1264 291v366l-211 -366h211zM481 1155q-1 105 -145 103q-70 0 -150 -37l-6 133q96 32 212 32t190 -56t73 -163q0 -139 -157 -186q68 -14 116 -63t50 -147q0 -97 -81 -167
t-241 -69q-108 -1 -184 30l8 135q90 -34 165 -34t115 32t41 93q0 121 -176 120h-43v129h43q170 0 170 115z" />
    <glyph glyph-name="questiondown" unicode="&#xbf;" horiz-adv-x="798" 
d="M446 -358q-162 0 -276 87q-113 87 -113 257q0 137 99 260q41 51 82 100q98 117 98 227v39h211v-47q0 -92 -37 -170t-80 -125q-117 -128 -117 -245q1 -85 53 -135t152 -50t209 62l12 -207q-131 -53 -293 -53zM559 760h-233v268h233v-268z" />
    <glyph glyph-name="Agrave" unicode="&#xc0;" horiz-adv-x="1185" 
d="M696 1483h-151l-189 278h189zM586 1153l-178 -637h358zM272 0h-252l433 1366h282l430 -1366h-260l-92 334h-448z" />
    <glyph glyph-name="Aacute" unicode="&#xc1;" horiz-adv-x="1185" 
d="M647 1483h-149l151 278h187zM586 1153l-178 -637h358zM272 0h-252l433 1366h282l430 -1366h-260l-92 334h-448z" />
    <glyph glyph-name="Acircumflex" unicode="&#xc2;" horiz-adv-x="1185" 
d="M487 1483h-165l186 278h170l188 -278h-166l-106 178zM586 1153l-178 -637h358zM272 0h-252l433 1366h282l430 -1366h-260l-92 334h-448z" />
    <glyph glyph-name="Atilde" unicode="&#xc3;" horiz-adv-x="1185" 
d="M426 1499h-121q6 94 49 169t127 75q51 0 126 -43t100 -43t39 31t16 59h123q0 -88 -45 -167t-127 -79q-49 0 -123 43t-101 43q-27 1 -45 -29t-18 -59zM586 1153l-178 -637h358zM272 0h-252l433 1366h282l430 -1366h-260l-92 334h-448z" />
    <glyph glyph-name="Adieresis" unicode="&#xc4;" horiz-adv-x="1185" 
d="M840 1507h-176v226h176v-226zM520 1507h-174v226h174v-226zM586 1153l-178 -637h358zM272 0h-252l433 1366h282l430 -1366h-260l-92 334h-448z" />
    <glyph glyph-name="Aring" unicode="&#xc5;" horiz-adv-x="1185" 
d="M594 1424q-86 0 -145 57t-59 142t58 142q60 57 145 57t143 -56q58 -58 58 -144t-56 -142q-58 -56 -144 -56zM483 1621q0 -46 32 -77t79 -31t77 31t29 78q0 47 -29 79q-30 32 -76 32t-79 -33t-33 -79zM586 1153l-178 -637h358zM272 0h-252l433 1366h282l430 -1366h-260
l-92 334h-448z" />
    <glyph glyph-name="AE" unicode="&#xc6;" horiz-adv-x="1589" 
d="M786 514v682l-309 -682h309zM1479 1366v-197h-447v-366h420v-195h-420v-411h467v-197h-713v332h-385l-147 -332h-266l637 1366h854z" />
    <glyph glyph-name="Ccedilla" unicode="&#xc7;" horiz-adv-x="1056" 
d="M850 -249q0 -71 -65 -116t-173 -45t-178 39l35 90q80 -35 135 -34q106 0 107 71q0 29 -26 46q-27 18 -67 18t-67 -13l-37 50l96 129q-250 35 -381 222t-131 490t175 496t438 192q166 0 272 -51l-12 -215q-82 66 -251 66t-266 -144q-98 -144 -98 -359q0 -216 100 -359
t273 -144q135 0 248 56l12 -213q-109 -45 -272 -46q-2 0 -17 3l-65 -91q25 9 80 9t95 -38t40 -109z" />
    <glyph glyph-name="Egrave" unicode="&#xc8;" horiz-adv-x="972" 
d="M612 1483h-151l-189 278h189zM885 0h-729v1366h708v-197h-461v-366h433v-195h-433v-411h482v-197z" />
    <glyph glyph-name="Eacute" unicode="&#xc9;" horiz-adv-x="972" 
d="M555 1483h-149l151 278h186zM885 0h-729v1366h708v-197h-461v-366h433v-195h-433v-411h482v-197z" />
    <glyph glyph-name="Ecircumflex" unicode="&#xca;" horiz-adv-x="972" 
d="M403 1483h-165l186 278h170l188 -278h-166l-106 178zM885 0h-729v1366h708v-197h-461v-366h433v-195h-433v-411h482v-197z" />
    <glyph glyph-name="Edieresis" unicode="&#xcb;" horiz-adv-x="972" 
d="M756 1507h-176v226h176v-226zM436 1507h-174v226h174v-226zM885 0h-729v1366h708v-197h-461v-366h433v-195h-433v-411h482v-197z" />
    <glyph glyph-name="Igrave" unicode="&#xcc;" horiz-adv-x="561" 
d="M373 1483h-152l-188 278h188zM408 0h-252v1366h252v-1366z" />
    <glyph glyph-name="Iacute" unicode="&#xcd;" horiz-adv-x="561" 
d="M338 1483h-150l152 278h186zM408 0h-252v1366h252v-1366z" />
    <glyph glyph-name="Icircumflex" unicode="&#xce;" horiz-adv-x="561" 
d="M174 1483h-166l187 278h170l188 -278h-166l-106 178zM408 0h-252v1366h252v-1366z" />
    <glyph glyph-name="Idieresis" unicode="&#xcf;" horiz-adv-x="561" 
d="M528 1507h-176v226h176v-226zM209 1507h-174v226h174v-226zM408 0h-252v1366h252v-1366z" />
    <glyph glyph-name="Eth" unicode="&#xd0;" horiz-adv-x="1228" 
d="M508 0h-352v604h-119v164h119v598h327q322 0 486 -174t164 -488t-164 -510q-164 -194 -461 -194zM408 604v-407h94q194 0 282 141t88 358q0 473 -385 473h-79v-401h231v-164h-231z" />
    <glyph glyph-name="Ntilde" unicode="&#xd1;" horiz-adv-x="1271" 
d="M473 1499h-121q6 94 49 169t127 75q51 0 126 -43t100 -43t40 31t15 59h123q0 -88 -45 -167t-127 -79q-51 0 -125 43q-73 43 -99 43q-26 1 -44 -29t-19 -59zM373 0h-217v1366h327l416 -1077v1077h219v-1366h-327l-418 1075v-1075z" />
    <glyph glyph-name="Ograve" unicode="&#xd2;" horiz-adv-x="1255" 
d="M725 1483h-152l-188 278h188zM899 682q0 516 -271 516t-270 -516t269 -516q272 0 272 516zM618 1386q130 0 224 -40t152 -109q165 -193 165 -553q0 -359 -175 -557q-133 -149 -379 -149q-134 0 -234 61q-272 172 -273 643q0 272 118 477q60 103 166 165t236 62z" />
    <glyph glyph-name="Oacute" unicode="&#xd3;" horiz-adv-x="1255" 
d="M682 1483h-150l152 278h186zM899 682q0 516 -271 516t-270 -516t269 -516q272 0 272 516zM618 1386q130 0 224 -40t152 -109q165 -193 165 -553q0 -359 -175 -557q-133 -149 -379 -149q-134 0 -234 61q-272 172 -273 643q0 272 118 477q60 103 166 165t236 62z" />
    <glyph glyph-name="Ocircumflex" unicode="&#xd4;" horiz-adv-x="1255" 
d="M520 1483h-166l187 278h170l188 -278h-166l-106 178zM899 682q0 516 -271 516t-270 -516t269 -516q272 0 272 516zM618 1386q130 0 224 -40t152 -109q165 -193 165 -553q0 -359 -175 -557q-133 -149 -379 -149q-134 0 -234 61q-272 172 -273 643q0 272 118 477
q60 103 166 165t236 62z" />
    <glyph glyph-name="Otilde" unicode="&#xd5;" horiz-adv-x="1255" 
d="M459 1499h-121q6 94 49 169t127 75q51 0 126 -43q76 -43 100 -43t39 31t16 59h123q0 -88 -46 -167t-127 -79q-49 0 -123 43t-100 43q-27 1 -45 -29t-18 -59zM899 682q0 516 -271 516t-270 -516t269 -516q272 0 272 516zM618 1386q130 0 224 -40t152 -109
q165 -193 165 -553q0 -359 -175 -557q-133 -149 -379 -149q-134 0 -234 61q-272 172 -273 643q0 272 118 477q60 103 166 165t236 62z" />
    <glyph glyph-name="Odieresis" unicode="&#xd6;" horiz-adv-x="1255" 
d="M874 1507h-176v226h176v-226zM555 1507h-174v226h174v-226zM899 682q0 516 -271 516t-270 -516t269 -516q272 0 272 516zM618 1386q130 0 224 -40t152 -109q165 -193 165 -553q0 -359 -175 -557q-133 -149 -379 -149q-134 0 -234 61q-272 172 -273 643q0 272 118 477
q60 103 166 165t236 62z" />
    <glyph glyph-name="multiply" unicode="&#xd7;" horiz-adv-x="1204" 
d="M604 387l-373 -373l-133 133l373 373l-373 371l133 135l371 -375l373 373l133 -133l-373 -371l373 -373l-133 -133z" />
    <glyph glyph-name="Oslash" unicode="&#xd8;" horiz-adv-x="1259" 
d="M627 166q272 0 272 516q0 154 -27 248l-458 -608q33 -78 82 -117t131 -39zM629 1198q-272 0 -273 -516q0 -150 27 -240l461 611q-63 145 -215 145zM627 1386q231 0 364 -149l142 186l79 -61l-159 -207q106 -178 106 -473q0 -357 -175 -555q-60 -68 -152 -109t-205 -41
q-231 0 -365 156l-137 -180l-78 61l154 199q-103 180 -103 461t118 485q60 103 166 165t245 62z" />
    <glyph glyph-name="Ugrave" unicode="&#xd9;" horiz-adv-x="1189" 
d="M717 1483h-152l-188 278h188zM393 1366v-905q0 -135 41 -213t160 -78q205 0 205 291v905h252v-870q0 -236 -114 -377t-343 -142q-453 0 -453 519v870h252z" />
    <glyph glyph-name="Uacute" unicode="&#xda;" horiz-adv-x="1189" 
d="M643 1483h-149l151 278h186zM393 1366v-905q0 -135 41 -213t160 -78q205 0 205 291v905h252v-870q0 -236 -114 -377t-343 -142q-453 0 -453 519v870h252z" />
    <glyph glyph-name="Ucircumflex" unicode="&#xdb;" horiz-adv-x="1189" 
d="M487 1483h-165l186 278h170l188 -278h-166l-106 178zM393 1366v-905q0 -135 41 -213t160 -78q205 0 205 291v905h252v-870q0 -236 -114 -377t-343 -142q-453 0 -453 519v870h252z" />
    <glyph glyph-name="Udieresis" unicode="&#xdc;" horiz-adv-x="1189" 
d="M842 1507h-176v226h176v-226zM522 1507h-174v226h174v-226zM393 1366v-905q0 -135 41 -213t160 -78q205 0 205 291v905h252v-870q0 -236 -114 -377t-343 -142q-453 0 -453 519v870h252z" />
    <glyph glyph-name="Yacute" unicode="&#xdd;" horiz-adv-x="995" 
d="M557 1483h-149l151 278h186zM623 0h-250v547l-377 819h287l225 -588l217 588h274l-376 -819v-547z" />
    <glyph glyph-name="Thorn" unicode="&#xde;" horiz-adv-x="1034" 
d="M401 915v-450h103q223 0 223 225t-240 225h-86zM403 0h-247v1366h247v-260h129q209 0 330 -106t121 -307t-120 -311t-318 -110h-142v-272z" />
    <glyph glyph-name="germandbls" unicode="&#xdf;" horiz-adv-x="1107" 
d="M365 0h-238v940q0 246 113 402t356 155q184 0 294 -104t109 -310q0 -80 -12 -155q-248 0 -248 -140q0 -89 112 -174q46 -34 91 -72t78 -100t33 -143q0 -145 -84 -233q-85 -88 -223 -88t-248 32l12 183q84 -43 182 -43q133 0 133 126q0 82 -108 161q-45 34 -91 74
q-46 39 -78 105t-32 168t70 183q70 80 176 88q10 33 10 99t-45 119q-45 52 -129 52q-233 0 -233 -383v-942z" />
    <glyph glyph-name="agrave" unicode="&#xe0;" horiz-adv-x="985" 
d="M592 1192h-152l-188 278h188zM360 -23q-139 -1 -218 89t-79 206q0 213 166 290q141 67 334 69h70v51q0 201 -191 201q-141 0 -276 -92l-12 188q160 70 327 70q379 0 379 -359v-465q0 -137 8 -225h-225l-6 141q-51 -86 -116 -125t-161 -39zM291 309q1 -166 161 -166
q86 0 134 79q47 79 47 186v88h-55q-287 0 -287 -187z" />
    <glyph glyph-name="aacute" unicode="&#xe1;" horiz-adv-x="985" 
d="M524 1192h-149l151 278h187zM360 -23q-139 -1 -218 89t-79 206q0 213 166 290q141 67 334 69h70v51q0 201 -191 201q-141 0 -276 -92l-12 188q160 70 327 70q379 0 379 -359v-465q0 -137 8 -225h-225l-6 141q-51 -86 -116 -125t-161 -39zM291 309q1 -166 161 -166
q86 0 134 79q47 79 47 186v88h-55q-287 0 -287 -187z" />
    <glyph glyph-name="acircumflex" unicode="&#xe2;" horiz-adv-x="985" 
d="M375 1192h-166l186 278h170l189 -278h-166l-107 178zM360 -23q-139 -1 -218 89t-79 206q0 213 166 290q141 67 334 69h70v51q0 201 -191 201q-141 0 -276 -92l-12 188q160 70 327 70q379 0 379 -359v-465q0 -137 8 -225h-225l-6 141q-51 -86 -116 -125t-161 -39zM291 309
q1 -166 161 -166q86 0 134 79q47 79 47 186v88h-55q-287 0 -287 -187z" />
    <glyph glyph-name="atilde" unicode="&#xe3;" horiz-adv-x="985" 
d="M324 1208h-121q6 94 49 169t127 75q51 0 126 -43t99 -43t40 31q15 31 15 59h123q0 -88 -45 -167t-127 -79q-49 0 -123 43q-75 43 -101 43t-44 -30t-18 -58zM360 -23q-139 -1 -218 89t-79 206q0 213 166 290q141 67 334 69h70v51q0 201 -191 201q-141 0 -276 -92l-12 188
q160 70 327 70q379 0 379 -359v-465q0 -137 8 -225h-225l-6 141q-51 -86 -116 -125t-161 -39zM291 309q1 -166 161 -166q86 0 134 79q47 79 47 186v88h-55q-287 0 -287 -187z" />
    <glyph glyph-name="adieresis" unicode="&#xe4;" horiz-adv-x="985" 
d="M414 1217h-174v225h174v-225zM733 1217h-176v225h176v-225zM360 -23q-139 -1 -218 89t-79 206q0 213 166 290q141 67 334 69h70v51q0 201 -191 201q-141 0 -276 -92l-12 188q160 70 327 70q379 0 379 -359v-465q0 -137 8 -225h-225l-6 141q-51 -86 -116 -125t-161 -39z
M291 309q1 -166 161 -166q86 0 134 79q47 79 47 186v88h-55q-287 0 -287 -187z" />
    <glyph glyph-name="aring" unicode="&#xe5;" horiz-adv-x="985" 
d="M486 1442q-46 0 -78 -33t-33 -79q0 -46 32 -77q33 -31 79 -31t76 32q30 30 30 77t-30 79t-76 32zM484 1133q-88 0 -145 57q-58 57 -58 142q0 84 59 142t144 58q86 0 144 -57t58 -143t-57 -143q-57 -56 -145 -56zM360 -23q-139 -1 -218 89t-79 206q0 213 166 290
q141 67 334 69h70v51q0 201 -191 201q-141 0 -276 -92l-12 188q160 70 327 70q379 0 379 -359v-465q0 -137 8 -225h-225l-6 141q-51 -86 -116 -125t-161 -39zM291 309q1 -166 161 -166q86 0 134 79q47 79 47 186v88h-55q-287 0 -287 -187z" />
    <glyph glyph-name="ae" unicode="&#xe6;" horiz-adv-x="1472" 
d="M477 1049q102 0 176 -41t105 -109q100 150 276 150q377 0 377 -498v-74h-571q0 -141 70 -237t205 -96q136 0 239 71l12 -180q-117 -57 -270 -58q-293 0 -389 205q-78 -205 -332 -205q-139 0 -225 82t-86 211t73 208q74 79 172 107t221 27h88v45q0 165 -82 206
q-38 19 -94 20q-147 -1 -278 -97l-12 189q158 74 325 74zM618 475h-38q-289 0 -289 -190q0 -66 38 -106t103 -40q96 0 141 81t45 188v67zM1192 612q0 276 -156 277q-96 0 -144 -76t-52 -201h352z" />
    <glyph glyph-name="ccedilla" unicode="&#xe7;" horiz-adv-x="823" 
d="M74 528q0 224 133 372t354 149q121 0 199 -41l-12 -189q-72 41 -166 41q-134 0 -196 -100t-62 -242q0 -352 274 -352q84 0 160 43l12 -191q-98 -41 -223 -41h-8l-66 -88q25 9 81 9t94 -38q40 -38 40 -109t-64 -116t-174 -45q-108 0 -178 39l35 90q80 -35 135 -34
q106 0 107 71q0 29 -26 46q-25 18 -65 18t-69 -13l-37 50l97 129q-193 31 -284 175t-91 367z" />
    <glyph glyph-name="egrave" unicode="&#xe8;" horiz-adv-x="940" 
d="M582 1192h-152l-188 278h188zM879 457h-572q0 -127 71 -220t206 -93t237 71l13 -180q-117 -57 -279 -58q-241 1 -361 149t-120 378t112 387q113 158 316 158q377 0 377 -519v-73zM659 592q0 297 -155 297q-94 0 -142 -85t-55 -212h352z" />
    <glyph glyph-name="eacute" unicode="&#xe9;" horiz-adv-x="940" 
d="M532 1192h-149l152 278h186zM879 457h-572q0 -127 71 -220t206 -93t237 71l13 -180q-117 -57 -279 -58q-241 1 -361 149t-120 378t112 387q113 158 316 158q377 0 377 -519v-73zM659 592q0 297 -155 297q-94 0 -142 -85t-55 -212h352z" />
    <glyph glyph-name="ecircumflex" unicode="&#xea;" horiz-adv-x="940" 
d="M371 1192h-166l186 278h170l189 -278h-166l-107 178zM879 457h-572q0 -127 71 -220t206 -93t237 71l13 -180q-117 -57 -279 -58q-241 1 -361 149t-120 378t112 387q113 158 316 158q377 0 377 -519v-73zM659 592q0 297 -155 297q-94 0 -142 -85t-55 -212h352z" />
    <glyph glyph-name="edieresis" unicode="&#xeb;" horiz-adv-x="940" 
d="M406 1217h-175v225h175v-225zM725 1217h-176v225h176v-225zM879 457h-572q0 -127 71 -220t206 -93t237 71l13 -180q-117 -57 -279 -58q-241 1 -361 149t-120 378t112 387q113 158 316 158q377 0 377 -519v-73zM659 592q0 297 -155 297q-94 0 -142 -85t-55 -212h352z" />
    <glyph glyph-name="igrave" unicode="&#xec;" 
d="M344 1192h-151l-189 278h189zM365 0h-238v1028h238v-1028z" />
    <glyph glyph-name="iacute" unicode="&#xed;" 
d="M299 1192h-149l151 278h186zM365 0h-238v1028h238v-1028z" />
    <glyph glyph-name="icircumflex" unicode="&#xee;" 
d="M139 1192h-166l187 278h170l188 -278h-166l-106 178zM365 0h-238v1028h238v-1028z" />
    <glyph glyph-name="idieresis" unicode="&#xef;" 
d="M174 1217h-174v225h174v-225zM494 1217h-177v225h177v-225zM365 0h-238v1028h238v-1028z" />
    <glyph glyph-name="eth" unicode="&#xf0;" horiz-adv-x="1021" 
d="M512 156q187 0 193 354q0 326 -193 326q-188 0 -188 -326q-1 -137 34 -231q53 -123 154 -123zM948 561q0 -218 -93 -389q-48 -88 -136 -141t-207 -54q-215 0 -327 153q-111 153 -111 371t101 365t284 148q119 0 215 -105q-72 218 -187 320l-200 -109l-88 88l186 99
q-96 61 -180 94l178 96q102 -35 192 -98l181 98l88 -84l-164 -94q268 -254 268 -758z" />
    <glyph glyph-name="ntilde" unicode="&#xf1;" horiz-adv-x="1038" 
d="M350 1208h-121q5 94 49 169t128 75q52 0 126 -43t99 -43t40 31t15 59h123q0 -88 -45 -167t-127 -79q-51 0 -125 43t-100 43t-44 -30t-18 -58zM616 1049q152 1 224 -99t71 -260v-690h-237v678q0 188 -142 188q-80 0 -124 -68t-43 -151v-647h-238v774l-6 254h217l6 -151
q84 172 272 172z" />
    <glyph glyph-name="ograve" unicode="&#xf2;" horiz-adv-x="1026" 
d="M625 1192h-152l-188 278h188zM512 156q150 0 183 252q7 53 7 110q0 354 -188 354q-57 0 -97 -36q-41 -36 -67 -118q-26 -81 -26 -200q0 -229 90 -323q39 -39 98 -39zM521 1049q214 0 323 -151q108 -151 108 -377t-112 -385t-326 -159q-119 1 -201 46q-240 133 -239 495
q0 217 116 374q117 157 331 157z" />
    <glyph glyph-name="oacute" unicode="&#xf3;" horiz-adv-x="1026" 
d="M553 1192h-150l152 278h186zM512 156q150 0 183 252q7 53 7 110q0 354 -188 354q-57 0 -97 -36q-41 -36 -67 -118q-26 -81 -26 -200q0 -229 90 -323q39 -39 98 -39zM521 1049q214 0 323 -151q108 -151 108 -377t-112 -385t-326 -159q-119 1 -201 46q-240 133 -239 495
q0 217 116 374q117 157 331 157z" />
    <glyph glyph-name="ocircumflex" unicode="&#xf4;" horiz-adv-x="1026" 
d="M408 1192h-166l186 278h170l188 -278h-165l-107 178zM512 156q150 0 183 252q7 53 7 110q0 354 -188 354q-57 0 -97 -36q-41 -36 -67 -118q-26 -81 -26 -200q0 -229 90 -323q39 -39 98 -39zM521 1049q214 0 323 -151q108 -151 108 -377t-112 -385t-326 -159
q-119 1 -201 46q-240 133 -239 495q0 217 116 374q117 157 331 157z" />
    <glyph glyph-name="otilde" unicode="&#xf5;" horiz-adv-x="1026" 
d="M348 1208h-121q6 94 49 169t127 75q51 0 126 -43t100 -43t40 31t15 59h123q0 -88 -45 -167t-127 -79q-49 0 -123 43t-100 43t-46 -30q-18 -30 -18 -58zM512 156q150 0 183 252q7 53 7 110q0 354 -188 354q-57 0 -97 -36q-41 -36 -67 -118q-26 -81 -26 -200
q0 -229 90 -323q39 -39 98 -39zM521 1049q214 0 323 -151q108 -151 108 -377t-112 -385t-326 -159q-119 1 -201 46q-240 133 -239 495q0 217 116 374q117 157 331 157z" />
    <glyph glyph-name="odieresis" unicode="&#xf6;" horiz-adv-x="1026" 
d="M442 1217h-174v225h174v-225zM762 1217h-176v225h176v-225zM512 156q150 0 183 252q7 53 7 110q0 354 -188 354q-57 0 -97 -36q-41 -36 -67 -118q-26 -81 -26 -200q0 -229 90 -323q39 -39 98 -39zM521 1049q214 0 323 -151q108 -151 108 -377t-112 -385t-326 -159
q-119 1 -201 46q-240 133 -239 495q0 217 116 374q117 157 331 157z" />
    <glyph glyph-name="divide" unicode="&#xf7;" horiz-adv-x="1204" 
d="M602 -2q-57 0 -96 40t-39 97t40 96t96 39t95 -39t39 -96t-39 -97t-96 -40zM1130 424h-1056v188h1056v-188zM467 903q0 57 39 97t95 40t96 -41t40 -97t-39 -95t-96 -39t-96 39t-39 96z" />
    <glyph glyph-name="oslash" unicode="&#xf8;" horiz-adv-x="1026" 
d="M514 156q57 0 97 37q91 84 91 325q0 95 -16 150l-317 -412q47 -100 145 -100zM514 872q-57 0 -97 -36q-41 -36 -67 -118q-26 -81 -26 -185q0 -105 18 -171l320 414q-47 96 -148 96zM74 514q0 221 116 378q117 157 324 157q164 0 277 -103l104 137l70 -55l-113 -145
q100 -137 100 -363t-112 -384q-112 -159 -326 -159q-164 0 -276 107l-109 -139l-68 53l117 152q-104 143 -104 364z" />
    <glyph glyph-name="ugrave" unicode="&#xf9;" horiz-adv-x="1030" 
d="M625 1192h-152l-188 278h188zM123 338v690h237v-678q0 -188 140 -188q80 0 123 68t43 153v645h237v-774l6 -254h-217l-6 150q-84 -172 -270 -173q-152 -1 -222 99t-71 262z" />
    <glyph glyph-name="uacute" unicode="&#xfa;" horiz-adv-x="1030" 
d="M551 1192h-150l152 278h186zM123 338v690h237v-678q0 -188 140 -188q80 0 123 68t43 153v645h237v-774l6 -254h-217l-6 150q-84 -172 -270 -173q-152 -1 -222 99t-71 262z" />
    <glyph glyph-name="ucircumflex" unicode="&#xfb;" horiz-adv-x="1030" 
d="M408 1192h-166l186 278h170l188 -278h-165l-107 178zM123 338v690h237v-678q0 -188 140 -188q80 0 123 68t43 153v645h237v-774l6 -254h-217l-6 150q-84 -172 -270 -173q-152 -1 -222 99t-71 262z" />
    <glyph glyph-name="udieresis" unicode="&#xfc;" horiz-adv-x="1030" 
d="M442 1217h-174v225h174v-225zM762 1217h-176v225h176v-225zM123 338v690h237v-678q0 -188 140 -188q80 0 123 68t43 153v645h237v-774l6 -254h-217l-6 150q-84 -172 -270 -173q-152 -1 -222 99t-71 262z" />
    <glyph glyph-name="yacute" unicode="&#xfd;" horiz-adv-x="903" 
d="M518 1192h-149l151 278h187zM190 -281q94 0 132 144l34 135l-344 1030h260l201 -745l178 745h238l-344 -1157q-53 -172 -123 -253t-199 -81q-73 0 -143 27l12 178q35 -23 98 -23z" />
    <glyph glyph-name="thorn" unicode="&#xfe;" horiz-adv-x="1050" 
d="M729 519q0 233 -84 315q-39 36 -103 36t-110 -63q-45 -63 -57 -134t-13 -155q1 -238 87 -328q37 -36 96 -36t98 39t56 102q30 111 30 224zM365 -442h-238v1919h238v-596q88 168 266 168q98 -1 171 -51q72 -50 108 -133q68 -160 69 -349q0 -189 -75 -350
q-38 -84 -110 -136t-169 -53q-178 0 -260 166v-585z" />
    <glyph glyph-name="ydieresis" unicode="&#xff;" horiz-adv-x="903" 
d="M387 1217h-174v225h174v-225zM707 1217h-177v225h177v-225zM190 -281q94 0 132 144l34 135l-344 1030h260l201 -745l178 745h238l-344 -1157q-53 -172 -123 -253t-199 -81q-73 0 -143 27l12 178q35 -23 98 -23z" />
    <glyph glyph-name="Amacron" unicode="&#x100;" horiz-adv-x="1185" 
d="M586 1153l-178 -637h358zM272 0h-252l433 1366h282l430 -1366h-260l-92 334h-448zM858 1552h-536v142h536v-142z" />
    <glyph glyph-name="amacron" unicode="&#x101;" horiz-adv-x="985" 
d="M756 1262h-537v141h537v-141zM360 -23q-139 -1 -218 89t-79 206q0 213 166 290q141 67 334 69h70v51q0 201 -191 201q-141 0 -276 -92l-12 188q160 70 327 70q379 0 379 -359v-465q0 -137 8 -225h-225l-6 141q-51 -86 -116 -125t-161 -39zM291 309q1 -166 161 -166
q86 0 134 79q47 79 47 186v88h-55q-287 0 -287 -187z" />
    <glyph glyph-name="Abreve" unicode="&#x102;" horiz-adv-x="1185" 
d="M334 1755h112q4 -61 44 -99t102 -38t101 38q40 38 44 99h113q0 -100 -65 -185t-193 -85t-194 85q-64 85 -64 185zM586 1153l-178 -637h358zM272 0h-252l433 1366h282l430 -1366h-260l-92 334h-448z" />
    <glyph glyph-name="abreve" unicode="&#x103;" horiz-adv-x="985" 
d="M360 -23q-139 -1 -218 89t-79 206q0 213 166 290q141 67 334 69h70v51q0 201 -191 201q-141 0 -276 -92l-12 188q160 70 327 70q379 0 379 -359v-465q0 -137 8 -225h-225l-6 141q-51 -86 -116 -125t-161 -39zM291 309q1 -166 161 -166q86 0 134 79q47 79 47 186v88h-55
q-287 0 -287 -187zM225 1464h113q4 -61 44 -99t101 -38t102 38q40 38 44 99h112q-1 -100 -65 -185t-193 -85t-193 85t-65 185z" />
    <glyph glyph-name="Aogonek" unicode="&#x104;" horiz-adv-x="1185" 
d="M922 -211q0 -47 26 -73q52 -51 162 -7l25 -90q-63 -29 -155 -29t-145 48q-54 48 -55 120q0 137 185 242h-60l-92 334h-448l-93 -334h-252l433 1366h282l430 -1366h-100q-143 -113 -143 -211zM586 1153l-178 -637h358z" />
    <glyph glyph-name="aogonek" unicode="&#x105;" horiz-adv-x="985" 
d="M722 -410q-87 0 -141 48t-55 120q0 137 185 242h-68l-6 141q-51 -86 -116 -125t-161 -39q-139 -1 -218 89t-79 206q0 213 166 290q141 67 334 69h70v51q0 201 -191 201q-141 0 -276 -92l-12 188q160 70 327 70q379 0 379 -359v-465q0 -137 8 -225h-57
q-143 -113 -143 -211q0 -47 26 -73q50 -49 154 -7l24 -90q-63 -29 -150 -29zM291 309q1 -166 161 -166q86 0 134 79q47 79 47 186v88h-55q-287 0 -287 -187z" />
    <glyph glyph-name="Cacute" unicode="&#x106;" horiz-adv-x="1056" 
d="M98 684q0 317 175 510t438 192q166 0 272 -51l-12 -215q-82 66 -251 66t-266 -144q-98 -144 -98 -359q0 -216 100 -359t273 -144q135 1 248 56l12 -213q-109 -45 -272 -46q-301 0 -460 195t-159 512zM713 1483h-150l152 278h186z" />
    <glyph glyph-name="cacute" unicode="&#x107;" horiz-adv-x="823" 
d="M547 -23q-240 0 -357 153q-116 153 -116 387q0 235 133 383t354 149q121 0 199 -41l-12 -189q-72 41 -166 41q-134 0 -196 -100t-62 -242q0 -352 274 -352q84 0 160 43l12 -191q-98 -41 -223 -41zM532 1192h-149l152 278h186z" />
    <glyph glyph-name="Ccircumflex" unicode="&#x108;" horiz-adv-x="1056" 
d="M559 1483h-166l187 278h170l188 -278h-166l-106 178zM98 684q0 317 175 510t438 192q166 0 272 -51l-12 -215q-82 66 -251 66t-266 -144q-98 -144 -98 -359q0 -216 100 -359t273 -144q135 1 248 56l12 -213q-109 -45 -272 -46q-301 0 -460 195t-159 512z" />
    <glyph glyph-name="ccircumflex" unicode="&#x109;" horiz-adv-x="823" 
d="M385 1192h-166l187 278h169l189 -278h-166l-106 178zM547 -23q-240 0 -357 153q-116 153 -116 387q0 235 133 383t354 149q121 0 199 -41l-12 -189q-72 41 -166 41q-134 0 -196 -100t-62 -242q0 -352 274 -352q84 0 160 43l12 -191q-98 -41 -223 -41z" />
    <glyph glyph-name="Cdotaccent" unicode="&#x10a;" horiz-adv-x="1056" 
d="M780 1511h-227v226h227v-226zM98 684q0 317 175 510t438 192q166 0 272 -51l-12 -215q-82 66 -251 66t-266 -144q-98 -144 -98 -359q0 -216 100 -359t273 -144q135 1 248 56l12 -213q-109 -45 -272 -46q-301 0 -460 195t-159 512z" />
    <glyph glyph-name="cdotaccent" unicode="&#x10b;" horiz-adv-x="823" 
d="M614 1221h-239v225h239v-225zM547 -23q-240 0 -357 153q-116 153 -116 387q0 235 133 383t354 149q121 0 199 -41l-12 -189q-72 41 -166 41q-134 0 -196 -100t-62 -242q0 -352 274 -352q84 0 160 43l12 -191q-98 -41 -223 -41z" />
    <glyph glyph-name="Ccaron" unicode="&#x10c;" horiz-adv-x="1056" 
d="M98 684q0 317 175 510t438 192q166 0 272 -51l-12 -215q-82 66 -251 66t-266 -144q-98 -144 -98 -359q0 -216 100 -359t273 -144q135 1 248 56l12 -213q-109 -45 -272 -46q-301 0 -460 195t-159 512zM754 1483h-170l-189 278h166l109 -176l104 176h166z" />
    <glyph glyph-name="ccaron" unicode="&#x10d;" horiz-adv-x="823" 
d="M547 -23q-240 0 -357 153q-116 153 -116 387q0 235 133 383t354 149q121 0 199 -41l-12 -189q-72 41 -166 41q-134 0 -196 -100t-62 -242q0 -352 274 -352q84 0 160 43l12 -191q-98 -41 -223 -41zM584 1192h-170l-189 278h166l109 -176l104 176h166z" />
    <glyph glyph-name="Dcaron" unicode="&#x10e;" horiz-adv-x="1228" 
d="M508 0h-352v1366h327q322 0 486 -174t164 -488t-164 -510q-164 -194 -461 -194zM408 1169v-972h94q194 0 282 141t88 358q0 473 -385 473h-79zM639 1483h-170l-188 278h165l109 -176l104 176h166z" />
    <glyph glyph-name="dcaron" unicode="&#x10f;" horiz-adv-x="1050" 
d="M504 154q186 0 186 364q0 236 -91 318q-40 34 -95 34t-94 -36q-86 -80 -86 -311q0 -230 84 -328q37 -41 96 -41zM74 518q0 92 16 178t53 169t110 133t173 51q174 0 262 -168v596h238v-1223q0 -162 6 -254h-227l-7 152q-84 -174 -270 -175q-98 1 -171 53t-111 137t-55 172
t-17 179zM1153 1149h-139l41 321h190z" />
    <glyph glyph-name="Dcroat" unicode="&#x110;" horiz-adv-x="1228" 
d="M508 0h-352v604h-119v164h119v598h327q322 0 486 -174t164 -488t-164 -510q-164 -194 -461 -194zM408 604v-407h94q194 0 282 141t88 358q0 473 -385 473h-79v-401h231v-164h-231z" />
    <glyph glyph-name="dcroat" unicode="&#x111;" horiz-adv-x="1050" 
d="M74 518q0 92 16 178t53 169t110 133t173 51q174 0 262 -168v315h-256v139h256v142h238v-142h139v-139h-139v-942q0 -162 6 -254h-227l-7 152q-84 -174 -270 -175q-98 1 -171 53t-111 137t-55 172t-17 179zM504 154q186 0 186 364q0 236 -91 318q-40 34 -95 34t-94 -36
q-86 -80 -86 -311q0 -230 84 -328q37 -41 96 -41z" />
    <glyph glyph-name="Emacron" unicode="&#x112;" horiz-adv-x="972" 
d="M885 0h-729v1366h708v-197h-461v-366h433v-195h-433v-411h482v-197zM776 1552h-536v142h536v-142z" />
    <glyph glyph-name="emacron" unicode="&#x113;" horiz-adv-x="940" 
d="M748 1262h-537v141h537v-141zM879 457h-572q0 -127 71 -220t206 -93t237 71l13 -180q-117 -57 -279 -58q-241 1 -361 149t-120 378t112 387q113 158 316 158q377 0 377 -519v-73zM659 592q0 297 -155 297q-94 0 -142 -85t-55 -212h352z" />
    <glyph glyph-name="Ebreve" unicode="&#x114;" horiz-adv-x="972" 
d="M252 1755h113q4 -61 44 -99t101 -38t101 38t44 99h113q0 -100 -65 -185t-193 -85t-194 85q-64 85 -64 185zM885 0h-729v1366h708v-197h-461v-366h433v-195h-433v-411h482v-197z" />
    <glyph glyph-name="ebreve" unicode="&#x115;" horiz-adv-x="940" 
d="M221 1464h113q4 -61 44 -99t101 -38t102 38q40 38 44 99h112q-1 -100 -65 -185t-193 -85t-193 85t-65 185zM879 457h-572q0 -127 71 -220t206 -93t237 71l13 -180q-117 -57 -279 -58q-241 1 -361 149t-120 378t112 387q113 158 316 158q377 0 377 -519v-73zM659 592
q0 297 -155 297q-94 0 -142 -85t-55 -212h352z" />
    <glyph glyph-name="Edotaccent" unicode="&#x116;" horiz-adv-x="972" 
d="M885 0h-729v1366h708v-197h-461v-366h433v-195h-433v-411h482v-197zM623 1511h-228v226h228v-226z" />
    <glyph glyph-name="edotaccent" unicode="&#x117;" horiz-adv-x="940" 
d="M879 457h-572q0 -127 71 -220t206 -93t237 71l13 -180q-117 -57 -279 -58q-241 1 -361 149t-120 378t112 387q113 158 316 158q377 0 377 -519v-73zM659 592q0 297 -155 297q-94 0 -142 -85t-55 -212h352zM598 1221h-240v225h240v-225z" />
    <glyph glyph-name="Eogonek" unicode="&#x118;" horiz-adv-x="972" 
d="M156 0v1366h708v-197h-461v-366h433v-195h-433v-411h482v-197h-86q-143 -113 -144 -211q0 -47 27 -73q53 -51 162 -7l24 -90q-63 -29 -154 -29q-92 0 -146 48t-54 120q0 138 184 242h-542z" />
    <glyph glyph-name="eogonek" unicode="&#x119;" horiz-adv-x="940" 
d="M579 -410q-91 0 -145 48t-55 120q0 119 141 222q-221 12 -334 158q-112 146 -112 370t112 383q113 158 316 158q377 0 377 -519v-73h-572q0 -127 71 -220t206 -93t237 71l13 -180q-84 -43 -203 -53q-111 -92 -111 -193q0 -47 27 -73q53 -51 162 -7l24 -90
q-63 -29 -154 -29zM659 592q0 297 -155 297q-94 0 -142 -85t-55 -212h352z" />
    <glyph glyph-name="Ecaron" unicode="&#x11a;" horiz-adv-x="972" 
d="M885 0h-729v1366h708v-197h-461v-366h433v-195h-433v-411h482v-197zM594 1483h-170l-188 278h165l109 -176l104 176h166z" />
    <glyph glyph-name="ecaron" unicode="&#x11b;" horiz-adv-x="940" 
d="M879 457h-572q0 -127 71 -220t206 -93t237 71l13 -180q-117 -57 -279 -58q-241 1 -361 149t-120 378t112 387q113 158 316 158q377 0 377 -519v-73zM659 592q0 297 -155 297q-94 0 -142 -85t-55 -212h352zM567 1192h-170l-188 278h166l108 -176l105 176h166z" />
    <glyph glyph-name="Gcircumflex" unicode="&#x11c;" horiz-adv-x="1206" 
d="M588 1483h-166l186 278h170l189 -278h-166l-107 178zM1094 762v-711q-154 -74 -342 -74q-353 0 -503 199q-151 199 -151 504t173 506t472 200q162 0 318 -61l-12 -215q-143 82 -293 82q-195 0 -297 -148q-103 -148 -103 -384q0 -235 124 -381q92 -107 253 -107
q76 0 129 21v385h-188v184h420z" />
    <glyph glyph-name="gcircumflex" unicode="&#x11d;" horiz-adv-x="1050" 
d="M428 1192h-166l187 278h169l189 -278h-166l-106 178zM502 176q188 0 188 344q0 236 -91 318q-40 34 -95 34t-94 -36q-86 -80 -86 -309q0 -228 82 -314q37 -37 96 -37zM436 -285q189 0 232 171q20 80 20 210v68q-86 -164 -260 -164q-98 0 -170 47t-111 126
q-73 148 -73 344t72 350q38 81 110 131t168 51q184 0 270 -168v147h232v-954q0 -537 -463 -537q-147 1 -340 60l12 200q154 -82 301 -82z" />
    <glyph glyph-name="Gbreve" unicode="&#x11e;" horiz-adv-x="1206" 
d="M1094 762v-711q-154 -74 -342 -74q-353 0 -503 199q-151 199 -151 504t173 506t472 200q162 0 318 -61l-12 -215q-143 82 -293 82q-195 0 -297 -148q-103 -148 -103 -384q0 -235 124 -381q92 -107 253 -107q76 0 129 21v385h-188v184h420zM434 1755h113q4 -61 44 -99
t101 -38t102 38q40 38 44 99h112q0 -100 -64 -185t-194 -85t-194 85t-64 185z" />
    <glyph glyph-name="gbreve" unicode="&#x11f;" horiz-adv-x="1050" 
d="M502 176q188 0 188 344q0 236 -91 318q-40 34 -95 34t-94 -36q-86 -80 -86 -309q0 -228 82 -314q37 -37 96 -37zM436 -285q189 0 232 171q20 80 20 210v68q-86 -164 -260 -164q-98 0 -170 47t-111 126q-73 148 -73 344t72 350q38 81 110 131t168 51q184 0 270 -168v147
h232v-954q0 -537 -463 -537q-147 1 -340 60l12 200q154 -82 301 -82zM272 1464h113q4 -61 44 -99t101 -38t102 38q40 38 44 99h112q0 -100 -64 -185t-194 -85t-194 85t-64 185z" />
    <glyph glyph-name="Gdotaccent" unicode="&#x120;" horiz-adv-x="1206" 
d="M805 1511h-227v226h227v-226zM1094 762v-711q-154 -74 -342 -74q-353 0 -503 199q-151 199 -151 504t173 506t472 200q162 0 318 -61l-12 -215q-143 82 -293 82q-195 0 -297 -148q-103 -148 -103 -384q0 -235 124 -381q92 -107 253 -107q76 0 129 21v385h-188v184h420z
" />
    <glyph glyph-name="gdotaccent" unicode="&#x121;" horiz-adv-x="1050" 
d="M651 1221h-239v225h239v-225zM502 176q188 0 188 344q0 236 -91 318q-40 34 -95 34t-94 -36q-86 -80 -86 -309q0 -228 82 -314q37 -37 96 -37zM436 -285q189 0 232 171q20 80 20 210v68q-86 -164 -260 -164q-98 0 -170 47t-111 126q-73 148 -73 344t72 350q38 81 110 131
t168 51q184 0 270 -168v147h232v-954q0 -537 -463 -537q-147 1 -340 60l12 200q154 -82 301 -82z" />
    <glyph glyph-name="Gcommaaccent" unicode="&#x122;" horiz-adv-x="1206" 
d="M1094 762v-711q-154 -74 -342 -74q-353 0 -503 199q-151 199 -151 504t173 506t472 200q162 0 318 -61l-12 -215q-143 82 -293 82q-195 0 -297 -148q-103 -148 -103 -384q0 -235 124 -381q92 -107 253 -107q76 0 129 21v385h-188v184h420zM692 -463h-141l82 324h209z" />
    <glyph glyph-name="gcommaaccent" unicode="&#x123;" horiz-adv-x="1050" 
d="M502 176q188 0 188 344q0 236 -91 318q-40 34 -95 34t-94 -36q-86 -80 -86 -309q0 -228 82 -314q37 -37 96 -37zM436 -285q189 0 232 171q20 80 20 210v68q-86 -164 -260 -164q-98 0 -170 47t-111 126q-73 148 -73 344t72 350q38 81 110 131t168 51q184 0 270 -168v147
h232v-954q0 -537 -463 -537q-147 1 -340 60l12 200q154 -82 301 -82zM629 1192h-207l149 278h136z" />
    <glyph glyph-name="Hcircumflex" unicode="&#x124;" horiz-adv-x="1202" 
d="M500 1483h-166l186 278h170l189 -278h-166l-107 178zM408 0h-252v1366h252v-559h387v559h252v-1366h-252v604h-387v-604z" />
    <glyph glyph-name="hcircumflex" unicode="&#x125;" horiz-adv-x="1034" 
d="M391 1575h-166l187 278h170l188 -278h-166l-106 178zM670 684q0 182 -147 182q-79 0 -119 -76t-39 -165v-625h-238v1477h238v-600q31 75 101 123t155 49q151 -1 219 -95t67 -249v-705h-237v684z" />
    <glyph glyph-name="Hbar" unicode="&#x126;" horiz-adv-x="1202" 
d="M408 0h-252v1366h252v-256h387v256h252v-1366h-252v545h-387v-545zM408 954v-217h387v217h-387z" />
    <glyph glyph-name="hbar" unicode="&#x127;" horiz-adv-x="1034" 
d="M670 684q0 182 -147 182q-79 0 -119 -76t-39 -165v-625h-238v1196h-139v139h139v142h238v-142h256v-139h-256v-319q31 75 101 123t155 49q151 -1 219 -95t67 -249v-705h-237v684z" />
    <glyph glyph-name="Itilde" unicode="&#x128;" horiz-adv-x="561" 
d="M113 1499h-121q6 94 49 169t127 75q51 0 126 -43q76 -43 100 -43t39 31t16 59h122q0 -88 -45 -167t-127 -79q-51 0 -124 43t-99 43q-26 1 -45 -29q-18 -30 -18 -59zM408 0h-252v1366h252v-1366z" />
    <glyph glyph-name="itilde" unicode="&#x129;" 
d="M80 1208h-121q6 94 49 169t127 75q51 0 126 -43t99 -43t40 31q15 31 16 59h123q0 -88 -45 -167t-127 -79q-51 0 -125 43t-100 43t-44 -30t-18 -58zM365 0h-238v1028h238v-1028z" />
    <glyph glyph-name="Imacron" unicode="&#x12a;" horiz-adv-x="561" 
d="M408 0h-252v1366h252v-1366zM549 1552h-537v142h537v-142z" />
    <glyph glyph-name="imacron" unicode="&#x12b;" 
d="M514 1262h-537v141h537v-141zM365 0h-238v1028h238v-1028z" />
    <glyph glyph-name="Iogonek" unicode="&#x12e;" horiz-adv-x="561" 
d="M302 -410q-88 0 -142 48q-53 48 -54 120q0 137 183 242h-133v1366h252v-1366h-19q-141 -104 -141 -211q0 -45 26 -72q49 -50 154 -8l25 -90q-63 -29 -151 -29z" />
    <glyph glyph-name="iogonek" unicode="&#x12f;" 
d="M266 -410q-88 0 -141 48t-53 120q0 137 182 242h-127v1028h238v-1028h-11q-141 -104 -141 -211q0 -45 27 -72q49 -49 153 -8l25 -90q-64 -29 -152 -29zM367 1221h-240v225h240v-225z" />
    <glyph glyph-name="Idotaccent" unicode="&#x130;" horiz-adv-x="561" 
d="M408 0h-252v1366h252v-1366zM395 1511h-227v226h227v-226z" />
    <glyph glyph-name="dotlessi" unicode="&#x131;" 
d="M365 0h-238v1028h238v-1028z" />
    <glyph glyph-name="Jcircumflex" unicode="&#x134;" horiz-adv-x="657" 
d="M279 1483h-166l186 278h170l188 -278h-165l-107 178zM138 188q46 0 80 36t41 79t7 109v954h252v-950q0 -205 -76 -322t-272 -117q-60 0 -162 33l12 205q72 -27 118 -27z" />
    <glyph glyph-name="jcircumflex" unicode="&#x135;" horiz-adv-x="495" 
d="M139 1192h-166l187 278h170l188 -278h-166l-106 178zM133 -137v1165h238v-1157q0 -334 -260 -334q-93 0 -146 23l12 172q37 -12 50 -13q106 0 106 144z" />
    <glyph glyph-name="Kcommaaccent" unicode="&#x136;" horiz-adv-x="1122" 
d="M408 0h-252v1366h252v-592l378 592h289l-452 -641l491 -725h-303l-403 647v-647zM561 -463h-141l82 324h209z" />
    <glyph glyph-name="kcommaaccent" unicode="&#x137;" horiz-adv-x="944" 
d="M365 0h-238v1477h238v-865l278 416h262l-332 -459l361 -569h-268l-301 518v-518zM467 -463h-141l82 324h208z" />
    <glyph glyph-name="Lacute" unicode="&#x139;" horiz-adv-x="874" 
d="M838 0h-682v1366h252v-1163h430v-203zM369 1483h-150l152 278h186z" />
    <glyph glyph-name="lacute" unicode="&#x13a;" 
d="M365 0h-238v1477h238v-1477zM303 1575h-149l151 278h187z" />
    <glyph glyph-name="Lcommaaccent" unicode="&#x13b;" horiz-adv-x="874" 
d="M838 0h-682v1366h252v-1163h430v-203zM455 -463h-142l82 324h209z" />
    <glyph glyph-name="lcommaaccent" unicode="&#x13c;" 
d="M365 0h-238v1477h238v-1477zM201 -463h-142l82 324h209z" />
    <glyph glyph-name="Lcaron" unicode="&#x13d;" horiz-adv-x="874" 
d="M838 0h-682v1366h252v-1163h430v-203zM688 1149h-139l41 321h190z" />
    <glyph glyph-name="lcaron" unicode="&#x13e;" 
d="M365 0h-238v1477h238v-1477zM592 1149h-139l41 321h190z" />
    <glyph glyph-name="Ldot" unicode="&#x13f;" horiz-adv-x="874" 
d="M834 598h-240v225h240v-225zM838 0h-682v1366h252v-1163h430v-203z" />
    <glyph glyph-name="ldot" unicode="&#x140;" horiz-adv-x="735" 
d="M731 598h-239v225h239v-225zM365 0h-238v1477h238v-1477z" />
    <glyph glyph-name="Lslash" unicode="&#x141;" horiz-adv-x="874" 
d="M838 0h-682v563l-117 -108v184l117 111v616h252v-436l215 203v-189l-215 -201v-540h430v-203z" />
    <glyph glyph-name="lslash" unicode="&#x142;" horiz-adv-x="493" 
d="M365 0h-238v633l-111 -105v185l111 104v660h238v-484l110 105v-185l-110 -104v-809z" />
    <glyph glyph-name="Nacute" unicode="&#x143;" horiz-adv-x="1271" 
d="M373 0h-217v1366h327l416 -1077v1077h219v-1366h-327l-418 1075v-1075zM692 1483h-149l151 278h187z" />
    <glyph glyph-name="nacute" unicode="&#x144;" horiz-adv-x="1038" 
d="M616 1049q152 1 224 -99t71 -260v-690h-237v678q0 188 -142 188q-80 0 -124 -68t-43 -151v-647h-238v774l-6 254h217l6 -151q84 172 272 172zM553 1192h-150l152 278h186z" />
    <glyph glyph-name="Ncommaaccent" unicode="&#x145;" horiz-adv-x="1271" 
d="M373 0h-217v1366h327l416 -1077v1077h219v-1366h-327l-418 1075v-1075zM614 -463h-141l82 324h209z" />
    <glyph glyph-name="ncommaaccent" unicode="&#x146;" horiz-adv-x="1038" 
d="M616 1049q152 1 224 -99t71 -260v-690h-237v678q0 188 -142 188q-80 0 -124 -68t-43 -151v-647h-238v774l-6 254h217l6 -151q84 172 272 172zM489 -463h-141l82 324h209z" />
    <glyph glyph-name="Ncaron" unicode="&#x147;" horiz-adv-x="1271" 
d="M373 0h-217v1366h327l416 -1077v1077h219v-1366h-327l-418 1075v-1075zM735 1483h-170l-188 278h166l108 -176l105 176h166z" />
    <glyph glyph-name="ncaron" unicode="&#x148;" horiz-adv-x="1038" 
d="M616 1049q152 1 224 -99t71 -260v-690h-237v678q0 188 -142 188q-80 0 -124 -68t-43 -151v-647h-238v774l-6 254h217l6 -151q84 172 272 172zM604 1192h-170l-188 278h166l108 -176l105 176h166z" />
    <glyph glyph-name="Omacron" unicode="&#x14c;" horiz-adv-x="1255" 
d="M899 682q0 516 -271 516t-270 -516t269 -516q272 0 272 516zM618 1386q130 0 224 -40t152 -109q165 -193 165 -553q0 -359 -175 -557q-133 -149 -379 -149q-134 0 -234 61q-272 172 -273 643q0 272 118 477q60 103 166 165t236 62zM895 1552h-537v142h537v-142z" />
    <glyph glyph-name="omacron" unicode="&#x14d;" horiz-adv-x="1026" 
d="M782 1262h-536v141h536v-141zM512 156q150 0 183 252q7 53 7 110q0 354 -188 354q-57 0 -97 -36q-41 -36 -67 -118q-26 -81 -26 -200q0 -229 90 -323q39 -39 98 -39zM521 1049q214 0 323 -151q108 -151 108 -377t-112 -385t-326 -159q-119 1 -201 46q-240 133 -239 495
q0 217 116 374q117 157 331 157z" />
    <glyph glyph-name="Obreve" unicode="&#x14e;" horiz-adv-x="1255" 
d="M369 1755h112q4 -61 44 -99q39 -38 101 -38t102 38t44 99h113q0 -100 -65 -185q-66 -85 -194 -85t-193 85q-64 85 -64 185zM899 682q0 516 -271 516t-270 -516t269 -516q272 0 272 516zM618 1386q130 0 224 -40t152 -109q165 -193 165 -553q0 -359 -175 -557
q-133 -149 -379 -149q-134 0 -234 61q-272 172 -273 643q0 272 118 477q60 103 166 165t236 62z" />
    <glyph glyph-name="obreve" unicode="&#x14f;" horiz-adv-x="1026" 
d="M258 1464h113q4 -61 44 -99t101 -38t101 38t45 99h112q0 -100 -64 -185t-194 -85t-194 85t-64 185zM512 156q150 0 183 252q7 53 7 110q0 354 -188 354q-57 0 -97 -36q-41 -36 -67 -118q-26 -81 -26 -200q0 -229 90 -323q39 -39 98 -39zM521 1049q214 0 323 -151
q108 -151 108 -377t-112 -385t-326 -159q-119 1 -201 46q-240 133 -239 495q0 217 116 374q117 157 331 157z" />
    <glyph glyph-name="Ohungarumlaut" unicode="&#x150;" horiz-adv-x="1255" 
d="M899 682q0 516 -271 516t-270 -516t269 -516q272 0 272 516zM618 1386q130 0 224 -40t152 -109q165 -193 165 -553q0 -359 -175 -557q-133 -149 -379 -149q-134 0 -234 61q-272 172 -273 643q0 272 118 477q60 103 166 165t236 62zM848 1483h-150l150 278h188zM532 1483
h-151l149 278h191z" />
    <glyph glyph-name="ohungarumlaut" unicode="&#x151;" horiz-adv-x="1026" 
d="M512 156q150 0 183 252q7 53 7 110q0 354 -188 354q-57 0 -97 -36q-41 -36 -67 -118q-26 -81 -26 -200q0 -229 90 -323q39 -39 98 -39zM521 1049q214 0 323 -151q108 -151 108 -377t-112 -385t-326 -159q-119 1 -201 46q-240 133 -239 495q0 217 116 374q117 157 331 157
zM414 1192h-152l150 278h190zM729 1192h-149l149 278h189z" />
    <glyph glyph-name="OE" unicode="&#x152;" horiz-adv-x="1603" 
d="M639 1198q-281 0 -281 -516t281 -516q103 0 162 29v976q-76 27 -162 27zM1493 1366v-197h-446v-366h419v-195h-419v-411h466v-197h-620l-260 -23q-149 -1 -257 59t-166 164q-112 200 -112 476q0 277 117 483q59 103 167 165t251 62l260 -20h600z" />
    <glyph glyph-name="oe" unicode="&#x153;" horiz-adv-x="1562" 
d="M702 518q0 358 -188 359q-57 0 -97 -37q-41 -37 -67 -119t-26 -203q0 -236 90 -330q39 -38 98 -38t100 38q62 57 83 219q7 54 7 111zM930 592h342q0 103 -24 171t-57 97q-34 29 -83 29q-88 0 -133 -94t-45 -203zM1493 457h-563q0 -131 62 -223t194 -91q132 0 258 78
l12 -186q-133 -57 -295 -58q-238 0 -346 168q-106 -168 -313 -168t-318 156q-110 156 -110 379t116 380q117 157 322 157t303 -162q43 74 119 118t178 44q286 0 362 -331q19 -87 19 -188v-73z" />
    <glyph glyph-name="Racute" unicode="&#x154;" horiz-adv-x="1103" 
d="M401 1176v-404h121q104 0 158 54q53 54 53 153q0 197 -215 197h-117zM403 0h-247v1366h434q172 0 286 -93t113 -259q1 -133 -69 -220t-201 -112q67 -16 101 -56t65 -126l170 -500h-267l-131 426q-27 82 -59 118q-33 36 -92 36h-103v-580zM571 1483h-149l151 278h187z" />
    <glyph glyph-name="racute" unicode="&#x155;" horiz-adv-x="675" 
d="M365 522v-522h-238v774l-6 254h217l4 -170q86 190 264 191q4 0 47 -7l-12 -219q-37 10 -68 11q-77 0 -125 -52q-84 -90 -83 -260zM436 1192h-149l151 278h187z" />
    <glyph glyph-name="Rcommaaccent" unicode="&#x156;" horiz-adv-x="1103" 
d="M401 1176v-404h121q104 0 158 54q53 54 53 153q0 197 -215 197h-117zM403 0h-247v1366h434q172 0 286 -93t113 -259q1 -133 -69 -220t-201 -112q67 -16 101 -56t65 -126l170 -500h-267l-131 426q-27 82 -59 118q-33 36 -92 36h-103v-580zM547 -463h-141l81 324h209z" />
    <glyph glyph-name="rcommaaccent" unicode="&#x157;" horiz-adv-x="675" 
d="M365 522v-522h-238v774l-6 254h217l4 -170q86 190 264 191q4 0 47 -7l-12 -219q-37 10 -68 11q-77 0 -125 -52q-84 -90 -83 -260zM201 -463h-142l82 324h209z" />
    <glyph glyph-name="Rcaron" unicode="&#x158;" horiz-adv-x="1103" 
d="M401 1176v-404h121q104 0 158 54q53 54 53 153q0 197 -215 197h-117zM403 0h-247v1366h434q172 0 286 -93t113 -259q1 -133 -69 -220t-201 -112q67 -16 101 -56t65 -126l170 -500h-267l-131 426q-27 82 -59 118q-33 36 -92 36h-103v-580zM614 1483h-170l-188 278h166
l108 -176l105 176h166z" />
    <glyph glyph-name="rcaron" unicode="&#x159;" horiz-adv-x="675" 
d="M365 522v-522h-238v774l-6 254h217l4 -170q86 190 264 191q4 0 47 -7l-12 -219q-37 10 -68 11q-77 0 -125 -52q-84 -90 -83 -260zM485 1192h-170l-188 278h166l108 -176l105 176h166z" />
    <glyph glyph-name="Sacute" unicode="&#x15a;" horiz-adv-x="954" 
d="M374 168q130 0 182 55t52 138t-53 135t-149 106l-70 37q-127 69 -184 149t-58 201q0 189 132 293t293 104t296 -45l-12 -215q-129 70 -229 70t-161 -44t-61 -121t35 -113t129 -93l62 -34q147 -82 219 -171t71 -233q0 -190 -125 -300q-125 -109 -317 -109t-326 59l13 219
q131 -88 261 -88zM532 1483h-149l152 278h186z" />
    <glyph glyph-name="sacute" unicode="&#x15b;" horiz-adv-x="806" 
d="M78 752q0 150 112 224t258 73q146 0 244 -39l-12 -191q-124 53 -200 53q-164 0 -163 -112q0 -86 151 -156q62 -28 124 -62t107 -96q44 -62 44 -149q0 -158 -104 -239q-104 -80 -275 -80t-294 53l18 198q137 -73 277 -73t141 118q0 80 -152 154q-64 31 -126 68
q-62 36 -106 102t-44 154zM442 1192h-149l151 278h187z" />
    <glyph glyph-name="Scircumflex" unicode="&#x15c;" horiz-adv-x="954" 
d="M385 1483h-166l187 278h169l189 -278h-166l-106 178zM374 168q130 0 182 55t52 138t-53 135t-149 106l-70 37q-127 69 -184 149t-58 201q0 189 132 293t293 104t296 -45l-12 -215q-129 70 -229 70t-161 -44t-61 -121t35 -113t129 -93l62 -34q147 -82 219 -171t71 -233
q0 -190 -125 -300q-125 -109 -317 -109t-326 59l13 219q131 -88 261 -88z" />
    <glyph glyph-name="scircumflex" unicode="&#x15d;" horiz-adv-x="806" 
d="M297 1192h-166l186 278h170l189 -278h-166l-107 178zM78 752q0 150 112 224t258 73q146 0 244 -39l-12 -191q-124 53 -200 53q-164 0 -163 -112q0 -86 151 -156q62 -28 124 -62t107 -96q44 -62 44 -149q0 -158 -104 -239q-104 -80 -275 -80t-294 53l18 198
q137 -73 277 -73t141 118q0 80 -152 154q-64 31 -126 68q-62 36 -106 102t-44 154z" />
    <glyph glyph-name="Scedilla" unicode="&#x15e;" horiz-adv-x="954" 
d="M520 -244q0 29 -25 46q-26 18 -66 18t-69 -13l-36 50l90 120h-2q-176 0 -312 60l13 219q131 -88 261 -88t182 55t52 138t-53 135t-149 106l-70 37q-127 69 -184 149t-58 201q0 189 132 293t293 104t296 -45l-12 -215q-129 70 -229 70t-161 -44t-61 -121t35 -113t129 -93
l62 -34q147 -82 219 -171q71 -89 71 -243t-95 -259t-259 -132l-70 -97q24 9 80 9t96 -38t40 -109t-66 -116q-64 -45 -172 -45t-178 39l35 90q80 -35 135 -34q106 0 106 71z" />
    <glyph glyph-name="scedilla" unicode="&#x15f;" horiz-adv-x="806" 
d="M78 752q0 150 112 224t258 73q146 0 244 -39l-12 -191q-124 53 -200 53q-164 0 -163 -112q0 -86 151 -156q62 -28 124 -62t107 -96q44 -62 44 -149q0 -141 -83 -219t-218 -96l-65 -93q25 9 80 9t95 -38t40 -109t-65 -116t-173 -45t-178 39l35 90q80 -35 135 -34
q106 0 107 71q0 29 -26 46q-27 18 -67 18t-67 -13l-37 50l90 120q-160 4 -276 54l18 198q137 -73 277 -73t141 118q0 80 -152 154q-64 31 -126 68q-62 36 -106 102t-44 154z" />
    <glyph glyph-name="Scaron" unicode="&#x160;" horiz-adv-x="954" 
d="M575 1483h-169l-189 278h166l109 -176l104 176h166zM374 168q130 0 182 55t52 138t-53 135t-149 106l-70 37q-127 69 -184 149t-58 201q0 189 132 293t293 104t296 -45l-12 -215q-129 70 -229 70t-161 -44t-61 -121t35 -113t129 -93l62 -34q147 -82 219 -171t71 -233
q0 -190 -125 -300q-125 -109 -317 -109t-326 59l13 219q131 -88 261 -88z" />
    <glyph glyph-name="scaron" unicode="&#x161;" horiz-adv-x="806" 
d="M489 1192h-170l-188 278h166l109 -176l104 176h166zM78 752q0 150 112 224t258 73q146 0 244 -39l-12 -191q-124 53 -200 53q-164 0 -163 -112q0 -86 151 -156q62 -28 124 -62t107 -96q44 -62 44 -149q0 -158 -104 -239q-104 -80 -275 -80t-294 53l18 198
q137 -73 277 -73t141 118q0 80 -152 154q-64 31 -126 68q-62 36 -106 102t-44 154z" />
    <glyph glyph-name="Tcommaaccent" unicode="&#x162;" horiz-adv-x="894" 
d="M573 0h-249v1163h-297v203h843v-203h-297v-1163zM403 -463h-141l82 324h209z" />
    <glyph glyph-name="tcommaaccent" unicode="&#x163;" horiz-adv-x="667" 
d="M440 -23q-254 0 -254 275v598h-147v178h151v217l232 76v-293h196v-178h-196v-555q0 -71 19 -103t73 -32t102 26l13 -176q-84 -33 -189 -33zM330 -463h-142l82 324h209z" />
    <glyph glyph-name="Tcaron" unicode="&#x164;" horiz-adv-x="894" 
d="M573 0h-249v1163h-297v203h843v-203h-297v-1163zM530 1483h-170l-188 278h166l108 -176l105 176h166z" />
    <glyph glyph-name="tcaron" unicode="&#x165;" horiz-adv-x="667" 
d="M440 -23q-254 0 -254 275v598h-147v178h151v217l232 76v-293h196v-178h-196v-555q0 -71 19 -103t73 -32t102 26l13 -176q-84 -33 -189 -33zM645 1149h-139l41 321h190z" />
    <glyph glyph-name="Tbar" unicode="&#x166;" horiz-adv-x="894" 
d="M573 0h-249v729h-199v162h199v272h-297v203h843v-203h-297v-272h209v-162h-209v-729z" />
    <glyph glyph-name="tbar" unicode="&#x167;" horiz-adv-x="667" 
d="M186 541h-123v143h123v166h-147v178h151v217l232 76v-293h196v-178h-196v-166h162v-143h-162v-246q0 -71 19 -103t73 -32t102 26l13 -176q-84 -33 -189 -33q-254 0 -254 275v289z" />
    <glyph glyph-name="Utilde" unicode="&#x168;" horiz-adv-x="1189" 
d="M436 1499h-121q5 94 49 169t128 75q52 0 126 -43t99 -43t40 31t15 59h123q0 -88 -45 -167t-127 -79q-51 0 -125 43t-100 43q-26 1 -44 -29t-18 -59zM393 1366v-905q0 -135 41 -213t160 -78q205 0 205 291v905h252v-870q0 -236 -114 -377t-343 -142q-453 0 -453 519v870
h252z" />
    <glyph glyph-name="utilde" unicode="&#x169;" horiz-adv-x="1030" 
d="M348 1208h-121q6 94 49 169t127 75q51 0 126 -43t100 -43t40 31t15 59h123q0 -88 -45 -167t-127 -79q-49 0 -123 43t-100 43t-46 -30q-18 -30 -18 -58zM123 338v690h237v-678q0 -188 140 -188q80 0 123 68t43 153v645h237v-774l6 -254h-217l-6 150q-84 -172 -270 -173
q-152 -1 -222 99t-71 262z" />
    <glyph glyph-name="Umacron" unicode="&#x16a;" horiz-adv-x="1189" 
d="M393 1366v-905q0 -135 41 -213t160 -78q205 0 205 291v905h252v-870q0 -236 -114 -377t-343 -142q-453 0 -453 519v870h252zM862 1552h-536v142h536v-142z" />
    <glyph glyph-name="umacron" unicode="&#x16b;" horiz-adv-x="1030" 
d="M782 1262h-536v141h536v-141zM123 338v690h237v-678q0 -188 140 -188q80 0 123 68t43 153v645h237v-774l6 -254h-217l-6 150q-84 -172 -270 -173q-152 -1 -222 99t-71 262z" />
    <glyph glyph-name="Ubreve" unicode="&#x16c;" horiz-adv-x="1189" 
d="M336 1755h113q4 -61 44 -99t101 -38t101 38t44 99h113q0 -100 -65 -185t-193 -85t-194 85q-64 85 -64 185zM393 1366v-905q0 -135 41 -213t160 -78q205 0 205 291v905h252v-870q0 -236 -114 -377t-343 -142q-453 0 -453 519v870h252z" />
    <glyph glyph-name="ubreve" unicode="&#x16d;" horiz-adv-x="1030" 
d="M256 1464h113q4 -61 44 -99t101 -38t101 38t44 99h113q0 -100 -64 -185t-194 -85t-194 85t-64 185zM123 338v690h237v-678q0 -188 140 -188q80 0 123 68t43 153v645h237v-774l6 -254h-217l-6 150q-84 -172 -270 -173q-152 -1 -222 99t-71 262z" />
    <glyph glyph-name="Uring" unicode="&#x16e;" horiz-adv-x="1189" 
d="M393 1366v-905q0 -135 41 -213t160 -78q205 0 205 291v905h252v-870q0 -236 -114 -377t-343 -142q-453 0 -453 519v870h252zM598 1424q-86 0 -145 57t-59 142t58 142q60 57 145 57t143 -56q58 -58 58 -144t-56 -142q-58 -56 -144 -56zM487 1621q0 -46 32 -77t79 -31
t77 31t30 78t-30 79t-76 32t-79 -33t-33 -79z" />
    <glyph glyph-name="uring" unicode="&#x16f;" horiz-adv-x="1030" 
d="M123 338v690h237v-678q0 -188 140 -188q80 0 123 68t43 153v645h237v-774l6 -254h-217l-6 150q-84 -172 -270 -173q-152 -1 -222 99t-71 262zM403 1330q0 -46 32 -77t79 -31t77 32q30 30 30 77t-30 79t-76 32t-79 -33t-33 -79zM513 1133q-87 0 -145 57t-58 142
q0 84 58 142q60 58 145 58t143 -57t58 -143t-56 -143q-58 -56 -145 -56z" />
    <glyph glyph-name="Uhungarumlaut" unicode="&#x170;" horiz-adv-x="1189" 
d="M393 1366v-905q0 -135 41 -213t160 -78q205 0 205 291v905h252v-870q0 -236 -114 -377t-343 -142q-453 0 -453 519v870h252zM819 1483h-149l149 278h189zM504 1483h-152l150 278h190z" />
    <glyph glyph-name="uhungarumlaut" unicode="&#x171;" horiz-adv-x="1030" 
d="M123 338v690h237v-678q0 -188 140 -188q80 0 123 68t43 153v645h237v-774l6 -254h-217l-6 150q-84 -172 -270 -173q-152 -1 -222 99t-71 262zM412 1192h-152l150 278h190zM727 1192h-149l149 278h188z" />
    <glyph glyph-name="Uogonek" unicode="&#x172;" horiz-adv-x="1189" 
d="M652 -410q-92 0 -145 48q-54 48 -54 120q0 117 147 219q-459 0 -459 519v870h252v-905q0 -135 41 -213t160 -78q205 0 205 291v905h252v-870q0 -426 -326 -504q-131 -102 -131 -203q0 -47 27 -73q52 -50 161 -7l25 -90q-63 -29 -155 -29z" />
    <glyph glyph-name="uogonek" unicode="&#x173;" horiz-adv-x="1030" 
d="M709 -211q1 -47 27 -73q50 -49 153 -7l24 -90q-63 -29 -150 -29t-141 48t-55 120q0 137 185 242h-60l-6 150q-84 -172 -270 -173q-152 -1 -222 99t-71 262v690h237v-678q0 -188 140 -188q80 0 123 68t43 153v645h237v-774l6 -254h-57q-143 -113 -143 -211z" />
    <glyph glyph-name="Wcircumflex" unicode="&#x174;" horiz-adv-x="1630" 
d="M717 1483h-166l186 278h170l189 -278h-166l-107 178zM612 0h-293l-286 1366h254l190 -1077l205 1077h287l202 -1077l193 1077h233l-286 -1366h-291l-201 1116z" />
    <glyph glyph-name="wcircumflex" unicode="&#x175;" horiz-adv-x="1439" 
d="M621 1192h-166l186 278h170l188 -278h-165l-107 178zM547 0h-264l-267 1028h246l162 -805l170 805h268l172 -805l160 805h231l-264 -1028h-264l-174 805z" />
    <glyph glyph-name="Ycircumflex" unicode="&#x176;" horiz-adv-x="995" 
d="M401 1483h-165l186 278h170l188 -278h-166l-106 178zM623 0h-250v547l-377 819h287l225 -588l217 588h274l-376 -819v-547z" />
    <glyph glyph-name="ycircumflex" unicode="&#x177;" horiz-adv-x="903" 
d="M358 1192h-165l186 278h170l188 -278h-166l-106 178zM190 -281q94 0 132 144l34 135l-344 1030h260l201 -745l178 745h238l-344 -1157q-53 -172 -123 -253t-199 -81q-73 0 -143 27l12 178q35 -23 98 -23z" />
    <glyph glyph-name="Ydieresis" unicode="&#x178;" horiz-adv-x="995" 
d="M754 1507h-176v226h176v-226zM434 1507h-174v226h174v-226zM623 0h-250v547l-377 819h287l225 -588l217 588h274l-376 -819v-547z" />
    <glyph glyph-name="Zacute" unicode="&#x179;" horiz-adv-x="950" 
d="M887 0h-824v203l545 966h-526v197h797v-201l-541 -968h549v-197zM530 1483h-149l151 278h187z" />
    <glyph glyph-name="zacute" unicode="&#x17a;" horiz-adv-x="794" 
d="M739 0h-684v195l432 655h-415v178h659v-194l-432 -654h440v-180zM444 1192h-149l151 278h187z" />
    <glyph glyph-name="Zdotaccent" unicode="&#x17b;" horiz-adv-x="950" 
d="M887 0h-824v203l545 966h-526v197h797v-201l-541 -968h549v-197zM600 1511h-227v226h227v-226z" />
    <glyph glyph-name="zdotaccent" unicode="&#x17c;" horiz-adv-x="794" 
d="M739 0h-684v195l432 655h-415v178h659v-194l-432 -654h440v-180zM530 1221h-239v225h239v-225z" />
    <glyph glyph-name="Zcaron" unicode="&#x17d;" horiz-adv-x="950" 
d="M561 1483h-170l-188 278h166l108 -176l105 176h166zM887 0h-824v203l545 966h-526v197h797v-201l-541 -968h549v-197z" />
    <glyph glyph-name="zcaron" unicode="&#x17e;" horiz-adv-x="794" 
d="M492 1192h-170l-189 278h166l109 -176l104 176h166zM739 0h-684v195l432 655h-415v178h659v-194l-432 -654h440v-180z" />
    <glyph glyph-name="florin" unicode="&#x192;" horiz-adv-x="995" 
d="M174 639v180h219l33 146q67 313 198 389q56 32 141 32t150 -28l-18 -178q-41 22 -95 22t-89 -70t-60 -188l-26 -125h182v-180h-219l-139 -659q-46 -232 -129 -338q-83 -107 -197 -107q-84 0 -150 23l17 176q31 -14 67 -15q109 0 164 279l133 641h-182z" />
    <glyph glyph-name="Scommaaccent" unicode="&#x218;" horiz-adv-x="954" 
d="M374 168q130 0 182 55t52 138t-53 135t-149 106l-70 37q-127 69 -184 149t-58 201q0 189 132 293t293 104t296 -45l-12 -215q-129 70 -229 70t-161 -44t-61 -121t35 -113t129 -93l62 -34q147 -82 219 -171t71 -233q0 -190 -125 -300q-125 -109 -317 -109t-326 59l13 219
q131 -88 261 -88zM453 -463h-142l82 324h209z" />
    <glyph glyph-name="scommaaccent" unicode="&#x219;" horiz-adv-x="806" 
d="M78 752q0 150 112 224t258 73q146 0 244 -39l-12 -191q-124 53 -200 53q-164 0 -163 -112q0 -86 151 -156q62 -28 124 -62t107 -96q44 -62 44 -149q0 -158 -104 -239q-104 -80 -275 -80t-294 53l18 198q137 -73 277 -73t141 118q0 80 -152 154q-64 31 -126 68
q-62 36 -106 102t-44 154zM375 -463h-142l82 324h209z" />
    <glyph glyph-name="uni021A" unicode="&#x21a;" horiz-adv-x="894" 
d="M573 0h-249v1163h-297v203h843v-203h-297v-1163zM403 -463h-141l82 324h209z" />
    <glyph glyph-name="uni021B" unicode="&#x21b;" horiz-adv-x="667" 
d="M440 -23q-254 0 -254 275v598h-147v178h151v217l232 76v-293h196v-178h-196v-555q0 -71 19 -103t73 -32t102 26l13 -176q-84 -33 -189 -33zM330 -463h-142l82 324h209z" />
    <glyph glyph-name="dotlessj" unicode="&#x237;" horiz-adv-x="495" 
d="M133 -137v1165h238v-1157q0 -334 -260 -334q-93 0 -146 23l12 172q37 -12 50 -13q106 0 106 144z" />
    <glyph glyph-name="apostrophe" unicode="&#x2bc;" horiz-adv-x="497" 
d="M207 1067h-141l88 410h172z" />
    <glyph glyph-name="circumflex" unicode="&#x2c6;" 
d="M139 1192h-166l187 278h170l188 -278h-166l-106 178z" />
    <glyph glyph-name="caron" unicode="&#x2c7;" 
d="M332 1192h-170l-189 278h166l109 -176l104 176h166z" />
    <glyph glyph-name="uni02C9" unicode="&#x2c9;" 
d="M514 1262h-537v141h537v-141z" />
    <glyph glyph-name="breve" unicode="&#x2d8;" 
d="M-12 1464h112q4 -61 44 -99t102 -38t101 38q40 38 44 99h113q0 -100 -65 -185t-193 -85t-194 85q-64 85 -64 185z" />
    <glyph glyph-name="dotaccent" unicode="&#x2d9;" 
d="M367 1221h-240v225h240v-225z" />
    <glyph glyph-name="ring" unicode="&#x2da;" 
d="M137 1330q0 -46 32 -77t79 -31t77 32q30 30 29 77q0 47 -29 79q-30 32 -76 32t-79 -33t-33 -79zM246 1133q-88 0 -145 57q-58 57 -58 142q0 84 59 142q58 58 144 58t144 -57t58 -143t-56 -143q-58 -56 -146 -56z" />
    <glyph glyph-name="ogonek" unicode="&#x2db;" 
d="M268 -410q-92 0 -146 48t-54 120q0 137 184 242h100q-143 -113 -143 -211q0 -47 27 -73q52 -50 161 -7l25 -90q-62 -29 -154 -29z" />
    <glyph glyph-name="tilde" unicode="&#x2dc;" 
d="M78 1208h-121q6 94 49 169t127 75q51 0 126 -43t99 -43t40 31q15 31 16 59h123q0 -88 -45 -167t-127 -79q-49 0 -123 43t-101 43t-45 -30t-18 -58z" />
    <glyph glyph-name="hungarumlaut" unicode="&#x2dd;" 
d="M70 1192h-152l150 278h190zM385 1192h-149l149 278h188z" />
    <glyph glyph-name="uni0394" unicode="&#x394;" horiz-adv-x="1536" 
d="M760 1192l-395 -1012h802zM1442 0h-1348l551 1403h227z" />
    <glyph glyph-name="uni03A9" unicode="&#x3a9;" horiz-adv-x="1536" 
d="M694 0h-565v182h393v115q-180 41 -286 191t-107 341q0 262 189 428q190 166 452 166t450 -168t189 -426q1 -188 -107 -343t-286 -189v-115h391v-182h-565v393q160 8 255 131t95 295t-122 297t-300 125t-302 -127t-124 -300t95 -293t255 -128v-393z" />
    <glyph glyph-name="uni03BC" unicode="&#x3bc;" horiz-adv-x="995" 
d="M328 -442h-222v1470h238v-678q0 -188 139 -188q82 0 124 68t42 153v647h238v-774q0 -127 6 -256h-215l-6 166q-31 -74 -86 -131t-132 -57t-126 61v-481z" />
    <glyph glyph-name="pi" unicode="&#x3c0;" horiz-adv-x="1331" 
d="M477 0h-192v813h-144v178h1000v-178h-166v-547q0 -43 3 -63q8 -53 62 -53q35 0 101 30v-155q-83 -45 -179 -45t-138 59t-42 168v606h-305v-813z" />
    <glyph glyph-name="endash" unicode="&#x2013;" horiz-adv-x="1024" 
d="M1024 549h-1024v172h1024v-172z" />
    <glyph glyph-name="emdash" unicode="&#x2014;" horiz-adv-x="2048" 
d="M2048 549h-2048v172h2048v-172z" />
    <glyph glyph-name="quoteleft" unicode="&#x2018;" horiz-adv-x="497" 
d="M297 944h-223l155 533h185z" />
    <glyph glyph-name="quoteright" unicode="&#x2019;" horiz-adv-x="497" 
d="M268 944h-184l117 533h223z" />
    <glyph glyph-name="quotesinglbase" unicode="&#x201a;" horiz-adv-x="497" 
d="M225 -262h-184l117 532h223z" />
    <glyph glyph-name="quotedblleft" unicode="&#x201c;" horiz-adv-x="839" 
d="M297 944h-223l155 533h185zM639 944h-223l155 533h185z" />
    <glyph glyph-name="quotedblright" unicode="&#x201d;" horiz-adv-x="839" 
d="M268 944h-184l117 533h223zM610 944h-184l117 533h223z" />
    <glyph glyph-name="quotedblbase" unicode="&#x201e;" horiz-adv-x="839" 
d="M225 -262h-184l117 532h223zM567 -262h-184l117 532h223z" />
    <glyph glyph-name="dagger" unicode="&#x2020;" horiz-adv-x="995" 
d="M614 -262h-231v1108h-274v196h274v435h231v-435h275v-196h-275v-1108z" />
    <glyph glyph-name="daggerdbl" unicode="&#x2021;" horiz-adv-x="995" 
d="M614 -262h-231v434h-274v197h274v477h-274v196h274v435h231v-435h275v-196h-275v-477h275v-197h-275v-434z" />
    <glyph glyph-name="bullet" unicode="&#x2022;" horiz-adv-x="995" 
d="M248 648q0 91 73 166t177 75t178 -75t74 -179t-74 -178t-178 -74q-52 0 -99 18q-151 67 -151 247z" />
    <glyph glyph-name="ellipsis" unicode="&#x2026;" horiz-adv-x="2048" 
d="M461 0h-236v270h236v-270zM1143 0h-236v270h236v-270zM1825 0h-236v270h236v-270z" />
    <glyph glyph-name="perthousand" unicode="&#x2030;" horiz-adv-x="2285" 
d="M391 1260q-66 0 -86 -77t-20 -253q0 -265 106 -262q66 0 85 76q20 76 20 220q0 142 -20 219t-85 77zM1247 102q66 0 86 78q21 78 21 218t-20 218t-87 78q-66 0 -85 -76t-19 -253q0 -263 104 -263zM1894 102q66 0 86 78t20 218t-20 218t-86 78t-85 -76t-19 -253
q0 -263 104 -263zM392 543q-276 0 -277 422q0 152 48 270q28 70 86 111t142 40q277 0 277 -422t-276 -421zM598 -49h-147l589 1464h148zM1247 821q277 0 277 -422t-276 -422t-277 422q0 153 48 271q28 70 86 110t142 41zM1894 821q276 0 276 -422t-276 -422t-276 422
q0 153 48 271q28 70 86 110t142 41z" />
    <glyph glyph-name="guilsinglleft" unicode="&#x2039;" horiz-adv-x="546" 
d="M487 113h-196l-225 413l225 416h196l-211 -416z" />
    <glyph glyph-name="guilsinglright" unicode="&#x203a;" horiz-adv-x="546" 
d="M256 113h-197l211 415l-211 414h197l225 -414z" />
    <glyph glyph-name="fraction" unicode="&#x2044;" horiz-adv-x="339" 
d="M-53 -49h-146l590 1464h148z" />
    <glyph glyph-name="zero.superior" unicode="&#x2070;" horiz-adv-x="716" 
d="M84 1174q0 180 63 302t209 121q276 0 277 -423q0 -186 -65 -308t-210 -121q-84 0 -137 35q-137 96 -137 394zM357 872q58 0 81 72t23 228t-24 228t-80 70q-57 0 -79 -70t-22 -222t23 -232q20 -74 78 -74z" />
    <glyph glyph-name="uni2071" unicode="&#x2071;" horiz-adv-x="329" 
d="M252 1483h-174v153h174v-153zM250 760h-172v624h172v-624z" />
    <glyph glyph-name="four.superior" unicode="&#x2074;" horiz-adv-x="716" 
d="M397 924h-327v153l301 508h190v-534h90v-127h-90v-164h-164v164zM403 1051v366l-210 -366h210z" />
    <glyph glyph-name="five.superior" unicode="&#x2075;" horiz-adv-x="716" 
d="M420 1030q0 68 -44 104q-77 63 -247 13l8 438h436v-131h-286l-4 -168q37 6 73 6q127 0 193 -68q65 -68 65 -194q0 -125 -88 -205t-206 -80t-214 33l11 133q189 -77 265 9q38 42 38 110z" />
    <glyph glyph-name="six.superior" unicode="&#x2076;" horiz-adv-x="716" 
d="M419 1290q104 0 160 -75t56 -195t-74 -197q-74 -78 -194 -78q-274 0 -275 392q0 170 69 306q37 71 105 113t162 42t168 -25l-8 -133q-74 29 -139 28q-182 0 -195 -266q61 88 165 88zM367 1163q-100 0 -99 -145t97 -146q55 0 79 48t23 104q0 139 -100 139z" />
    <glyph glyph-name="seven.superior" unicode="&#x2077;" horiz-adv-x="716" 
d="M104 1456v129h498v-131l-254 -694h-186l270 696h-328z" />
    <glyph glyph-name="eight.superior" unicode="&#x2078;" horiz-adv-x="716" 
d="M359 1597q105 0 181 -55t74 -153q0 -125 -141 -195q166 -78 166 -219q0 -105 -81 -167t-201 -62q-121 0 -201 60t-80 154t49 146q57 57 117 88q-141 59 -142 195q0 98 77 153t182 55zM455 1380q0 41 -25 66q-25 24 -71 24q-45 0 -71 -26t-26 -70q0 -42 27 -71t80 -56
q86 51 86 133zM248 981q0 -45 30 -77t80 -32t81 32q30 32 30 85t-34 87t-87 61q-100 -57 -100 -156z" />
    <glyph glyph-name="nine.superior" unicode="&#x2079;" horiz-adv-x="716" 
d="M305 1055q-105 0 -164 77q-59 78 -59 192t75 195t195 80q150 -1 213 -115t63 -252t-26 -234q-28 -97 -106 -174t-188 -77t-183 25l8 133q61 -27 139 -26q180 0 193 264q-55 -88 -160 -88zM352 1182q100 0 100 146t-98 145q-55 1 -79 -47q-23 -48 -23 -105t18 -92
q29 -47 82 -47z" />
    <glyph glyph-name="plus.superior" unicode="&#x207a;" horiz-adv-x="716" 
d="M293 1016h-258v125h258v252h131v-252h256v-125h-256v-252h-131v252z" />
    <glyph glyph-name="plus.superior" unicode="&#xe1e1;" horiz-adv-x="716" 
d="M293 1016h-258v125h258v252h131v-252h256v-125h-256v-252h-131v252z" />
    <glyph glyph-name="minus.superior" unicode="&#x207b;" horiz-adv-x="716" 
d="M680 1016h-645v125h645v-125z" />
    <glyph glyph-name="minus.superior" unicode="&#xe1e5;" horiz-adv-x="716" 
d="M680 1016h-645v125h645v-125z" />
    <glyph glyph-name="uni207F" unicode="&#x207f;" horiz-adv-x="681" 
d="M250 760h-172v500q0 88 -4 124h157l5 -94q59 106 176 107q190 0 190 -223v-414h-170v403q0 43 -21 73q-22 30 -67 30t-70 -35t-24 -82v-389z" />
    <glyph glyph-name="zero.inferior" unicode="&#x2080;" horiz-adv-x="716" 
d="M84 76q0 180 63 302t209 122q276 0 277 -424q0 -186 -65 -307t-210 -121q-84 0 -137 35q-137 96 -137 393zM461 74q0 156 -24 228t-80 71q-57 0 -79 -71q-22 -70 -22 -222t23 -232q20 -74 78 -74t81 72t23 228z" />
    <glyph glyph-name="one.inferior" unicode="&#x2081;" horiz-adv-x="716" 
d="M489 -338h-172v633l-124 -107l-84 117l241 182h139v-825z" />
    <glyph glyph-name="two.inferior" unicode="&#x2082;" horiz-adv-x="716" 
d="M596 -338h-498v131l117 129q100 109 151 186q50 77 50 139q0 124 -125 124q-61 0 -162 -45l-8 131q106 43 223 43q118 0 184 -64t66 -166q0 -178 -215 -393l-86 -86h303v-129z" />
    <glyph glyph-name="three.inferior" unicode="&#x2083;" horiz-adv-x="716" 
d="M416 268q0 103 -144 103q-70 0 -151 -37l-6 133q96 33 212 33q115 0 189 -56t74 -163q0 -139 -158 -187q68 -14 117 -63t49 -147t-81 -167q-81 -70 -241 -69q-108 -1 -184 30l8 136q90 -35 165 -35t116 33t41 92q0 121 -176 121h-43v129h43q170 0 170 114z" />
    <glyph glyph-name="four.inferior" unicode="&#x2084;" horiz-adv-x="716" 
d="M397 -174h-327v154l301 507h190v-534h90v-127h-90v-164h-164v164zM403 -47v366l-210 -366h210z" />
    <glyph glyph-name="five.inferior" unicode="&#x2085;" horiz-adv-x="716" 
d="M274 -221q70 0 108 43q38 42 38 110t-44 104t-108 36t-139 -23l8 438h436v-131h-286l-4 -168q37 6 73 7q127 0 193 -69q65 -70 65 -194t-88 -204t-206 -80t-214 33l11 133q87 -35 157 -35z" />
    <glyph glyph-name="six.inferior" unicode="&#x2086;" horiz-adv-x="716" 
d="M449 371q-182 0 -195 -267q61 88 165 88t160 -74q56 -75 56 -195q0 -119 -74 -197t-194 -78q-274 0 -275 391q0 172 69 306q36 71 104 113q69 42 163 42t168 -25l-8 -133q-74 29 -139 29zM467 -74q0 139 -100 140q-100 0 -99 -146t97 -145q55 0 79 47t23 104z" />
    <glyph glyph-name="seven.inferior" unicode="&#x2087;" horiz-adv-x="716" 
d="M104 358v129h498v-131l-254 -694h-186l270 696h-328z" />
    <glyph glyph-name="eight.inferior" unicode="&#x2088;" horiz-adv-x="716" 
d="M639 -123q0 -105 -81 -167t-201 -62q-121 0 -201 60t-80 154t49 146q57 57 117 88q-141 59 -142 195q0 98 77 153q77 56 182 56t181 -56t74 -153q0 -125 -141 -195q166 -78 166 -219zM455 283q0 41 -25 65t-71 25q-45 0 -71 -27q-26 -28 -26 -70t27 -71t80 -55
q86 51 86 133zM248 -117q0 -45 30 -77t80 -32t81 32q30 32 30 85t-34 87t-87 61q-100 -57 -100 -156z" />
    <glyph glyph-name="nine.inferior" unicode="&#x2089;" horiz-adv-x="716" 
d="M305 -43q-105 0 -164 77q-59 78 -59 192t75 195t195 81q150 0 213 -115t63 -252t-26 -234q-28 -97 -106 -174t-188 -77t-183 24l8 133q61 -27 139 -26q180 0 193 264q-55 -88 -160 -88zM352 84q100 0 100 146t-98 145q-55 0 -79 -47q-23 -46 -23 -104t18 -93
q29 -47 82 -47z" />
    <glyph glyph-name="plus.inferior" unicode="&#x208a;" horiz-adv-x="716" 
d="M293 -82h-258v125h258v252h131v-252h256v-125h-256v-252h-131v252z" />
    <glyph glyph-name="plus.inferior" unicode="&#xe194;" horiz-adv-x="716" 
d="M293 -82h-258v125h258v252h131v-252h256v-125h-256v-252h-131v252z" />
    <glyph glyph-name="minus.inferior" unicode="&#x208b;" horiz-adv-x="716" 
d="M680 -82h-645v125h645v-125z" />
    <glyph glyph-name="minus.inferior" unicode="&#xe198;" horiz-adv-x="716" 
d="M680 -82h-645v125h645v-125z" />
    <glyph glyph-name="a.inferior" unicode="&#x2090;" horiz-adv-x="649" 
d="M231 -352q-88 0 -140 51t-52 135q0 113 96 165t225 52h48v23q0 109 -117 108q-90 0 -182 -51l-9 129q111 39 222 39q248 0 247 -219v-279q0 -22 6 -139h-161l-6 86q-61 -100 -177 -100zM203 -154q0 -82 96 -82q51 0 80 46t29 106v41h-23q-182 0 -182 -111z" />
    <glyph glyph-name="a.inferior" unicode="&#xe150;" horiz-adv-x="649" 
d="M231 -352q-88 0 -140 51t-52 135q0 113 96 165t225 52h48v23q0 109 -117 108q-90 0 -182 -51l-9 129q111 39 222 39q248 0 247 -219v-279q0 -22 6 -139h-161l-6 86q-61 -100 -177 -100zM203 -154q0 -82 96 -82q51 0 80 46t29 106v41h-23q-182 0 -182 -111z" />
    <glyph glyph-name="e.inferior" unicode="&#x2091;" horiz-adv-x="618" 
d="M580 -66h-369q2 -74 42 -120t127 -47q87 0 165 43l6 -129q-92 -33 -193 -33q-158 0 -236 90t-77 230q0 140 73 235q74 96 206 96t194 -84t62 -213v-68zM211 29h211q-4 158 -100 157q-51 0 -81 -50t-30 -107z" />
    <glyph glyph-name="e.inferior" unicode="&#xe154;" horiz-adv-x="618" 
d="M580 -66h-369q2 -74 42 -120t127 -47q87 0 165 43l6 -129q-92 -33 -193 -33q-158 0 -236 90t-77 230q0 140 73 235q74 96 206 96t194 -84t62 -213v-68zM211 29h211q-4 158 -100 157q-51 0 -81 -50t-30 -107z" />
    <glyph glyph-name="o.inferior" unicode="&#x2092;" horiz-adv-x="675" 
d="M47 -23q0 133 78 227t217 95q139 0 213 -91q74 -92 74 -230t-76 -234t-215 -96q-78 -1 -131 26q-160 78 -160 303zM338 174q-69 0 -93 -75q-20 -62 -20 -122q3 -206 113 -204q106 0 113 204q0 197 -113 197z" />
    <glyph glyph-name="o.inferior" unicode="&#xe15e;" horiz-adv-x="675" 
d="M47 -23q0 133 78 227t217 95q139 0 213 -91q74 -92 74 -230t-76 -234t-215 -96q-78 -1 -131 26q-160 78 -160 303zM338 174q-69 0 -93 -75q-20 -62 -20 -122q3 -206 113 -204q106 0 113 204q0 197 -113 197z" />
    <glyph glyph-name="x.inferior" unicode="&#x2093;" horiz-adv-x="614" 
d="M188 -338h-184l199 322l-185 303h197l96 -199l99 199h182l-184 -305l202 -320h-196l-111 223z" />
    <glyph glyph-name="x.inferior" unicode="&#xe167;" horiz-adv-x="614" 
d="M188 -338h-184l199 322l-185 303h197l96 -199l99 199h182l-184 -305l202 -320h-196l-111 223z" />
    <glyph glyph-name="schwa.inferior" unicode="&#x2094;" horiz-adv-x="618" 
d="M45 -55v67h369q-2 74 -42 121t-127 47t-165 -43l-6 129q92 33 192 33q156 0 235 -90q79 -89 79 -229t-73 -236t-206 -96t-195 84q-61 84 -61 213zM414 -82h-211q4 -158 100 -158q51 0 81 50t30 108z" />
    <glyph glyph-name="Euro" unicode="&#x20ac;" horiz-adv-x="995" 
d="M201 682q0 23 4 76h-137l22 119h129q31 197 144 353t329 156q127 0 236 -59l-35 -184q-57 55 -168 55q-203 0 -266 -321h391l-23 -119h-381q-2 -14 -2 -39v-74q0 -25 2 -39h355l-23 -119h-319q20 -131 86 -226t171 -95t173 47l12 -199q-98 -37 -209 -37q-206 1 -324 147
t-151 363h-149l22 119h115q-4 53 -4 76z" />
    <glyph glyph-name="afii61289" unicode="&#x2113;" horiz-adv-x="1024" 
d="M508 299q0 -152 148 -152q70 0 165 78h4l82 -125q-147 -129 -307 -129t-246 79q-84 79 -84 210v131l-114 -106h-4l-86 129l202 174v499q0 170 96 280t234 110q137 0 213 -79t76 -214q0 -299 -379 -635v-250zM508 1133v-379q184 205 184 413q0 63 -24 107q-25 43 -65 43
q-39 0 -67 -50t-28 -134z" />
    <glyph glyph-name="trademark" unicode="&#x2122;" horiz-adv-x="1644" 
d="M387 545h-178v692h-193v129h562v-129h-191v-692zM850 545h-154v821h258l164 -592l168 592h258v-821h-172v676l-194 -676h-134l-194 676v-676z" />
    <glyph glyph-name="Omega" unicode="&#x2126;" horiz-adv-x="1536" 
d="M694 0h-565v182h393v115q-180 41 -286 191t-107 341q0 262 189 428q190 166 452 166t450 -168t189 -426q1 -188 -107 -343t-286 -189v-115h391v-182h-565v393q160 8 255 131t95 295t-122 297t-300 125t-302 -127t-124 -300t95 -293t255 -128v-393z" />
    <glyph glyph-name="estimated" unicode="&#x212e;" horiz-adv-x="1228" 
d="M322 530v-370q121 -121 296 -121q129 0 224 58q94 58 172 188l71 -43q-94 -150 -200 -213t-267 -64q-236 0 -382 162q-146 163 -146 405t146 403t382 161t383 -158t148 -408h-827zM322 604h596v297q-129 123 -301 123t-295 -123v-297z" />
    <glyph glyph-name="partialdiff" unicode="&#x2202;" horiz-adv-x="1204" 
d="M948 1229q109 -216 109 -486t-93 -500q-50 -122 -152 -196t-241 -74q-197 -1 -317 137t-119 331q0 193 116 319t292 127q176 0 317 -129q0 207 -58 374q-32 91 -96 145q-65 54 -155 54q-144 1 -244 -112l-104 122q151 133 313 133t268 -66q106 -67 164 -179zM575 111
q250 0 281 501q-131 136 -262 136t-201 -94q-69 -94 -69 -222q0 -129 61 -219q74 -102 190 -102z" />
    <glyph glyph-name="Delta" unicode="&#x2206;" horiz-adv-x="1536" 
d="M760 1192l-395 -1012h802zM1442 0h-1348l551 1403h227z" />
    <glyph glyph-name="product" unicode="&#x220f;" horiz-adv-x="1536" 
d="M371 -410h-195v2048h1186v-2048h-195v1858h-796v-1858z" />
    <glyph glyph-name="summation" unicode="&#x2211;" horiz-adv-x="1536" 
d="M1411 -410h-1266v174l570 867l-537 837v170h1202v-184h-954l518 -823l-555 -850h1022v-191z" />
    <glyph glyph-name="minus" unicode="&#x2212;" horiz-adv-x="1204" 
d="M1130 426h-1056v186h1056v-186z" />
    <glyph glyph-name="uni2215" unicode="&#x2215;" horiz-adv-x="339" 
d="M-53 -49h-146l590 1464h148z" />
    <glyph glyph-name="uni2219" unicode="&#x2219;" horiz-adv-x="497" 
d="M367 500h-236v270h236v-270z" />
    <glyph glyph-name="radical" unicode="&#x221a;" horiz-adv-x="1204" 
d="M733 -410h-176l-311 668l-103 -47l-71 141l274 127l275 -612l325 1771h187z" />
    <glyph glyph-name="infinity" unicode="&#x221e;" horiz-adv-x="1738" 
d="M506 723q-80 0 -134 -58q-54 -57 -54 -139t51 -139q53 -55 130 -55t131 46q53 46 92 93q38 47 48 59q-139 193 -264 193zM1423 521q0 81 -54 138t-139 57t-208 -138q-37 -45 -51 -64q45 -59 73 -92t81 -66q54 -32 122 -32t122 58t54 139zM1235 160q-210 0 -361 231
q-82 -111 -164 -169t-196 -58q-154 0 -255 103t-101 259t96 258t252 103q82 0 152 -38t109 -81q40 -43 99 -123q140 184 248 220q51 17 115 18q158 -1 256 -101t98 -257t-96 -261t-252 -104z" />
    <glyph glyph-name="integral" unicode="&#x222b;" horiz-adv-x="995" 
d="M236 -274q60 0 94 34q33 34 41 71q8 36 8 77v1335q0 170 68 267q69 97 241 98q123 0 182 -25l-12 -182q-35 16 -98 16q-137 0 -137 -182v-1335q0 -365 -312 -365q-123 0 -182 25l12 182q35 -16 95 -16z" />
    <glyph glyph-name="approxequal" unicode="&#x2248;" horiz-adv-x="1204" 
d="M328 485q94 1 281 -69t274 -70q119 0 143 141h129q-8 -133 -80 -233t-196 -100q-95 0 -285 70t-260 71q-70 0 -108 -42q-40 -42 -46 -103h-131q14 137 82 236t197 99zM879 555q-95 0 -285 71q-190 70 -260 70t-108 -42q-40 -42 -46 -105h-131q14 139 82 238t197 100
q94 0 281 -70t274 -69q117 0 143 143h129q-8 -133 -80 -235t-196 -101z" />
    <glyph glyph-name="notequal" unicode="&#x2260;" horiz-adv-x="1204" 
d="M74 213v186h360l123 238h-483v188h579l160 310l162 -82l-117 -228h272v-188h-368l-123 -238h491v-186h-587l-156 -307l-166 84l119 223h-266z" />
    <glyph glyph-name="lessequal" unicode="&#x2264;" horiz-adv-x="1204" 
d="M1128 -74h-1056v187h1056v-187zM1128 188l-1056 371v193l1056 360v-199l-796 -258l796 -270v-197z" />
    <glyph glyph-name="greaterequal" unicode="&#x2265;" horiz-adv-x="1204" 
d="M1133 -74h-1057v187h1057v-187zM1133 559l-1057 -371v197l796 270l-796 258v199l1057 -360v-193z" />
    <glyph glyph-name="lozenge" unicode="&#x25ca;" horiz-adv-x="1204" 
d="M342 819l260 -620l260 620l-260 621zM692 0h-182l-363 819l365 819h180l367 -819z" />
    <glyph glyph-name="exclam.sc" unicode="&#xe000;" horiz-adv-x="497" 
d="M342 395h-184l-27 699h238zM365 0h-232v252h232v-252z" />
    <glyph glyph-name="dollar.sc" unicode="&#xe001;" horiz-adv-x="847" 
d="M481 -174h-133v151q-154 10 -254 46l10 200q110 -67 258 -67t148 135q0 55 -30 90t-99 72l-98 55q-195 104 -195 303q0 111 72 189t200 104v166h129v-156q133 -10 222 -37l-11 -198q-106 55 -225 55q-141 0 -141 -111q0 -49 26 -81t84 -64l93 -53q117 -67 168 -131
t51 -185t-75 -208t-200 -113v-162z" />
    <glyph glyph-name="percent.sc" unicode="&#xe002;" horiz-adv-x="1376" 
d="M336 434q-230 0 -230 340q0 152 58 246t174 94q233 0 233 -340q0 -154 -59 -247t-176 -93zM336 553q42 0 62 50q19 50 20 171q0 221 -82 221q-41 0 -58 -50q-18 -50 -18 -169t16 -174q18 -49 60 -49zM807 317q0 152 57 246t174 94q233 0 234 -340q0 -155 -60 -247
t-176 -93q-229 0 -229 340zM1037 96q42 0 62 50q19 50 19 171q0 221 -82 222q-41 -1 -58 -51t-17 -169t16 -174q18 -49 60 -49zM506 -39h-129l491 1174h129z" />
    <glyph glyph-name="ampersand.sc" unicode="&#xe003;" horiz-adv-x="974" 
d="M815 479v-454q-147 -47 -331 -47t-291 79q-106 80 -107 232q0 109 77 181t195 89q-118 20 -182 86t-63 170q0 135 110 217q111 82 251 82t261 -31l-12 -184q-99 39 -195 39t-140 -39t-44 -100q0 -92 64 -124t196 -32v115h211v-115h121v-164h-121zM604 479
q-139 0 -214 -36t-75 -134q0 -156 191 -155q57 0 98 8v317z" />
    <glyph glyph-name="question.sc" unicode="&#xe004;" horiz-adv-x="688" 
d="M410 395h-213q0 74 29 133q30 58 67 92q96 87 96 179q0 125 -151 125q-100 0 -183 -50l-10 195q121 45 265 45t236 -72q93 -72 93 -208q0 -72 -36 -134t-79 -98q-42 -36 -78 -92t-36 -115zM420 0h-232v252h232v-252z" />
    <glyph glyph-name="a.sc" unicode="&#xe005;" horiz-adv-x="997" 
d="M254 0h-238l351 1094h266l348 -1094h-244l-71 254h-340zM494 907l-138 -489h277z" />
    <glyph glyph-name="b.sc" unicode="&#xe006;" horiz-adv-x="948" 
d="M518 0h-381v1094h387q138 0 232 -73t94 -202q0 -96 -56 -163t-143 -87q97 -18 159 -86t62 -174q0 -149 -98 -229t-256 -80zM369 483v-319h114q74 0 114 41t40 117t-41 118t-113 43h-114zM369 928v-291h102q68 0 107 42q38 43 38 109t-38 103q-39 37 -107 37h-102z" />
    <glyph glyph-name="c.sc" unicode="&#xe007;" horiz-adv-x="894" 
d="M586 -23q-240 0 -373 156t-133 409q0 252 140 412t360 160q129 0 247 -51l-10 -201q-78 62 -207 62q-128 0 -202 -106t-74 -270q0 -165 77 -273t207 -107q103 0 205 51l11 -203q-135 -39 -248 -39z" />
    <glyph glyph-name="d.sc" unicode="&#xe008;" horiz-adv-x="1046" 
d="M461 0h-324v1094h307q258 0 390 -146t133 -395q0 -249 -131 -401t-375 -152zM375 911v-731h74q266 0 266 366t-275 365h-65z" />
    <glyph glyph-name="e.sc" unicode="&#xe009;" horiz-adv-x="845" 
d="M768 0h-631v1094h615v-181h-381v-264h356v-172h-356v-297h397v-180z" />
    <glyph glyph-name="f.sc" unicode="&#xe00a;" horiz-adv-x="804" 
d="M377 0h-240v1094h598v-181h-358v-288h340v-174h-340v-451z" />
    <glyph glyph-name="g.sc" unicode="&#xe00b;" horiz-adv-x="1030" 
d="M922 614v-573q-154 -63 -332 -64q-248 0 -379 158t-131 409q0 250 146 410t395 160q141 0 276 -47l-8 -195q-121 64 -261 64t-218 -113t-78 -283t68 -279q68 -110 212 -109q59 0 107 18v279h-146v165h349z" />
    <glyph glyph-name="h.sc" unicode="&#xe00c;" horiz-adv-x="1052" 
d="M377 0h-240v1094h240v-439h299v439h239v-1094h-239v471h-299v-471z" />
    <glyph glyph-name="i.sc" unicode="&#xe00d;" horiz-adv-x="514" 
d="M377 0h-240v1094h240v-1094z" />
    <glyph glyph-name="j.sc" unicode="&#xe00e;" horiz-adv-x="595" 
d="M117 170q111 0 110 164v760h240v-756q0 -360 -301 -361q-74 0 -154 25l11 191q55 -23 94 -23z" />
    <glyph glyph-name="k.sc" unicode="&#xe00f;" horiz-adv-x="972" 
d="M377 0h-240v1094h240v-476l299 476h258l-350 -512l381 -582h-271l-317 516v-516z" />
    <glyph glyph-name="l.sc" unicode="&#xe010;" horiz-adv-x="763" 
d="M729 0h-592v1094h240v-906h352v-188z" />
    <glyph glyph-name="m.sc" unicode="&#xe011;" horiz-adv-x="1368" 
d="M344 0h-207v1094h344l201 -818l213 818h336v-1094h-223v889l-240 -889h-188l-236 893v-893z" />
    <glyph glyph-name="n.sc" unicode="&#xe012;" horiz-adv-x="1101" 
d="M344 0h-207v1094h305l316 -836v836h207v-1094h-301l-320 825v-825z" />
    <glyph glyph-name="o.sc" unicode="&#xe013;" horiz-adv-x="1056" 
d="M528 1114q164 0 268 -85t143 -206q38 -121 38 -276q0 -240 -112 -405t-337 -165q-125 1 -213 48q-236 135 -235 522q0 239 112 403t336 164zM528 934q-196 0 -196 -388t196 -388t197 389q0 278 -91 352q-42 35 -106 35z" />
    <glyph glyph-name="p.sc" unicode="&#xe014;" horiz-adv-x="907" 
d="M373 0h-236v1094h340q173 0 275 -88t102 -260t-99 -261q-99 -88 -270 -88h-112v-397zM373 922v-353h86q162 0 162 176t-175 177h-73z" />
    <glyph glyph-name="q.sc" unicode="&#xe015;" horiz-adv-x="1056" 
d="M528 1114q164 0 268 -85t143 -206q38 -121 38 -281t-55 -296q-55 -135 -166 -207l219 -246h-273l-147 187q-16 -2 -27 -3q-121 -1 -211 47t-140 131q-99 164 -98 397q1 234 113 398t336 164zM528 934q-196 0 -196 -388t196 -388t197 389q0 278 -91 352q-42 35 -106 35z
" />
    <glyph glyph-name="r.sc" unicode="&#xe016;" horiz-adv-x="954" 
d="M371 0h-234v1094h379q148 0 244 -76t96 -199t-66 -193t-167 -89q49 -8 86 -44t53 -71t37 -94l106 -328h-239l-101 328q-37 119 -127 118h-67v-446zM371 924v-312h90q156 0 155 160q0 152 -157 152h-88z" />
    <glyph glyph-name="s.sc" unicode="&#xe017;" horiz-adv-x="804" 
d="M494 291q0 55 -30 90t-99 72l-99 55q-195 104 -194 303q0 133 102 218t272 85q111 0 248 -37l-10 -198q-106 55 -225 55q-141 0 -142 -111q0 -49 27 -81t84 -64l92 -53q117 -67 168 -131t51 -196t-104 -226t-270 -94t-287 45l10 200q110 -67 258 -67t148 135z" />
    <glyph glyph-name="t.sc" unicode="&#xe018;" horiz-adv-x="768" 
d="M504 0h-240v905h-239v189h718v-189h-239v-905z" />
    <glyph glyph-name="u.sc" unicode="&#xe019;" horiz-adv-x="1044" 
d="M369 1094v-725q-1 -207 153 -207t154 207v725h239v-697q0 -193 -99 -307t-296 -113q-391 0 -391 420v697h240z" />
    <glyph glyph-name="v.sc" unicode="&#xe01a;" horiz-adv-x="923" 
d="M596 0h-266l-318 1094h260l197 -848l193 848h249z" />
    <glyph glyph-name="w.sc" unicode="&#xe01b;" horiz-adv-x="1366" 
d="M535 0h-273l-235 1094h243l142 -838l147 838h268l144 -842l143 842h225l-233 -1094h-272l-146 872z" />
    <glyph glyph-name="x.sc" unicode="&#xe01c;" horiz-adv-x="935" 
d="M266 0h-252l305 580l-280 514h264l170 -371l166 371h252l-279 -512l310 -582h-265l-196 438z" />
    <glyph glyph-name="y.sc" unicode="&#xe01d;" horiz-adv-x="860" 
d="M551 0h-240v428l-317 666h268l174 -473l168 473h262l-315 -666v-428z" />
    <glyph glyph-name="z.sc" unicode="&#xe01e;" horiz-adv-x="825" 
d="M762 0h-705v180l445 731h-430v183h684v-181l-441 -733h447v-180z" />
    <glyph glyph-name="agrave.sc" unicode="&#xe01f;" horiz-adv-x="997" 
d="M586 1239h-152l-188 279h188zM254 0h-238l351 1094h266l348 -1094h-244l-71 254h-340zM494 907l-138 -489h277z" />
    <glyph glyph-name="aacute.sc" unicode="&#xe020;" horiz-adv-x="997" 
d="M549 1239h-150l152 279h186zM254 0h-238l351 1094h266l348 -1094h-244l-71 254h-340zM494 907l-138 -489h277z" />
    <glyph glyph-name="acircumflex.sc" unicode="&#xe021;" horiz-adv-x="997" 
d="M383 1239h-166l186 279h170l189 -279h-166l-107 178zM254 0h-238l351 1094h266l348 -1094h-244l-71 254h-340zM494 907l-138 -489h277z" />
    <glyph glyph-name="atilde.sc" unicode="&#xe022;" horiz-adv-x="997" 
d="M322 1255h-121q6 94 49 169t127 75q51 0 126 -43t99 -43t40 31q15 31 15 59h123q0 -88 -45 -167t-127 -79q-51 0 -125 43q-73 43 -99 43q-26 1 -44 -29t-18 -59zM254 0h-238l351 1094h266l348 -1094h-244l-71 254h-340zM494 907l-138 -489h277z" />
    <glyph glyph-name="adieresis.sc" unicode="&#xe023;" horiz-adv-x="997" 
d="M739 1264h-176v225h176v-225zM420 1264h-174v225h174v-225zM254 0h-238l351 1094h266l348 -1094h-244l-71 254h-340zM494 907l-138 -489h277z" />
    <glyph glyph-name="aring.sc" unicode="&#xe024;" horiz-adv-x="997" 
d="M492 1180q-88 0 -145 57q-58 57 -58 142t59 143q58 58 144 57q86 0 144 -57q58 -58 58 -144t-57 -142t-145 -56zM383 1377q0 -46 32 -77q32 -30 79 -30q46 0 76 30t30 78q0 47 -30 79t-76 32t-78 -33q-33 -33 -33 -79zM254 0h-238l351 1094h266l348 -1094h-244l-71 254
h-340zM494 907l-138 -489h277z" />
    <glyph glyph-name="amacron.sc" unicode="&#xe025;" horiz-adv-x="997" 
d="M254 0h-238l351 1094h266l348 -1094h-244l-71 254h-340zM494 907l-138 -489h277zM760 1309h-537v141h537v-141z" />
    <glyph glyph-name="abreve.sc" unicode="&#xe026;" horiz-adv-x="997" 
d="M254 0h-238l351 1094h266l348 -1094h-244l-71 254h-340zM494 907l-138 -489h277zM233 1511h113q4 -61 44 -99t102 -38t101 38q40 38 44 99h113q0 -100 -65 -185t-193 -85t-194 85q-65 85 -65 185z" />
    <glyph glyph-name="aogonek.sc" unicode="&#xe027;" horiz-adv-x="997" 
d="M802 -410q-92 0 -146 48t-54 120q0 137 184 242h-49l-71 256h-340l-72 -256h-238l351 1094h266l348 -1094h-94q-143 -113 -144 -211q0 -47 27 -73q53 -51 162 -7l24 -90q-63 -29 -154 -29zM494 907l-138 -489h277z" />
    <glyph glyph-name="ae.sc" unicode="&#xe028;" horiz-adv-x="1320" 
d="M1227 1094v-181h-367v-264h342v-172h-342v-297h383v-180h-604v258h-291l-112 -258h-246l516 1094h721zM639 422v514l-231 -514h231z" />
    <glyph glyph-name="cacute.sc" unicode="&#xe029;" horiz-adv-x="894" 
d="M586 -23q-240 0 -373 156t-133 409q0 252 140 412t360 160q129 0 247 -51l-10 -201q-78 62 -207 62q-128 0 -202 -106t-74 -270q0 -165 77 -273t207 -107q103 0 205 51l11 -203q-135 -39 -248 -39zM594 1239h-150l152 279h186z" />
    <glyph glyph-name="ccircumflex.sc" unicode="&#xe02a;" horiz-adv-x="894" 
d="M434 1239h-166l187 279h170l188 -279h-166l-106 178zM586 -23q-240 0 -373 156t-133 409q0 252 140 412t360 160q129 0 247 -51l-10 -201q-78 62 -207 62q-128 0 -202 -106t-74 -270q0 -165 77 -273t207 -107q103 0 205 51l11 -203q-135 -39 -248 -39z" />
    <glyph glyph-name="ccaron.sc" unicode="&#xe02b;" horiz-adv-x="894" 
d="M586 -23q-240 0 -373 156t-133 409q0 252 140 412t360 160q129 0 247 -51l-10 -201q-78 62 -207 62q-128 0 -202 -106t-74 -270q0 -165 77 -273t207 -107q103 0 205 51l11 -203q-135 -39 -248 -39zM633 1239h-170l-189 279h166l109 -177l104 177h166z" />
    <glyph glyph-name="cdotaccent.sc" unicode="&#xe02c;" horiz-adv-x="894" 
d="M662 1268h-228v225h228v-225zM586 -23q-240 0 -373 156t-133 409q0 252 140 412t360 160q129 0 247 -51l-10 -201q-78 62 -207 62q-128 0 -202 -106t-74 -270q0 -165 77 -273t207 -107q103 0 205 51l11 -203q-135 -39 -248 -39z" />
    <glyph glyph-name="ccedilla.sc" unicode="&#xe02d;" horiz-adv-x="894" 
d="M580 1114q129 0 247 -51l-10 -201q-78 62 -207 62q-128 0 -202 -106t-74 -270q0 -165 77 -273t207 -107q102 0 205 51l11 -203q-135 -39 -256 -39l-66 -88q24 9 80 9t96 -38t39 -109t-65 -116t-172 -45t-179 39l35 90q80 -35 135 -34q106 0 107 71q0 29 -26 46
q-26 18 -66 18t-68 -13l-37 50l98 129q-195 28 -303 180t-106 390q0 238 140 398t360 160z" />
    <glyph glyph-name="dcaron.sc" unicode="&#xe02e;" horiz-adv-x="1046" 
d="M461 0h-324v1094h307q258 0 390 -146t133 -395q0 -249 -131 -401t-375 -152zM375 911v-731h74q266 0 266 366t-275 365h-65zM557 1239h-170l-188 279h166l108 -177l105 177h165z" />
    <glyph glyph-name="dcroat.sc" unicode="&#xe02f;" horiz-adv-x="1046" 
d="M461 0h-322v479h-98v142h98v473h305q258 0 390 -146t133 -395q0 -249 -131 -401t-375 -152zM373 479v-299h76q266 0 266 366t-275 365h-67v-290h178v-142h-178z" />
    <glyph glyph-name="eth.sc" unicode="&#xe030;" horiz-adv-x="1046" 
d="M461 0h-322v479h-98v142h98v473h305q258 0 390 -146t133 -395q0 -249 -131 -401t-375 -152zM373 479v-299h76q266 0 266 366t-275 365h-67v-290h178v-142h-178z" />
    <glyph glyph-name="egrave.sc" unicode="&#xe031;" horiz-adv-x="845" 
d="M545 1239h-152l-188 279h188zM768 0h-631v1094h615v-181h-381v-264h356v-172h-356v-297h397v-180z" />
    <glyph glyph-name="eacute.sc" unicode="&#xe032;" horiz-adv-x="845" 
d="M485 1239h-149l151 279h187zM768 0h-631v1094h615v-181h-381v-264h356v-172h-356v-297h397v-180z" />
    <glyph glyph-name="ecircumflex.sc" unicode="&#xe033;" horiz-adv-x="845" 
d="M336 1239h-166l186 279h170l189 -279h-166l-107 178zM768 0h-631v1094h615v-181h-381v-264h356v-172h-356v-297h397v-180z" />
    <glyph glyph-name="ecaron.sc" unicode="&#xe034;" horiz-adv-x="845" 
d="M768 0h-631v1094h615v-181h-381v-264h356v-172h-356v-297h397v-180zM528 1239h-170l-188 279h166l108 -177l105 177h166z" />
    <glyph glyph-name="edieresis.sc" unicode="&#xe035;" horiz-adv-x="845" 
d="M690 1264h-176v225h176v-225zM371 1264h-174v225h174v-225zM768 0h-631v1094h615v-181h-381v-264h356v-172h-356v-297h397v-180z" />
    <glyph glyph-name="edotaccent.sc" unicode="&#xe036;" horiz-adv-x="845" 
d="M768 0h-631v1094h615v-181h-381v-264h356v-172h-356v-297h397v-180zM557 1268h-227v225h227v-225z" />
    <glyph glyph-name="emacron.sc" unicode="&#xe037;" horiz-adv-x="845" 
d="M768 0h-631v1094h615v-181h-381v-264h356v-172h-356v-297h397v-180zM711 1309h-537v141h537v-141z" />
    <glyph glyph-name="ebreve.sc" unicode="&#xe038;" horiz-adv-x="845" 
d="M184 1511h113q4 -61 44 -99t101 -38t102 38q40 38 44 99h112q0 -100 -64 -185t-194 -85t-194 85t-64 185zM768 0h-631v1094h615v-181h-381v-264h356v-172h-356v-297h397v-180z" />
    <glyph glyph-name="eogonek.sc" unicode="&#xe039;" horiz-adv-x="845" 
d="M137 0v1094h615v-181h-381v-264h356v-172h-356v-297h397v-180h-72q-143 -113 -143 -211q0 -47 27 -73q52 -50 161 -7l25 -90q-62 -29 -154 -29t-146 48t-54 120q0 138 184 242h-459z" />
    <glyph glyph-name="gcircumflex.sc" unicode="&#xe03a;" horiz-adv-x="1030" 
d="M463 1239h-166l186 279h170l189 -279h-166l-107 178zM922 614v-573q-154 -63 -332 -64q-248 0 -379 158t-131 409q0 250 146 410t395 160q141 0 276 -47l-8 -195q-121 64 -261 64t-218 -113t-78 -283t68 -279q68 -110 212 -109q59 0 107 18v279h-146v165h349z" />
    <glyph glyph-name="gdotaccent.sc" unicode="&#xe03b;" horiz-adv-x="1030" 
d="M692 1268h-227v225h227v-225zM922 614v-573q-154 -63 -332 -64q-248 0 -379 158t-131 409q0 250 146 410t395 160q141 0 276 -47l-8 -195q-121 64 -261 64t-218 -113t-78 -283t68 -279q68 -110 212 -109q59 0 107 18v279h-146v165h349z" />
    <glyph glyph-name="gbreve.sc" unicode="&#xe03c;" horiz-adv-x="1030" 
d="M922 614v-573q-154 -63 -332 -64q-248 0 -379 158t-131 409q0 250 146 410t395 160q141 0 276 -47l-8 -195q-121 64 -261 64t-218 -113t-78 -283t68 -279q68 -110 212 -109q59 0 107 18v279h-146v165h349zM319 1511h113q4 -61 44 -99t102 -38t101 38q40 38 44 99h113
q0 -100 -65 -185t-193 -85t-194 85q-65 85 -65 185z" />
    <glyph glyph-name="gcommaaccent.sc" unicode="&#xe03d;" horiz-adv-x="1030" 
d="M557 -463h-141l82 324h209zM922 614v-573q-154 -63 -332 -64q-248 0 -379 158t-131 409q0 250 146 410t395 160q141 0 276 -47l-8 -195q-121 64 -261 64t-218 -113t-78 -283t68 -279q68 -110 212 -109q59 0 107 18v279h-146v165h349z" />
    <glyph glyph-name="hcircumflex.sc" unicode="&#xe03e;" horiz-adv-x="1052" 
d="M418 1239h-166l186 279h170l189 -279h-166l-107 178zM377 0h-240v1094h240v-439h299v439h239v-1094h-239v471h-299v-471z" />
    <glyph glyph-name="hbar.sc" unicode="&#xe03f;" horiz-adv-x="1052" 
d="M377 0h-240v1094h240v-191h299v191h239v-1094h-239v414h-299v-414zM377 766v-178h299v178h-299z" />
    <glyph glyph-name="igrave.sc" unicode="&#xe040;" horiz-adv-x="514" 
d="M377 0h-240v1094h240v-1094zM348 1239h-151l-189 279h189z" />
    <glyph glyph-name="iacute.sc" unicode="&#xe041;" horiz-adv-x="514" 
d="M377 0h-240v1094h240v-1094zM305 1239h-149l151 279h187z" />
    <glyph glyph-name="icircumflex.sc" unicode="&#xe042;" horiz-adv-x="514" 
d="M377 0h-240v1094h240v-1094zM145 1239h-165l186 279h170l188 -279h-166l-106 178z" />
    <glyph glyph-name="itilde.sc" unicode="&#xe043;" horiz-adv-x="514" 
d="M377 0h-240v1094h240v-1094zM82 1255h-121q6 94 49 169t127 75q51 0 126 -43t99 -43t40 31q15 31 16 59h123q0 -88 -45 -167t-127 -79q-49 0 -123 43t-101 43q-27 1 -45 -29t-18 -59z" />
    <glyph glyph-name="idieresis.sc" unicode="&#xe044;" horiz-adv-x="514" 
d="M377 0h-240v1094h240v-1094zM500 1264h-176v225h176v-225zM180 1264h-174v225h174v-225z" />
    <glyph glyph-name="imacron.sc" unicode="&#xe045;" horiz-adv-x="514" 
d="M377 0h-240v1094h240v-1094zM520 1309h-536v141h536v-141z" />
    <glyph glyph-name="idotaccent.sc" unicode="&#xe046;" horiz-adv-x="514" 
d="M373 1268h-228v225h228v-225zM377 0h-240v1094h240v-1094z" />
    <glyph glyph-name="iogonek.sc" unicode="&#xe047;" horiz-adv-x="514" 
d="M277 -410q-87 0 -141 48t-54 120q0 137 182 242h-127v1094h240v-1094h-12q-141 -104 -142 -211q0 -45 27 -72q49 -49 153 -8l25 -90q-63 -29 -151 -29z" />
    <glyph glyph-name="jcircumflex.sc" unicode="&#xe048;" horiz-adv-x="595" 
d="M117 170q111 0 110 164v760h240v-756q0 -360 -301 -361q-74 0 -154 25l11 191q55 -23 94 -23zM225 1239h-166l187 279h170l188 -279h-166l-106 178z" />
    <glyph glyph-name="kcommaaccent.sc" unicode="&#xe049;" horiz-adv-x="972" 
d="M496 -463h-142l82 324h209zM377 0h-240v1094h240v-476l299 476h258l-350 -512l381 -582h-271l-317 516v-516z" />
    <glyph glyph-name="lacute.sc" unicode="&#xe04a;" horiz-adv-x="763" 
d="M340 1239h-150l152 279h186zM729 0h-592v1094h240v-906h352v-188z" />
    <glyph glyph-name="lcaron.sc" unicode="&#xe04b;" horiz-adv-x="763" 
d="M621 903h-140l41 322h191zM729 0h-592v1094h240v-906h352v-188z" />
    <glyph glyph-name="lcommaaccent.sc" unicode="&#xe04c;" horiz-adv-x="763" 
d="M395 -463h-141l82 324h209zM729 0h-592v1094h240v-906h352v-188z" />
    <glyph glyph-name="ldot.sc" unicode="&#xe04d;" horiz-adv-x="763" 
d="M745 516h-227v225h227v-225zM729 0h-592v1094h240v-906h352v-188z" />
    <glyph glyph-name="lslash.sc" unicode="&#xe04e;" horiz-adv-x="763" 
d="M729 0h-592v434l-94 -82v170l94 82v490h240v-326l172 156v-172l-172 -152v-412h352v-188z" />
    <glyph glyph-name="nacute.sc" unicode="&#xe04f;" horiz-adv-x="1101" 
d="M344 0h-207v1094h305l316 -836v836h207v-1094h-301l-320 825v-825zM598 1239h-149l151 279h186z" />
    <glyph glyph-name="ncaron.sc" unicode="&#xe050;" horiz-adv-x="1101" 
d="M344 0h-207v1094h305l316 -836v836h207v-1094h-301l-320 825v-825zM641 1239h-170l-188 279h166l108 -177l105 177h165z" />
    <glyph glyph-name="ntilde.sc" unicode="&#xe051;" horiz-adv-x="1101" 
d="M385 1255h-121q6 94 49 169t127 75q51 0 126 -43t100 -43t40 31t15 59h123q0 -88 -45 -167t-127 -79q-49 0 -123 43q-75 43 -101 43t-45 -29q-18 -30 -18 -59zM344 0h-207v1094h305l316 -836v836h207v-1094h-301l-320 825v-825z" />
    <glyph glyph-name="ncommaaccent.sc" unicode="&#xe052;" horiz-adv-x="1101" 
d="M537 -463h-142l82 324h209zM344 0h-207v1094h305l316 -836v836h207v-1094h-301l-320 825v-825z" />
    <glyph glyph-name="ograve.sc" unicode="&#xe054;" horiz-adv-x="1056" 
d="M623 1239h-152l-188 279h188zM528 1114q164 0 268 -85t143 -206q38 -121 38 -276q0 -240 -112 -405t-337 -165q-125 1 -213 48q-236 135 -235 522q0 239 112 403t336 164zM528 934q-196 0 -196 -388t196 -388t197 389q0 278 -91 352q-42 35 -106 35z" />
    <glyph glyph-name="oacute.sc" unicode="&#xe055;" horiz-adv-x="1056" 
d="M582 1239h-150l152 279h186zM528 1114q164 0 268 -85t143 -206q38 -121 38 -276q0 -240 -112 -405t-337 -165q-125 1 -213 48q-236 135 -235 522q0 239 112 403t336 164zM528 934q-196 0 -196 -388t196 -388t197 389q0 278 -91 352q-42 35 -106 35z" />
    <glyph glyph-name="ocircumflex.sc" unicode="&#xe056;" horiz-adv-x="1056" 
d="M420 1239h-166l186 279h170l189 -279h-166l-107 178zM528 1114q164 0 268 -85t143 -206q38 -121 38 -276q0 -240 -112 -405t-337 -165q-125 1 -213 48q-236 135 -235 522q0 239 112 403t336 164zM528 934q-196 0 -196 -388t196 -388t197 389q0 278 -91 352
q-42 35 -106 35z" />
    <glyph glyph-name="otilde.sc" unicode="&#xe057;" horiz-adv-x="1056" 
d="M358 1255h-120q6 94 49 169t127 75q51 0 126 -43q76 -43 100 -43t39 31t15 59h123q0 -88 -45 -167t-127 -79q-51 0 -125 43t-100 43q-26 1 -44 -29t-18 -59zM528 1114q164 0 268 -85t143 -206q38 -121 38 -276q0 -240 -112 -405t-337 -165q-125 1 -213 48
q-236 135 -235 522q0 239 112 403t336 164zM528 934q-196 0 -196 -388t196 -388t197 389q0 278 -91 352q-42 35 -106 35z" />
    <glyph glyph-name="odieresis.sc" unicode="&#xe058;" horiz-adv-x="1056" 
d="M774 1264h-176v225h176v-225zM455 1264h-174v225h174v-225zM528 1114q164 0 268 -85t143 -206q38 -121 38 -276q0 -240 -112 -405t-337 -165q-125 1 -213 48q-236 135 -235 522q0 239 112 403t336 164zM528 934q-196 0 -196 -388t196 -388t197 389q0 278 -91 352
q-42 35 -106 35z" />
    <glyph glyph-name="omacron.sc" unicode="&#xe059;" horiz-adv-x="1056" 
d="M528 1114q164 0 268 -85t143 -206q38 -121 38 -276q0 -240 -112 -405t-337 -165q-125 1 -213 48q-236 135 -235 522q0 239 112 403t336 164zM528 934q-196 0 -196 -388t196 -388t197 389q0 278 -91 352q-42 35 -106 35zM795 1309h-537v141h537v-141z" />
    <glyph glyph-name="obreve.sc" unicode="&#xe05a;" horiz-adv-x="1056" 
d="M268 1511h113q4 -61 44 -99t101 -38t102 38q40 38 44 99h112q0 -100 -64 -185t-194 -85t-194 85t-64 185zM528 1114q164 0 268 -85t143 -206q38 -121 38 -276q0 -240 -112 -405t-337 -165q-125 1 -213 48q-236 135 -235 522q0 239 112 403t336 164zM528 934
q-196 0 -196 -388t196 -388t197 389q0 278 -91 352q-42 35 -106 35z" />
    <glyph glyph-name="ohungarumlaut.sc" unicode="&#xe05b;" horiz-adv-x="1056" 
d="M528 1114q164 0 268 -85t143 -206q38 -121 38 -276q0 -240 -112 -405t-337 -165q-125 1 -213 48q-236 135 -235 522q0 239 112 403t336 164zM528 934q-196 0 -196 -388t196 -388t197 389q0 278 -91 352q-42 35 -106 35zM739 1239h-149l149 279h189zM424 1239h-152
l150 279h190z" />
    <glyph glyph-name="oslash.sc" unicode="&#xe05c;" horiz-adv-x="1056" 
d="M80 548q0 238 112 402t336 164q180 0 295 -108l111 139l80 -62l-125 -159q88 -145 88 -381t-112 -401t-337 -165q-188 0 -301 113l-104 -133l-80 59l123 154q-86 141 -86 378zM725 547q0 90 -10 160l-342 -435q49 -115 155 -114q197 0 197 389zM342 393l342 434
q-51 106 -156 107q-197 0 -196 -387q0 -93 10 -154z" />
    <glyph glyph-name="oe.sc" unicode="&#xe05d;" horiz-adv-x="1339" 
d="M1262 0h-504q-80 -23 -192 -23q-112 -1 -214 47q-100 48 -157 131q-115 167 -115 393t130 396t376 170q96 0 176 -20h483v-181h-334v-264h310v-172h-310v-297h351v-180zM592 934q-92 0 -152 -57q-110 -103 -108 -330q0 -166 63 -278t197 -111q55 0 98 14v748
q-49 14 -98 14z" />
    <glyph glyph-name="racute.sc" unicode="&#xe05e;" horiz-adv-x="954" 
d="M371 0h-234v1094h379q148 0 244 -76t96 -199t-66 -193t-167 -89q49 -8 86 -44t53 -71t37 -94l106 -328h-239l-101 328q-37 119 -127 118h-67v-446zM371 924v-312h90q156 0 155 160q0 152 -157 152h-88zM506 1239h-150l152 279h186z" />
    <glyph glyph-name="rcommaaccent.sc" unicode="&#xe05f;" horiz-adv-x="954" 
d="M481 -463h-141l82 324h209zM371 0h-234v1094h379q148 0 244 -76t96 -199t-66 -193t-167 -89q49 -8 86 -44t53 -71t37 -94l106 -328h-239l-101 328q-37 119 -127 118h-67v-446zM371 924v-312h90q156 0 155 160q0 152 -157 152h-88z" />
    <glyph glyph-name="rcaron.sc" unicode="&#xe060;" horiz-adv-x="954" 
d="M371 0h-234v1094h379q148 0 244 -76t96 -199t-66 -193t-167 -89q49 -8 86 -44t53 -71t37 -94l106 -328h-239l-101 328q-37 119 -127 118h-67v-446zM371 924v-312h90q156 0 155 160q0 152 -157 152h-88zM549 1239h-170l-189 279h166l109 -177l104 177h166z" />
    <glyph glyph-name="sacute.sc" unicode="&#xe061;" horiz-adv-x="804" 
d="M494 291q0 55 -30 90t-99 72l-99 55q-195 104 -194 303q0 133 102 218t272 85q111 0 248 -37l-10 -198q-106 55 -225 55q-141 0 -142 -111q0 -49 27 -81t84 -64l92 -53q117 -67 168 -131t51 -196t-104 -226t-270 -94t-287 45l10 200q110 -67 258 -67t148 135zM453 1239
h-150l152 279h186z" />
    <glyph glyph-name="scircumflex.sc" unicode="&#xe062;" horiz-adv-x="804" 
d="M293 1239h-166l186 279h170l189 -279h-166l-107 178zM494 291q0 55 -30 90t-99 72l-99 55q-195 104 -194 303q0 133 102 218t272 85q111 0 248 -37l-10 -198q-106 55 -225 55q-141 0 -142 -111q0 -49 27 -81t84 -64l92 -53q117 -67 168 -131t51 -196t-104 -226t-270 -94
t-287 45l10 200q110 -67 258 -67t148 135z" />
    <glyph glyph-name="scaron.sc" unicode="&#xe063;" horiz-adv-x="804" 
d="M494 1239h-170l-189 279h166l109 -177l104 177h166zM494 291q0 55 -30 90t-99 72l-99 55q-195 104 -194 303q0 133 102 218t272 85q111 0 248 -37l-10 -198q-106 55 -225 55q-141 0 -142 -111q0 -49 27 -81t84 -64l92 -53q117 -67 168 -131t51 -196t-104 -226t-270 -94
t-287 45l10 200q110 -67 258 -67t148 135z" />
    <glyph glyph-name="scedilla.sc" unicode="&#xe064;" horiz-adv-x="804" 
d="M494 291q0 55 -30 90t-99 72l-99 55q-195 104 -194 303q0 133 102 218t272 85q111 0 248 -37l-10 -198q-106 55 -225 55q-141 0 -142 -111q0 -49 27 -81t84 -64l92 -53q117 -67 168 -131t51 -188t-79 -212t-214 -110l-71 -95q25 9 80 9t95 -38t40 -109t-65 -116t-173 -45
t-178 39l35 90q80 -35 135 -34q106 0 107 71q0 29 -26 46q-25 18 -65 18t-69 -13l-37 50l92 120q-150 4 -268 46l10 200q110 -67 258 -67t148 135z" />
    <glyph glyph-name="scommaaccent.sc" unicode="&#xe065;" horiz-adv-x="804" 
d="M381 -463h-141l82 324h208zM494 291q0 55 -30 90t-99 72l-99 55q-195 104 -194 303q0 133 102 218t272 85q111 0 248 -37l-10 -198q-106 55 -225 55q-141 0 -142 -111q0 -49 27 -81t84 -64l92 -53q117 -67 168 -131t51 -196t-104 -226t-270 -94t-287 45l10 200
q110 -67 258 -67t148 135z" />
    <glyph glyph-name="germandbls.sc" unicode="&#xe066;" horiz-adv-x="1593" 
d="M494 291q0 55 -30 90t-99 72l-99 55q-195 104 -194 303q0 133 102 218t272 85q111 0 248 -37l-10 -198q-106 55 -225 55q-141 0 -142 -111q0 -49 27 -81t84 -64l92 -53q117 -67 168 -131t51 -196t-104 -226t-270 -94t-287 45l10 200q110 -67 258 -67t148 135zM1282 291
q0 55 -30 90t-99 72l-98 55q-195 104 -195 303q0 133 102 218t273 85q111 0 248 -37l-10 -198q-106 55 -226 55q-141 0 -141 -111q0 -49 27 -81t84 -64l92 -53q117 -67 168 -131t51 -196t-104 -226t-271 -94q-166 0 -287 45l11 200q109 -67 257 -67t148 135z" />
    <glyph glyph-name="tcaron.sc" unicode="&#xe067;" horiz-adv-x="768" 
d="M473 1239h-170l-188 279h166l108 -177l105 177h165zM504 0h-240v905h-239v189h718v-189h-239v-905z" />
    <glyph glyph-name="tcommaaccent.sc" unicode="&#xe068;" horiz-adv-x="768" 
d="M340 -463h-141l82 324h208zM504 0h-240v905h-239v189h718v-189h-239v-905z" />
    <glyph glyph-name="tbar.sc" unicode="&#xe069;" horiz-adv-x="768" 
d="M504 0h-240v555h-170v143h170v207h-239v189h718v-189h-239v-207h172v-143h-172v-555z" />
    <glyph glyph-name="thorn.sc" unicode="&#xe06a;" horiz-adv-x="907" 
d="M375 0h-238v1094h238v-189h102q173 0 275 -88t102 -259t-100 -260t-271 -89h-108v-209zM373 733v-352h84q164 0 164 176t-175 176h-73z" />
    <glyph glyph-name="ugrave.sc" unicode="&#xe06b;" horiz-adv-x="1044" 
d="M629 1239h-152l-188 279h188zM369 1094v-725q-1 -207 153 -207t154 207v725h239v-697q0 -193 -99 -307t-296 -113q-391 0 -391 420v697h240z" />
    <glyph glyph-name="uacute.sc" unicode="&#xe06c;" horiz-adv-x="1044" 
d="M559 1239h-149l151 279h187zM369 1094v-725q-1 -207 153 -207t154 207v725h239v-697q0 -193 -99 -307t-296 -113q-391 0 -391 420v697h240z" />
    <glyph glyph-name="ucircumflex.sc" unicode="&#xe06d;" horiz-adv-x="1044" 
d="M414 1239h-166l186 279h170l189 -279h-166l-107 178zM369 1094v-725q-1 -207 153 -207t154 207v725h239v-697q0 -193 -99 -307t-296 -113q-391 0 -391 420v697h240z" />
    <glyph glyph-name="utilde.sc" unicode="&#xe06e;" horiz-adv-x="1044" 
d="M350 1255h-121q5 94 49 169t128 75q52 0 126 -43t99 -43t40 31t15 59h123q0 -88 -45 -167t-127 -79q-51 0 -125 43t-100 43q-26 1 -44 -29t-18 -59zM369 1094v-725q-1 -207 153 -207t154 207v725h239v-697q0 -193 -99 -307t-296 -113q-391 0 -391 420v697h240z" />
    <glyph glyph-name="udieresis.sc" unicode="&#xe06f;" horiz-adv-x="1044" 
d="M768 1264h-176v225h176v-225zM449 1264h-175v225h175v-225zM369 1094v-725q-1 -207 153 -207t154 207v725h239v-697q0 -193 -99 -307t-296 -113q-391 0 -391 420v697h240z" />
    <glyph glyph-name="umacron.sc" unicode="&#xe070;" horiz-adv-x="1044" 
d="M369 1094v-725q-1 -207 153 -207t154 207v725h239v-697q0 -193 -99 -307t-296 -113q-391 0 -391 420v697h240zM788 1309h-536v141h536v-141z" />
    <glyph glyph-name="ubreve.sc" unicode="&#xe071;" horiz-adv-x="1044" 
d="M262 1511h113q4 -61 44 -99t101 -38t102 38q40 38 44 99h112q0 -100 -64 -185t-194 -85t-194 85t-64 185zM369 1094v-725q-1 -207 153 -207t154 207v725h239v-697q0 -193 -99 -307t-296 -113q-391 0 -391 420v697h240z" />
    <glyph glyph-name="uring.sc" unicode="&#xe072;" horiz-adv-x="1044" 
d="M369 1094v-725q-1 -207 153 -207t154 207v725h239v-697q0 -193 -99 -307t-296 -113q-391 0 -391 420v697h240zM522 1180q-88 0 -146 57t-58 142t58 143q60 58 145 57q85 0 143 -57q58 -58 59 -144q0 -86 -57 -142q-56 -56 -144 -56zM523 1489q-47 0 -79 -33t-32 -79
t32 -77q32 -30 78 -30q47 0 77 30t30 78q0 47 -30 79t-76 32z" />
    <glyph glyph-name="uhungarumlaut.sc" unicode="&#xe073;" horiz-adv-x="1044" 
d="M369 1094v-725q-1 -207 153 -207t154 207v725h239v-697q0 -193 -99 -307t-296 -113q-391 0 -391 420v697h240zM731 1239h-149l149 279h189zM416 1239h-152l150 279h190z" />
    <glyph glyph-name="uogonek.sc" unicode="&#xe074;" horiz-adv-x="1044" 
d="M579 -410q-91 0 -145 48t-55 120q0 117 147 219q-397 0 -397 420v697h240v-725q-1 -207 153 -207t154 207v725h239v-697q0 -330 -260 -401q-135 -106 -135 -207q0 -47 27 -73q53 -51 162 -7l24 -90q-63 -29 -154 -29z" />
    <glyph glyph-name="wcircumflex.sc" unicode="&#xe075;" horiz-adv-x="1366" 
d="M580 1239h-166l186 279h170l188 -279h-165l-107 178zM535 0h-273l-235 1094h243l142 -838l147 838h268l144 -842l143 842h225l-233 -1094h-272l-146 872z" />
    <glyph glyph-name="yacute.sc" unicode="&#xe076;" horiz-adv-x="860" 
d="M471 1239h-149l151 279h186zM551 0h-240v428l-317 666h268l174 -473l168 473h262l-315 -666v-428z" />
    <glyph glyph-name="ycircumflex.sc" unicode="&#xe077;" horiz-adv-x="860" 
d="M324 1239h-166l186 279h170l188 -279h-165l-107 178zM551 0h-240v428l-317 666h268l174 -473l168 473h262l-315 -666v-428z" />
    <glyph glyph-name="ydieresis.sc" unicode="&#xe078;" horiz-adv-x="860" 
d="M678 1264h-176v225h176v-225zM358 1264h-174v225h174v-225zM551 0h-240v428l-317 666h268l174 -473l168 473h262l-315 -666v-428z" />
    <glyph glyph-name="zacute.sc" unicode="&#xe079;" horiz-adv-x="825" 
d="M762 0h-705v180l445 731h-430v183h684v-181l-441 -733h447v-180zM463 1239h-150l152 279h186z" />
    <glyph glyph-name="zcaron.sc" unicode="&#xe07a;" horiz-adv-x="825" 
d="M508 1239h-170l-188 279h165l109 -177l104 177h166zM762 0h-705v180l445 731h-430v183h684v-181l-441 -733h447v-180z" />
    <glyph glyph-name="zdotaccent.sc" unicode="&#xe07b;" horiz-adv-x="825" 
d="M762 0h-705v180l445 731h-430v183h684v-181l-441 -733h447v-180zM537 1268h-228v225h228v-225z" />
    <glyph glyph-name="fi.sc" unicode="&#xe07c;" horiz-adv-x="1302" 
d="M1165 0h-239v1094h239v-1094zM377 0h-240v1094h598v-181h-358v-288h340v-174h-340v-451z" />
    <glyph glyph-name="fl.sc" unicode="&#xe07d;" horiz-adv-x="1552" 
d="M1518 0h-592v1094h239v-906h353v-188zM377 0h-240v1094h598v-181h-358v-288h340v-174h-340v-451z" />
    <glyph glyph-name="ij.sc" unicode="&#xe07e;" horiz-adv-x="1093" 
d="M614 170q111 0 111 164v760h240v-756q0 -360 -301 -361q-74 0 -154 25l10 191q55 -23 94 -23zM377 0h-240v1094h240v-1094z" />
    <glyph glyph-name="exclamdown.sc" unicode="&#xe07f;" horiz-adv-x="497" 
d="M367 0h-238l27 698h184zM365 842h-232v252h232v-252z" />
    <glyph glyph-name="questiondown.sc" unicode="&#xe080;" horiz-adv-x="688" 
d="M283 295q0 -127 168 -127q88 0 170 49l10 -192q-121 -45 -265 -45t-236 72q-93 72 -93 208q0 72 36 133t79 99t78 92q36 55 36 114h213q-1 -74 -31 -133t-67 -92q-100 -89 -98 -178zM487 842h-231v252h231v-252z" />
    <glyph glyph-name="Euro.sc" unicode="&#xe081;" horiz-adv-x="847" 
d="M147 487v117h-114l22 107h105q28 175 136 289t284 114q123 0 208 -43l-34 -172q-57 37 -146 37q-182 0 -219 -225h334l-21 -107h-323q-2 -30 -2 -60t2 -57h303l-20 -106h-273q9 -101 69 -163t146 -62t150 34l10 -182q-90 -31 -180 -31q-182 0 -291 110q-108 110 -135 294
h-125l22 106h92z" />
    <glyph glyph-name="cent.sc" unicode="&#xe082;" horiz-adv-x="847" 
d="M528 0h-118v154q-135 26 -207 136t-72 262t75 256q75 103 204 132v154h118v-144q94 -10 154 -37l-10 -172q-62 39 -144 39t-126 -64t-44 -166q0 -101 43 -168t138 -67q63 0 141 37l10 -170q-82 -33 -162 -35v-147z" />
    <glyph glyph-name="sterling.sc" unicode="&#xe083;" horiz-adv-x="847" 
d="M770 0h-680v160h119v332h-111v155h111v117q0 166 97 258t269 92q102 0 205 -43l-10 -168q-98 41 -171 41t-120 -48t-47 -138v-111h236v-155h-236v-332h338v-160z" />
    <glyph glyph-name="florin.sc" unicode="&#xe084;" horiz-adv-x="847" 
d="M133 496v163h184l33 146q35 161 101 235t165 74t160 -27l-14 -165q-43 18 -80 18q-76 0 -111 -160l-26 -121h147v-163h-180l-109 -514q-41 -188 -107 -270q-67 -80 -162 -80t-154 20l14 168q87 -45 133 24q27 41 49 142l109 510h-152z" />
    <glyph glyph-name="yen.sc" unicode="&#xe085;" horiz-adv-x="847" 
d="M537 0h-228v236h-213v104h213v119h-213v100h180l-245 535h231l170 -439l158 439h227l-248 -535h185v-100h-217v-119h217v-104h-217v-236z" />
    <glyph glyph-name="ordfeminine.sc" unicode="&#xe086;" horiz-adv-x="614" 
d="M205 608h-166l170 492h205l161 -492h-167l-27 94h-150zM305 1006l-55 -205h112z" />
    <glyph glyph-name="perthousand.sc" unicode="&#xe087;" horiz-adv-x="1912" 
d="M336 434q-230 0 -230 340q0 152 58 246t174 94q233 0 233 -340q0 -154 -59 -247t-176 -93zM336 553q42 0 62 50q19 50 20 171q0 221 -82 221q-41 0 -58 -50q-18 -50 -18 -169t16 -174q18 -49 60 -49zM807 317q0 152 57 246t174 94q233 0 234 -340q0 -155 -60 -247
t-176 -93q-229 0 -229 340zM1037 96q42 0 62 50q19 50 19 171q0 221 -82 222q-41 -1 -58 -51t-17 -169t16 -174q18 -49 60 -49zM1343 317q-1 152 57 246t175 94q233 0 233 -340q0 -155 -59 -247t-176 -93q-230 0 -230 340zM1574 96q42 0 61 50t20 171q0 221 -82 222
q-41 -1 -59 -51t-17 -169q0 -119 16 -174q19 -49 61 -49zM506 -39h-129l491 1174h129z" />
    <glyph glyph-name="dotlessj.sc" unicode="&#xe090;" horiz-adv-x="595" 
d="M117 170q111 0 110 164v760h240v-756q0 -360 -301 -361q-74 0 -154 25l11 191q55 -23 94 -23z" />
    <glyph glyph-name="zero.onum" unicode="&#xe100;" horiz-adv-x="995" 
d="M502 1137q206 -1 314 -149t108 -426t-110 -431q-110 -154 -318 -154q-207 0 -316 150q-108 150 -108 425t111 430q112 155 319 155zM498 164q182 0 182 393t-182 393t-183 -395q0 -185 41 -289q43 -102 142 -102z" />
    <glyph glyph-name="one.onum" unicode="&#xe101;" horiz-adv-x="995" 
d="M670 0h-248v922h-232v194h480v-1116z" />
    <glyph glyph-name="two.onum" unicode="&#xe102;" horiz-adv-x="995" 
d="M817 0h-674v184q242 248 325 363t83 215q0 186 -152 186q-100 0 -223 -57l-6 190q133 55 295 55t252 -87q90 -88 90 -244t-83 -281t-304 -346h397v-178z" />
    <glyph glyph-name="three.onum" unicode="&#xe103;" horiz-adv-x="995" 
d="M221 -141q158 0 247 82t89 225q0 207 -227 207h-84v182h76q112 0 166 59q54 60 54 152t-43 138q-44 46 -132 46t-209 -53l-8 188q134 51 288 51t255 -84q101 -85 102 -249q0 -121 -67 -206t-181 -114q125 -16 195 -96t71 -213q-1 -221 -151 -362t-410 -142q-82 0 -115 6
l-12 189q49 -6 96 -6z" />
    <glyph glyph-name="four.onum" unicode="&#xe104;" horiz-adv-x="995" 
d="M571 0h-489v193l346 923h215l-354 -930h284v562h213v-562h138v-186h-136v-326h-217v326z" />
    <glyph glyph-name="five.onum" unicode="&#xe105;" horiz-adv-x="995" 
d="M264 -141q160 0 248 85t88 236q0 106 -55 171t-155 65t-204 -27l15 727h610v-182h-395l-13 -365q39 6 97 6q174 0 265 -100t91 -289q0 -229 -150 -372t-411 -144q-80 0 -115 6l-12 189q49 -6 96 -6z" />
    <glyph glyph-name="six.onum" unicode="&#xe106;" horiz-adv-x="995" 
d="M692 1253q-176 0 -270 -140t-98 -357q98 139 250 139t238 -115q87 -114 87 -332t-108 -345q-109 -126 -281 -126q-406 0 -406 623q0 385 155 612t435 228q66 0 105 -6v-189q-43 8 -107 8zM510 717q-170 0 -170 -281t164 -280q164 0 164 280t-158 281z" />
    <glyph glyph-name="seven.onum" unicode="&#xe107;" horiz-adv-x="995" 
d="M117 922v194h727v-194q-296 -695 -441 -1252l-239 23q147 561 448 1229h-495z" />
    <glyph glyph-name="eight.onum" unicode="&#xe108;" horiz-adv-x="995" 
d="M123 1053q0 170 106 271q107 101 271 101t272 -91t107 -273q1 -119 -59 -205t-156 -127q246 -106 245 -362q0 -180 -112 -285q-113 -104 -298 -104t-299 98q-114 100 -114 284q0 140 68 231t178 136q-209 104 -209 326zM350 1044q0 -180 154 -237q78 25 112 82t33 154
q0 97 -41 151q-40 54 -108 55q-68 -1 -109 -55t-41 -150zM324 391q0 -109 47 -172t130 -63t128 62t45 166t-39 169q-37 72 -137 104q-174 -43 -174 -266z" />
    <glyph glyph-name="nine.onum" unicode="&#xe109;" horiz-adv-x="995" 
d="M305 -143q176 0 269 137t102 362q-100 -139 -252 -139t-239 114q-87 115 -87 333t110 346t281 127q403 0 404 -625q0 -398 -152 -620t-436 -222q-67 0 -106 6v189q47 -8 106 -8zM330 676q0 -282 159 -281q170 0 170 282t-165 281q-164 0 -164 -282z" />
    <glyph glyph-name="zero.sc" unicode="&#xe10a;" horiz-adv-x="847" 
d="M70 547q0 259 86 413t266 154q356 0 356 -567q0 -264 -90 -417t-266 -153q-98 0 -168 41q-184 117 -184 529zM424 152q68 0 94 90t27 303q0 213 -27 303q-26 90 -96 90t-94 -88t-25 -302q0 -214 25 -306q28 -90 96 -90z" />
    <glyph glyph-name="one.sc" unicode="&#xe10b;" horiz-adv-x="847" 
d="M594 0h-234v821l-157 -145l-111 162l314 256h188v-1094z" />
    <glyph glyph-name="two.sc" unicode="&#xe10c;" horiz-adv-x="847" 
d="M487 771q1 159 -161 159q-80 0 -207 -64l-10 187q160 61 302 61t230 -85t88 -221q1 -136 -67 -249t-222 -280l-96 -103h395v-176h-659v170l162 180q129 146 187 242t58 179z" />
    <glyph glyph-name="three.sc" unicode="&#xe10d;" horiz-adv-x="849" 
d="M496 805q0 129 -181 129q-89 0 -202 -53l-11 184q143 49 290 49t244 -78t97 -207q0 -199 -217 -256q94 -12 160 -85t65 -179q-1 -155 -111 -243t-315 -89q-132 0 -241 41l10 187q131 -49 224 -49t144 44q50 44 50 124t-60 120t-157 39h-70v168h68q213 0 213 154z" />
    <glyph glyph-name="four.sc" unicode="&#xe10e;" horiz-adv-x="847" 
d="M453 219h-408v203l375 672h258v-705h117v-170h-117v-219h-225v219zM461 389v465l-260 -465h260z" />
    <glyph glyph-name="five.sc" unicode="&#xe10f;" horiz-adv-x="847" 
d="M320 158q96 0 148 50t52 140q0 188 -211 189q-66 0 -188 -35l10 592h578v-181h-377l-4 -231q47 12 98 12q162 0 248 -92t86 -254t-109 -266t-273 -104t-284 47l10 182q120 -49 216 -49z" />
    <glyph glyph-name="six.sc" unicode="&#xe110;" horiz-adv-x="847" 
d="M535 934q-219 0 -240 -330q70 94 186 94q150 0 225 -98q74 -98 74 -256t-95 -262t-255 -105q-354 0 -354 523q0 228 87 404q46 94 134 152q89 58 209 58t229 -39l-8 -186q-104 45 -192 45zM557 348q0 182 -127 182q-63 0 -94 -51t-31 -133t30 -140t93 -58t96 58t33 142z
" />
    <glyph glyph-name="seven.sc" unicode="&#xe111;" horiz-adv-x="847" 
d="M86 903v191h657v-189l-331 -905h-254l354 903h-426z" />
    <glyph glyph-name="eight.sc" unicode="&#xe112;" horiz-adv-x="847" 
d="M92 829q0 125 95 205t235 80t236 -76q97 -76 98 -207q0 -158 -191 -258q219 -92 219 -286q0 -143 -103 -227t-261 -83q-158 0 -258 82t-101 228q2 179 215 286q-184 88 -184 256zM283 299q0 -68 40 -111t100 -43t99 42t39 113t-45 117t-104 77q-129 -74 -129 -195z
M545 817q0 55 -35 91t-87 36t-86 -35t-34 -97t37 -98t96 -67q109 76 109 170z" />
    <glyph glyph-name="nine.sc" unicode="&#xe113;" horiz-adv-x="847" 
d="M324 156q121 0 174 96t53 237q-66 -94 -200 -94q-134 -1 -211 101t-77 256q1 154 97 258t254 104q104 0 179 -46t112 -126q67 -145 67 -358q0 -214 -80 -394q-43 -98 -130 -155q-88 -57 -210 -57t-233 36l8 187q109 -45 197 -45zM416 563q123 0 123 191t-123 190
q-127 0 -127 -192q-1 -77 28 -134q31 -55 99 -55z" />
    <glyph glyph-name="zero.prop" unicode="&#xe11e;" horiz-adv-x="995" 
d="M494 162q56 0 90 33q35 33 52 77q42 110 42 411t-42 408q-17 47 -52 79t-89 32q-55 0 -93 -44t-59 -149t-24 -327q0 -369 82 -475q37 -45 93 -45zM82 682q0 246 74 450q41 116 129 186t215 68q416 0 415 -704q0 -206 -36 -338q-35 -132 -79 -202q-44 -72 -121 -118
t-175 -46t-164 32q-258 129 -258 672z" />
    <glyph glyph-name="one.prop" unicode="&#xe11f;" horiz-adv-x="772" 
d="M578 0h-244v1083l-176 -180l-117 174l334 289h203v-1366z" />
    <glyph glyph-name="two.prop" unicode="&#xe120;" horiz-adv-x="995" 
d="M864 0h-768v190l125 146q288 335 348 494q33 85 33 172q0 86 -51 140t-149 54t-257 -82l-12 197q176 75 348 75q171 0 271 -104t100 -268q0 -299 -338 -660l-149 -164h499v-190z" />
    <glyph glyph-name="three.prop" unicode="&#xe121;" horiz-adv-x="995" 
d="M608 1022q0 174 -235 174q-109 0 -240 -68l-12 197q152 61 328 61q177 0 291 -89t114 -259q0 -114 -69 -198t-195 -115q118 -18 196 -104t78 -232q0 -184 -126 -298t-369 -114q-57 1 -147 17t-136 39l12 203q130 -68 256 -68t194 61t68 171t-78 167q-79 57 -208 58h-74
v186h74q279 0 278 211z" />
    <glyph glyph-name="four.prop" unicode="&#xe122;" horiz-adv-x="995" 
d="M575 467v655l-348 -655h348zM567 283h-506v227l465 856h277v-899h139v-184h-139v-283h-236v283z" />
    <glyph glyph-name="five.prop" unicode="&#xe123;" horiz-adv-x="995" 
d="M379 168q121 0 193 69t71 195q0 126 -72 194q-72 66 -189 66t-235 -37l17 711h663v-190h-448l-10 -322q55 18 120 18q197 0 301 -117q103 -118 103 -322t-133 -330t-359 -126q-173 1 -284 60l14 199q127 -68 248 -68z" />
    <glyph glyph-name="six.prop" unicode="&#xe124;" horiz-adv-x="995" 
d="M506 162q92 0 136 85t44 186t-41 176t-132 75t-133 -78t-42 -176t33 -172q43 -96 135 -96zM633 1196q-291 0 -314 -475q86 147 255 147q170 0 260 -124t90 -316t-114 -322q-114 -129 -300 -129q-418 0 -418 639q0 275 101 504q53 121 157 194q104 72 242 72t274 -47
l-12 -198q-117 55 -221 55z" />
    <glyph glyph-name="seven.prop" unicode="&#xe125;" horiz-adv-x="870" 
d="M35 1176v190h766v-201l-408 -1165h-262l430 1176h-526z" />
    <glyph glyph-name="eight.prop" unicode="&#xe126;" horiz-adv-x="995" 
d="M311 368q0 -90 50 -148q49 -58 135 -58t138 59t52 146q0 135 -127 219q-49 33 -76 49q-80 -55 -126 -117t-46 -150zM498 1202q-72 0 -117 -50t-45 -120q-1 -118 108 -198q45 -29 70 -41q147 102 148 239q0 72 -46 121t-118 49zM111 1047q-1 159 113 249t275 90t275 -91
t113 -248q0 -209 -228 -332q121 -63 193 -147t72 -212q0 -174 -122 -276t-306 -102t-303 102t-119 280t159 289q53 39 99 66q-113 55 -167 134t-54 198z" />
    <glyph glyph-name="nine.prop" unicode="&#xe127;" horiz-adv-x="995" 
d="M492 1204q-96 0 -138 -80t-41 -183q0 -103 42 -182q41 -79 133 -79t133 78t41 158t-12 136t-54 104q-41 48 -104 48zM383 170q285 0 299 475q-38 -69 -104 -109t-144 -40q-174 0 -266 128t-92 315t113 318q114 131 300 132q99 0 177 -40q78 -39 122 -101
q122 -169 123 -496q0 -232 -44 -374t-96 -220t-142 -128q-91 -50 -221 -50t-265 47l13 200q131 -57 227 -57z" />
    <glyph glyph-name="zero.scprop" unicode="&#xe128;" horiz-adv-x="847" 
d="M70 547q0 259 86 413t266 154q356 0 356 -567q0 -264 -90 -417t-266 -153q-98 0 -168 41q-184 117 -184 529zM424 152q68 0 94 90t27 303q0 213 -27 303q-26 90 -96 90t-94 -88t-25 -302q0 -214 25 -306q28 -90 96 -90z" />
    <glyph glyph-name="one.scprop" unicode="&#xe129;" horiz-adv-x="655" 
d="M516 0h-233v821l-158 -145l-111 162l314 256h188v-1094z" />
    <glyph glyph-name="two.scprop" unicode="&#xe12a;" horiz-adv-x="847" 
d="M487 771q1 159 -161 159q-80 0 -207 -64l-10 187q160 61 302 61t230 -85t88 -221q1 -136 -67 -249t-222 -280l-96 -103h395v-176h-659v170l162 180q129 146 187 242t58 179z" />
    <glyph glyph-name="three.scprop" unicode="&#xe12b;" horiz-adv-x="849" 
d="M496 805q0 129 -181 129q-89 0 -202 -53l-11 184q143 49 290 49t244 -78t97 -207q0 -199 -217 -256q94 -12 160 -85t65 -179q-1 -155 -111 -243t-315 -89q-132 0 -241 41l10 187q131 -49 224 -49t144 44q50 44 50 124t-60 120t-157 39h-70v168h68q213 0 213 154z" />
    <glyph glyph-name="four.scprop" unicode="&#xe12c;" horiz-adv-x="847" 
d="M453 219h-408v203l375 672h258v-705h117v-170h-117v-219h-225v219zM461 389v465l-260 -465h260z" />
    <glyph glyph-name="five.scprop" unicode="&#xe12d;" horiz-adv-x="847" 
d="M320 158q96 0 148 50t52 140q0 188 -211 189q-66 0 -188 -35l10 592h578v-181h-377l-4 -231q47 12 98 12q162 0 248 -92t86 -254t-109 -266t-273 -104t-284 47l10 182q120 -49 216 -49z" />
    <glyph glyph-name="six.scprop" unicode="&#xe12e;" horiz-adv-x="847" 
d="M535 934q-219 0 -240 -330q70 94 186 94q150 0 225 -98q74 -98 74 -256t-95 -262t-255 -105q-354 0 -354 523q0 228 87 404q46 94 134 152q89 58 209 58t229 -39l-8 -186q-104 45 -192 45zM557 348q0 182 -127 182q-63 0 -94 -51t-31 -133t30 -140t93 -58t96 58t33 142z
" />
    <glyph glyph-name="seven.scprop" unicode="&#xe12f;" horiz-adv-x="720" 
d="M12 903v191h658v-189l-332 -905h-254l354 903h-426z" />
    <glyph glyph-name="eight.scprop" unicode="&#xe130;" horiz-adv-x="847" 
d="M92 829q0 125 95 205t235 80t236 -76q97 -76 98 -207q0 -158 -191 -258q219 -92 219 -286q0 -143 -103 -227t-261 -83q-158 0 -258 82t-101 228q2 179 215 286q-184 88 -184 256zM283 299q0 -68 40 -111t100 -43t99 42t39 113t-45 117t-104 77q-129 -74 -129 -195z
M545 817q0 55 -35 91t-87 36t-86 -35t-34 -97t37 -98t96 -67q109 76 109 170z" />
    <glyph glyph-name="nine.scprop" unicode="&#xe131;" horiz-adv-x="847" 
d="M324 156q121 0 174 96t53 237q-66 -94 -200 -94q-134 -1 -211 101t-77 256q1 154 97 258t254 104q104 0 179 -46t112 -126q67 -145 67 -358q0 -214 -80 -394q-43 -98 -130 -155q-88 -57 -210 -57t-233 36l8 187q109 -45 197 -45zM416 563q123 0 123 191t-123 190
q-127 0 -127 -192q-1 -77 28 -134q31 -55 99 -55z" />
    <glyph glyph-name="zero.onumprop" unicode="&#xe132;" horiz-adv-x="1081" 
d="M80 555q0 268 127 425t339 157t334 -152t122 -423t-126 -428q-124 -157 -335 -157q-271 0 -390 238q-71 139 -71 340zM541 164q205 0 205 393t-205 393q-101 0 -153 -102t-52 -292t52 -291t153 -101z" />
    <glyph glyph-name="one.onumprop" unicode="&#xe133;" horiz-adv-x="706" 
d="M524 0h-248v922h-231v194h479v-1116z" />
    <glyph glyph-name="two.onumprop" unicode="&#xe134;" horiz-adv-x="839" 
d="M737 0h-674v184q242 248 325 363t83 215q0 186 -152 186q-102 0 -223 -57l-6 190q133 55 295 55t252 -87q90 -88 90 -244t-83 -281t-304 -346h397v-178z" />
    <glyph glyph-name="three.onumprop" unicode="&#xe135;" horiz-adv-x="802" 
d="M442 766q0 184 -176 184q-88 0 -209 -53l-8 188q133 51 288 51t256 -84q101 -85 101 -249q0 -121 -66 -206t-182 -114q125 -16 196 -96t71 -213q0 -221 -151 -362t-410 -142q-82 0 -115 6l-12 189q49 -6 96 -6q158 0 247 82t89 225q0 207 -228 207h-84v182h76
q111 0 166 59q55 60 55 152z" />
    <glyph glyph-name="four.onumprop" unicode="&#xe136;" horiz-adv-x="954" 
d="M549 0h-490v193l347 923h215l-355 -930h285v562h213v-562h137v-186h-135v-326h-217v326z" />
    <glyph glyph-name="five.onumprop" unicode="&#xe137;" horiz-adv-x="894" 
d="M213 -141q160 0 248 85t88 236q0 106 -55 171q-54 65 -154 65t-205 -27l15 727h610v-182h-395l-13 -365q39 6 97 6q174 0 265 -100t91 -289q0 -229 -151 -372t-410 -144q-80 0 -115 6l-12 189q49 -6 96 -6z" />
    <glyph glyph-name="six.onumprop" unicode="&#xe138;" horiz-adv-x="987" 
d="M686 1251q-174 0 -272 -142t-103 -353q98 139 256 139t249 -115q91 -116 91 -332t-115 -344q-116 -127 -290 -127q-418 0 -418 619q0 381 162 612t442 232q70 0 111 -6v-191q-43 8 -113 8zM676 436q0 280 -168 281q-86 0 -133 -72t-47 -205t45 -209t129 -75
q174 0 174 280z" />
    <glyph glyph-name="seven.onumprop" unicode="&#xe139;" horiz-adv-x="843" 
d="M39 922v194h727v-194q-295 -695 -440 -1252l-240 23q147 561 449 1229h-496z" />
    <glyph glyph-name="eight.onumprop" unicode="&#xe13a;" horiz-adv-x="1026" 
d="M125 1053q0 170 112 271q111 101 277 101t279 -92t112 -272q0 -117 -61 -204t-160 -128q127 -55 189 -140t63 -222q0 -177 -118 -283t-305 -106t-305 98q-118 100 -118 284q0 140 71 232t179 135q-215 109 -215 326zM360 1044q0 -178 158 -237q82 25 116 82t34 154
t-43 151t-111 55q-68 -1 -111 -55t-43 -150zM334 391q0 -109 48 -172t133 -63t131 62t46 166t-39 171q-39 68 -141 102q-178 -43 -178 -266z" />
    <glyph glyph-name="nine.onumprop" unicode="&#xe13b;" horiz-adv-x="987" 
d="M301 -143q178 0 272 137t103 362q-98 -139 -256 -139t-248 114q-90 113 -90 331t115 346t288 129q418 0 418 -625q0 -395 -159 -618t-443 -224q-72 0 -113 6v189q47 -8 113 -8zM313 676q0 -282 168 -281q86 0 132 72t46 204t-45 210t-129 77q-172 0 -172 -282z" />
    <glyph glyph-name="one.numerator" unicode="&#xe13c;" horiz-adv-x="716" 
d="M489 549h-172v633l-124 -107l-84 117l241 182h139v-825z" />
    <glyph glyph-name="two.numerator" unicode="&#xe13d;" horiz-adv-x="716" 
d="M596 549h-498v131l117 129q101 109 151 185t50 140q0 126 -125 123q-61 0 -162 -45l-8 131q109 43 225 43t182 -63t66 -166q0 -178 -215 -393l-86 -86h303v-129z" />
    <glyph glyph-name="three.numerator" unicode="&#xe13e;" horiz-adv-x="716" 
d="M416 1155q0 105 -144 103q-70 0 -151 -37l-6 133q96 32 212 32q115 0 189 -56t74 -163q0 -139 -158 -186q68 -14 117 -63t49 -147q0 -97 -81 -167t-241 -69q-108 -1 -184 30l8 135q90 -34 165 -34t116 32t41 93q0 121 -176 120h-43v129h43q170 0 170 115z" />
    <glyph glyph-name="four.numerator" unicode="&#xe13f;" horiz-adv-x="716" 
d="M397 713h-327v153l301 508h190v-534h90v-127h-90v-164h-164v164zM403 840v366l-210 -366h210z" />
    <glyph glyph-name="five.numerator" unicode="&#xe140;" horiz-adv-x="716" 
d="M420 820q0 68 -44 103q-77 63 -247 13l8 438h436v-131h-286l-4 -168q37 6 73 6q127 -1 193 -69q65 -68 65 -193t-88 -205t-206 -80t-214 33l11 133q189 -77 265 9q38 43 38 111z" />
    <glyph glyph-name="six.numerator" unicode="&#xe141;" horiz-adv-x="716" 
d="M419 1079q104 -1 160 -75t56 -194t-74 -198t-194 -77q-274 0 -275 391q0 170 69 306q36 71 104 113q69 42 163 42t168 -25l-8 -133q-74 29 -139 28q-182 0 -195 -266q61 88 165 88zM367 952q-100 0 -99 -145t97 -145q55 0 79 47t23 104q0 139 -100 139z" />
    <glyph glyph-name="seven.numerator" unicode="&#xe142;" horiz-adv-x="716" 
d="M104 1245v129h498v-131l-254 -694h-186l270 696h-328z" />
    <glyph glyph-name="eight.numerator" unicode="&#xe143;" horiz-adv-x="716" 
d="M359 1386q105 0 181 -55t74 -153q0 -125 -141 -195q166 -78 166 -219q0 -106 -81 -168t-201 -61q-121 0 -201 60q-80 61 -80 155t53 148t113 85q-141 59 -142 195q0 98 77 153t182 55zM455 1169q0 39 -25 65t-71 26q-45 0 -71 -27t-26 -71t27 -71q27 -28 80 -55
q86 51 86 133zM248 770q0 -45 30 -77q30 -31 80 -31t81 32q30 32 30 84q0 53 -34 87t-87 61q-100 -57 -100 -156z" />
    <glyph glyph-name="nine.numerator" unicode="&#xe144;" horiz-adv-x="716" 
d="M305 844q-105 0 -164 77t-59 191t75 196q75 81 195 81q150 0 213 -115q63 -114 63 -252t-26 -235q-28 -97 -106 -174t-188 -77t-183 25l8 133q61 -27 139 -26q180 0 193 264q-55 -88 -160 -88zM352 971q100 -1 100 145t-98 146q-55 0 -79 -48q-23 -48 -23 -104
q0 -57 18 -92q29 -47 82 -47z" />
    <glyph glyph-name="zero.numerator" unicode="&#xe145;" horiz-adv-x="716" 
d="M84 963q0 180 63 302t209 121q276 0 277 -423q0 -185 -65 -307t-210 -121q-84 -1 -137 34q-137 96 -137 394zM461 961q0 155 -24 227t-80 72q-57 0 -79 -71t-22 -223t23 -231q20 -73 78 -73t81 72t23 227z" />
    <glyph glyph-name="one.denominator" unicode="&#xe146;" horiz-adv-x="716" 
d="M489 0h-172v633l-124 -107l-84 117l241 182h139v-825z" />
    <glyph glyph-name="two.denominator" unicode="&#xe147;" horiz-adv-x="716" 
d="M596 0h-498v131l117 129q101 110 151 186t50 138q0 124 -125 125q-61 0 -162 -45l-8 131q109 43 225 43t182 -64t66 -166q0 -178 -215 -393l-86 -86h303v-129z" />
    <glyph glyph-name="three.denominator" unicode="&#xe148;" horiz-adv-x="716" 
d="M416 606q0 103 -144 103q-70 0 -151 -37l-6 133q96 33 212 33q115 0 189 -56t74 -164q0 -139 -158 -186q68 -14 117 -63t49 -147t-81 -167q-81 -70 -241 -69q-108 -1 -184 30l8 136q90 -35 165 -35t116 33t41 92q0 121 -176 120h-43v130h43q170 0 170 114z" />
    <glyph glyph-name="four.denominator" unicode="&#xe149;" horiz-adv-x="716" 
d="M397 164h-327v153l301 508h190v-534h90v-127h-90v-164h-164v164zM403 291v366l-210 -366h210z" />
    <glyph glyph-name="five.denominator" unicode="&#xe14a;" horiz-adv-x="716" 
d="M274 117q70 0 108 43q38 42 38 110t-44 104t-108 36t-139 -23l8 438h436v-131h-286l-4 -168q37 6 73 6q127 0 193 -68q65 -68 65 -194q0 -124 -88 -204t-206 -80t-214 32l11 134q87 -35 157 -35z" />
    <glyph glyph-name="six.denominator" unicode="&#xe14b;" horiz-adv-x="716" 
d="M449 709q-182 0 -195 -267q61 88 165 88t160 -74t56 -195q0 -120 -74 -198t-194 -77q-274 0 -275 391q0 172 69 306q36 71 104 113q69 42 163 42t168 -25l-8 -133q-74 29 -139 29zM367 403q-100 0 -99 -145t97 -145q55 0 79 47t23 104q0 139 -100 139z" />
    <glyph glyph-name="seven.denominator" unicode="&#xe14c;" horiz-adv-x="716" 
d="M104 696v129h498v-131l-254 -694h-186l270 696h-328z" />
    <glyph glyph-name="eight.denominator" unicode="&#xe14d;" horiz-adv-x="716" 
d="M639 215q0 -105 -81 -167t-201 -62q-121 0 -201 60t-80 154t53 149q53 54 113 85q-141 59 -142 195q0 98 77 153q77 56 182 56t181 -56t74 -153q0 -125 -141 -195q166 -78 166 -219zM455 621q0 39 -25 65t-71 25q-45 0 -71 -27q-26 -26 -26 -70t27 -72t80 -55
q86 51 86 134zM248 221q0 -45 30 -77t80 -32t81 32q30 32 30 85t-34 87t-87 61q-100 -57 -100 -156z" />
    <glyph glyph-name="nine.denominator" unicode="&#xe14e;" horiz-adv-x="716" 
d="M305 295q-105 0 -164 77q-59 78 -59 192t75 195t195 81q150 0 213 -115t63 -252t-26 -234q-28 -97 -106 -174t-188 -77t-183 24l8 133q61 -27 139 -26q180 0 193 264q-55 -88 -160 -88zM352 422q100 0 100 146t-98 145q-55 0 -79 -47q-23 -46 -23 -104t18 -93
q29 -47 82 -47z" />
    <glyph glyph-name="zero.denominator" unicode="&#xe14f;" horiz-adv-x="716" 
d="M84 414q0 180 63 302t209 122q276 0 277 -424q0 -186 -65 -308t-210 -120q-84 -1 -137 34q-137 96 -137 394zM461 412q0 156 -24 228t-80 71q-57 0 -79 -71q-22 -70 -22 -222t23 -232q20 -74 78 -74t81 72t23 228z" />
    <glyph glyph-name="parenleft.inferior" unicode="&#xe192;" horiz-adv-x="391" 
d="M74 31q0 254 174 522h133q-154 -237 -154 -523t154 -522h-133q-84 135 -129 254t-45 269z" />
    <glyph glyph-name="parenright.inferior" unicode="&#xe193;" horiz-adv-x="391" 
d="M166 31q0 287 -154 522h133q84 -133 129 -253t45 -270t-44 -269q-44 -120 -130 -253h-133q154 236 154 523z" />
    <glyph glyph-name="equal.inferior" unicode="&#xe196;" horiz-adv-x="716" 
d="M680 45h-645v127h645v-127zM680 -213h-645v127h645v-127z" />
    <glyph glyph-name="a.superior" unicode="&#xe19f;" horiz-adv-x="649" 
d="M231 535q-88 0 -140 52t-52 134q0 113 96 165t225 52h48v23q0 109 -117 108q-90 0 -182 -51l-9 129q111 39 222 39q248 0 247 -219v-279q0 -22 6 -139h-161l-6 86q-61 -100 -177 -100zM203 733q0 -82 96 -82q51 0 80 45t29 107v41h-23q-182 0 -182 -111z" />
    <glyph glyph-name="b.superior" unicode="&#xe1a0;" horiz-adv-x="694" 
d="M78 549v893h172v-361q59 105 177 105t169 -95t51 -223t-55 -230q-55 -103 -175 -103t-175 104l-4 -90h-160zM358 659q108 0 108 201t-108 201t-108 -201t108 -201z" />
    <glyph glyph-name="d.superior" unicode="&#xe1a2;" horiz-adv-x="694" 
d="M274 535q-82 0 -136 57q-89 94 -90 274t88 267q54 53 138 53q111 0 170 -103v359h170v-744q0 -114 4 -149h-163l-4 92q-57 -106 -177 -106zM334 659q109 0 108 207q0 74 -23 134q-24 60 -85 61q-109 0 -109 -195q0 -125 51 -184q23 -23 58 -23z" />
    <glyph glyph-name="e.superior" unicode="&#xe1a3;" horiz-adv-x="618" 
d="M580 821h-369q2 -74 42 -121t127 -47t165 43l6 -129q-92 -33 -193 -32q-158 0 -236 90t-77 229q0 140 73 236q74 96 206 96t194 -84t62 -213v-68zM211 915h211q-4 158 -100 158q-51 -1 -81 -51t-30 -107z" />
    <glyph glyph-name="h.superior" unicode="&#xe1a6;" horiz-adv-x="679" 
d="M600 549h-172v409q0 96 -82 97q-49 0 -73 -41t-23 -92v-373h-172v893h172v-363q20 45 66 76t98 31q186 0 186 -213v-424z" />
    <glyph glyph-name="l.superior" unicode="&#xe1a9;" horiz-adv-x="329" 
d="M250 549h-172v893h172v-893z" />
    <glyph glyph-name="m.superior" unicode="&#xe1aa;" horiz-adv-x="1005" 
d="M248 549h-170v524q0 70 -4 101h157l5 -95q51 102 163 103q59 0 107 -25t63 -76q66 105 165 105q100 0 146 -58t46 -153v-426h-170v403q0 102 -78 103q-43 0 -68 -37t-24 -80v-389h-168v403q0 102 -78 103q-43 0 -68 -37t-24 -80v-389z" />
    <glyph glyph-name="o.superior" unicode="&#xe1ab;" horiz-adv-x="675" 
d="M47 864q0 134 78 228t217 94t213 -91t74 -229t-76 -235q-76 -96 -215 -96q-78 -1 -131 26q-160 78 -160 303zM338 1061q-69 0 -91 -68t-22 -129q3 -205 113 -205q106 0 113 205q0 197 -113 197z" />
    <glyph glyph-name="r.superior" unicode="&#xe1ae;" horiz-adv-x="454" 
d="M250 549h-172v477q0 76 -2 148h155l5 -107q57 119 172 119q16 0 30 -2l-8 -154q-29 4 -49 4q-71 0 -101 -55t-30 -129v-301z" />
    <glyph glyph-name="s.superior" unicode="&#xe1af;" horiz-adv-x="536" 
d="M49 999q0 91 78 139t171 48t167 -25l-8 -133q-80 33 -158 33t-78 -55q0 -29 22 -45t88 -43t101 -54q62 -47 63 -136t-67 -141q-68 -53 -178 -53t-207 33l12 138q84 -45 176 -45t93 61q0 43 -91 80q-111 53 -145 90q-39 47 -39 108z" />
    <glyph glyph-name="t.superior" unicode="&#xe1b0;" horiz-adv-x="450" 
d="M289 1044v-307q0 -74 65 -73q29 0 60 12q6 -37 10 -119q-59 -23 -131 -22q-174 0 -174 194v315h-92v130h98v126l164 50v-176h127v-130h-127z" />
    <glyph glyph-name="n.superior" unicode="&#xe1da;" horiz-adv-x="681" 
d="M250 549h-172v500q0 88 -4 125h157l5 -95q59 106 176 107q190 0 190 -223v-414h-170v403q0 43 -21 73q-22 30 -67 30t-70 -35t-24 -82v-389z" />
    <glyph glyph-name="period.superior" unicode="&#xe1dc;" horiz-adv-x="364" 
d="M258 549h-152v168h152v-168z" />
    <glyph glyph-name="parenleft.superior" unicode="&#xe1df;" horiz-adv-x="391" 
d="M74 1128q0 254 174 523h133q-154 -237 -154 -523t154 -522h-133q-84 135 -129 254t-45 268z" />
    <glyph glyph-name="parenright.superior" unicode="&#xe1e0;" horiz-adv-x="391" 
d="M166 1128q0 286 -154 523h133q84 -133 129 -253t45 -270t-44 -270t-130 -252h-133q154 236 154 522z" />
    <glyph glyph-name="equal.superior" unicode="&#xe1e3;" horiz-adv-x="716" 
d="M680 1143h-645v127h645v-127zM680 885h-645v127h645v-127z" />
    <glyph glyph-name="grave.cap" unicode="&#xe300;" horiz-adv-x="493" 
d="M344 1483h-151l-189 278h189z" />
    <glyph glyph-name="acute.cap" unicode="&#xe301;" 
d="M262 1483h-149l151 278h187z" />
    <glyph glyph-name="circumflex.cap" unicode="&#xe302;" 
d="M139 1483h-166l187 278h170l188 -278h-166l-106 178z" />
    <glyph glyph-name="caron.cap" unicode="&#xe303;" 
d="M332 1483h-170l-189 278h166l109 -176l104 176h166z" />
    <glyph glyph-name="tilde.cap" unicode="&#xe304;" 
d="M78 1499h-121q6 94 49 169t127 75q51 0 126 -43t99 -43t40 31q15 31 16 59h123q0 -88 -45 -167t-127 -79q-49 0 -123 43t-101 43q-27 1 -45 -29t-18 -59z" />
    <glyph glyph-name="dieresis.cap" unicode="&#xe305;" 
d="M494 1507h-177v226h177v-226zM174 1507h-174v226h174v-226z" />
    <glyph glyph-name="macron.cap" unicode="&#xe306;" 
d="M514 1552h-537v142h537v-142z" />
    <glyph glyph-name="breve.cap" unicode="&#xe307;" 
d="M-12 1755h112q4 -61 44 -99t102 -38t101 38q40 38 44 99h113q0 -100 -65 -185t-193 -85t-194 85q-64 85 -64 185z" />
    <glyph glyph-name="ring.cap" unicode="&#xe308;" 
d="M246 1424q-88 0 -145 57q-58 57 -58 142t59 142q58 57 144 57t144 -56q58 -58 58 -144t-56 -142q-58 -56 -146 -56zM137 1621q0 -46 32 -77t79 -31t77 31t29 78q0 47 -29 79q-30 32 -76 32t-79 -33t-33 -79z" />
    <glyph glyph-name="hungarumlaut.cap" unicode="&#xe309;" 
d="M385 1483h-149l149 278h188zM70 1483h-152l150 278h190z" />
    <glyph glyph-name="dotaccent.cap" unicode="&#xe30a;" 
d="M360 1511h-227v226h227v-226z" />
    <glyph glyph-name="caron.alt" unicode="&#xe30b;" 
d="M410 1149h-140l41 321h191z" />
    <glyph glyph-name="commaaccent" unicode="&#xe30c;" 
d="M166 -463h-141l81 324h209z" />
    <glyph glyph-name="commaaccent.alt" unicode="&#xe30d;" 
d="M641 1192h-207l150 278h135z" />
    <glyph glyph-name="grave.sc" unicode="&#xe320;" horiz-adv-x="493" 
d="M344 1239h-151l-189 279h189z" />
    <glyph glyph-name="acute.sc" unicode="&#xe321;" 
d="M262 1239h-149l151 279h187z" />
    <glyph glyph-name="circumflex.sc" unicode="&#xe322;" 
d="M139 1239h-166l187 279h170l188 -279h-166l-106 178z" />
    <glyph glyph-name="caron.sc" unicode="&#xe323;" 
d="M332 1239h-170l-189 279h166l109 -177l104 177h166z" />
    <glyph glyph-name="tilde.sc" unicode="&#xe324;" 
d="M78 1255h-121q6 94 49 169t127 75q51 0 126 -43t99 -43t40 31q15 31 16 59h123q0 -88 -45 -167t-127 -79q-49 0 -123 43t-101 43q-27 1 -45 -29t-18 -59z" />
    <glyph glyph-name="dieresis.sc" unicode="&#xe325;" 
d="M494 1264h-177v225h177v-225zM174 1264h-174v225h174v-225z" />
    <glyph glyph-name="macron.sc" unicode="&#xe326;" 
d="M514 1309h-537v141h537v-141z" />
    <glyph glyph-name="breve.sc" unicode="&#xe327;" 
d="M-12 1511h112q4 -61 44 -99t102 -38t101 38q40 38 44 99h113q0 -100 -65 -185t-193 -85t-194 85q-64 85 -64 185z" />
    <glyph glyph-name="ring.sc" unicode="&#xe328;" 
d="M246 1180q-88 0 -145 57q-58 57 -58 142t59 143q58 58 144 57q86 0 144 -57q58 -58 58 -144t-56 -142q-58 -56 -146 -56zM137 1377q0 -46 32 -77q32 -30 79 -30t77 30t29 78q0 47 -29 79q-30 32 -76 32t-79 -33t-33 -79z" />
    <glyph glyph-name="hungarumlaut.sc" unicode="&#xe329;" 
d="M385 1239h-149l149 279h188zM70 1239h-152l150 279h190z" />
    <glyph glyph-name="dotaccent.sc" unicode="&#xe32a;" 
d="M360 1268h-227v225h227v-225z" />
    <glyph glyph-name="ntilde.superior" unicode="&#xf463;" horiz-adv-x="681" 
d="M250 549h-172v500q0 88 -4 125h157l5 -95q59 106 176 107q190 0 190 -223v-414h-170v403q0 43 -21 73q-22 30 -67 30t-70 -35t-24 -82v-389zM250 1378q-51 0 -51 -71h-99q6 82 41 139t101 57q41 0 102 -35t78 -34q47 0 47 73h98q0 -76 -36 -137t-103 -61q-39 1 -98 35
t-80 34z" />
    <glyph glyph-name="i.superior" unicode="&#xf464;" horiz-adv-x="329" 
d="M252 1272h-174v153h174v-153zM250 549h-172v625h172v-625z" />
    <glyph glyph-name="uniF8FF" unicode="&#xf8ff;" horiz-adv-x="1048" 
d="M102 1366v-1264h844v1264h-844zM1049 0h-1049v1470h1049v-1470zM539 494h-97v18q0 125 81 218q34 38 68 74q81 86 81 191q0 70 -45 114t-131 44t-193 -43l-8 96q104 41 219 41q116 -1 190 -67t74 -187q0 -77 -38 -143t-82 -104t-82 -98t-37 -132v-22zM551 240h-121v131
h121v-131z" />
    <glyph glyph-name="napostrophe.sc" horiz-adv-x="1101" 
d="M102 1067h-141l88 410h172zM344 0h-207v1094h305l316 -836v836h207v-1094h-301l-320 825v-825z" />
    <glyph glyph-name="revcommaaccent" 
d="M385 1192h-209l150 324h141z" />
    <glyph glyph-name="ordmasculine.sc" horiz-adv-x="614" 
d="M305 598q-117 0 -178 69t-61 185t63 190q63 72 180 72t178 -70t61 -186t-62 -188q-64 -72 -181 -72zM307 1001q-80 0 -79 -145t79 -145q80 0 80 145t-80 145z" />
    </font>
</defs>
</svg>
